<svg xmlns="http://www.w3.org/2000/svg" width="149" height="149" viewBox="0 0 149 149">
  <g id="_10" data-name="10" transform="translate(-2918 -12660)">
    <g id="Group_1255" data-name="Group 1255">
      <circle id="Ellipse_228" data-name="Ellipse 228" cx="67.5" cy="67.5" r="67.5" transform="translate(2925 12667)" fill="#fff"/>
      <g id="Ellipse_248" data-name="Ellipse 248" transform="translate(2918 12660)" fill="none" stroke="#2980f7" stroke-width="4" opacity="0">
        <circle cx="74.5" cy="74.5" r="74.5" stroke="none"/>
        <circle cx="74.5" cy="74.5" r="72.5" fill="none"/>
      </g>
      <g id="Group_1254" data-name="Group 1254">
        <path id="Path_1519" data-name="Path 1519" d="M652.32,367.276a1.192,1.192,0,0,1,1.415-.936,1.225,1.225,0,0,1,.913,1.454L647.762,400.1a1.2,1.2,0,0,1-1.164.964h-31.08a1.2,1.2,0,0,1-1.174-1.015l-6.873-32.258a1.222,1.222,0,0,1,.911-1.454,1.191,1.191,0,0,1,1.414.936l6.681,31.344h29.164Z" transform="translate(2334.557 12350.88)" stroke="#000" stroke-width="1" fill-rule="evenodd"/>
        <path id="Path_1520" data-name="Path 1520" d="M610.715,376.067c.347,0,1.049-.8,1.747-1.6,1.055-1.205,2.109-2.41,3.516-2.41s2.461,1.2,3.516,2.41c.7.8,1.4,1.6,1.746,1.6s1.048-.8,1.746-1.6c1.056-1.205,2.111-2.41,3.516-2.41s2.461,1.2,3.515,2.41c.7.8,1.4,1.6,1.748,1.6s1.047-.8,1.746-1.6c1.055-1.205,2.109-2.41,3.515-2.41s2.461,1.2,3.517,2.41c.7.8,1.4,1.6,1.747,1.6s1.047-.8,1.745-1.6c1.056-1.205,2.11-2.41,3.517-2.41s2.46,1.2,3.516,2.41c.7.8,1.4,1.6,1.746,1.6v2.446c-1.407,0-2.461-1.206-3.516-2.409-.7-.8-1.4-1.6-1.746-1.6s-1.049.8-1.748,1.6c-1.055,1.2-2.109,2.409-3.514,2.409s-2.462-1.206-3.517-2.409c-.7-.8-1.4-1.6-1.747-1.6s-1.047.8-1.747,1.6c-1.053,1.2-2.109,2.409-3.514,2.409s-2.461-1.206-3.516-2.409c-.7-.8-1.4-1.6-1.747-1.6s-1.048.8-1.747,1.6c-1.055,1.2-2.11,2.409-3.515,2.409s-2.461-1.206-3.516-2.409c-.7-.8-1.4-1.6-1.746-1.6s-1.048.8-1.748,1.595c-1.054,1.2-2.108,2.41-3.515,2.41Z" transform="translate(2333.851 12349.639)" fill="none" stroke="#000" stroke-width="1" fill-rule="evenodd"/>
        <path id="Path_1521" data-name="Path 1521" d="M628.187,363.511l-.371.535-2.607,3.768-4.8,6.937a1.789,1.789,0,0,0,.4,2.443h0a1.685,1.685,0,0,0,2.381-.413l4.8-6.936.538.39-6.465,9.341a1.785,1.785,0,0,0,.4,2.442h0a1.683,1.683,0,0,0,2.38-.414l6.463-9.339.536.391L624.762,382.9a1.788,1.788,0,0,0,.4,2.442h0a1.684,1.684,0,0,0,2.381-.413l7.088-10.241.536.391-6.464,9.341a1.789,1.789,0,0,0,.4,2.444h0a1.685,1.685,0,0,0,2.381-.415l6.464-9.339,2.607-3.768.671.489-2.81,4.062a1.623,1.623,0,0,0,.62,2.129h0a1.535,1.535,0,0,0,2.163-.1l6.278-9.073a6.463,6.463,0,0,0,.369-6.869l-.612-1.13a1.843,1.843,0,0,1,.107-2l.758-1.026a1.127,1.127,0,0,0,.212-.86,1.1,1.1,0,0,0-.454-.754l-8.177-5.963a1.092,1.092,0,0,0-1.535.253l-2,2.793a1.87,1.87,0,0,1-1.013.724,6.064,6.064,0,0,0-3.492,2.493l-1.734,2.508Z" transform="translate(2331.825 12353.962)" fill="#fff" stroke="#000" stroke-width="1" fill-rule="evenodd"/>
        <path id="Path_1610" data-name="Path 1610" d="M897.842,12366.738s2.873-7.734,12.334-3.963,15.987,1.916,18.408,0,12.815-2.863,10.808,2.332-4.551,11.975-2.752,15.264.94,13.33-2.092,17.8,5.2,15.523-2.585,14.279-35.161-9.211-36.385-3.518c-2.412-9.277-4.413-20.033,0-26.592S897.842,12366.738,897.842,12366.738Z" transform="translate(2099.148 340.372)" fill="none" stroke="#000" stroke-width="2"/>
        <path id="Path_1611" data-name="Path 1611" d="M624.062,357.664l-.182.262-1.278,1.848-2.355,3.4a.877.877,0,0,0,.2,1.2h0a.826.826,0,0,0,1.168-.2l2.354-3.4.264.191-3.17,4.58a.875.875,0,0,0,.2,1.2h0a.825.825,0,0,0,1.167-.2l3.169-4.58.263.192-3.475,5.022a.877.877,0,0,0,.2,1.2h0a.826.826,0,0,0,1.167-.2l3.476-5.022.263.191-3.17,4.58a.877.877,0,0,0,.2,1.2h0a.826.826,0,0,0,1.168-.2l3.17-4.58,1.278-1.848.329.24-1.378,1.992a.8.8,0,0,0,.3,1.044h0a.753.753,0,0,0,1.061-.048l3.079-4.449a3.169,3.169,0,0,0,.181-3.368l-.3-.554a.9.9,0,0,1,.052-.98l.372-.5a.553.553,0,0,0,.1-.422.538.538,0,0,0-.223-.37l-4.009-2.924a.535.535,0,0,0-.753.124l-.982,1.37a.917.917,0,0,1-.5.355,2.973,2.973,0,0,0-1.713,1.223l-.85,1.23Z" transform="translate(3644.188 13088.272) rotate(180)" fill="#fff" stroke="#000" stroke-width="1" fill-rule="evenodd"/>
        <line id="Line_906" data-name="Line 906" x2="70" transform="translate(2955.5 12767.5)" fill="none" stroke="#000" stroke-linecap="round" stroke-width="3"/>
      </g>
    </g>
  </g>
</svg>
