<svg xmlns="http://www.w3.org/2000/svg" width="149" height="149" viewBox="0 0 149 149">
  <g id="_2" data-name="2" transform="translate(-2100 -12278)">
    <g id="Group_1247" data-name="Group 1247">
      <circle id="Ellipse_228" data-name="Ellipse 228" cx="67.5" cy="67.5" r="67.5" transform="translate(2107 12285)" fill="#fff"/>
      <g id="Ellipse_248" data-name="Ellipse 248" transform="translate(2100 12278)" fill="none" stroke="#2980f7" stroke-width="4" opacity="0">
        <circle cx="74.5" cy="74.5" r="74.5" stroke="none"/>
        <circle cx="74.5" cy="74.5" r="72.5" fill="none"/>
      </g>
      <g id="Group_1246" data-name="Group 1246" transform="translate(-5)">
        <path id="Path_1522" data-name="Path 1522" d="M438.432,367.9a1.968,1.968,0,0,1,2.336-1.546,2.025,2.025,0,0,1,1.507,2.4L430.9,422.118a1.979,1.979,0,0,1-1.92,1.592H377.649a1.982,1.982,0,0,1-1.939-1.676l-11.353-53.276a2.021,2.021,0,0,1,1.5-2.4A1.97,1.97,0,0,1,368.2,367.9l11.031,51.767H427.4Z" transform="translate(1775.688 11957.688)" fill-rule="evenodd"/>
        <path id="Path_1523" data-name="Path 1523" d="M367.585,378.677c.576,0,1.731-1.32,2.885-2.637,1.742-1.99,3.485-3.979,5.805-3.979s4.066,1.989,5.808,3.979c1.154,1.317,2.309,2.637,2.884,2.637s1.731-1.32,2.885-2.637c1.742-1.99,3.484-3.979,5.805-3.979s4.064,1.989,5.807,3.979c1.154,1.317,2.31,2.637,2.885,2.637s1.73-1.32,2.885-2.637c1.742-1.99,3.484-3.979,5.805-3.979s4.064,1.989,5.805,3.979c1.154,1.317,2.312,2.637,2.885,2.637s1.73-1.32,2.885-2.637c1.743-1.99,3.485-3.979,5.807-3.979s4.064,1.989,5.805,3.979c1.155,1.317,2.309,2.637,2.885,2.637v4.04c-2.323,0-4.064-1.992-5.805-3.978-1.154-1.32-2.309-2.637-2.885-2.637s-1.733,1.317-2.887,2.637c-1.742,1.987-3.485,3.978-5.805,3.978s-4.064-1.992-5.8-3.978c-1.155-1.32-2.31-2.637-2.887-2.637s-1.731,1.317-2.884,2.637c-1.743,1.987-3.487,3.978-5.807,3.978s-4.065-1.992-5.807-3.978c-1.154-1.32-2.309-2.637-2.885-2.637s-1.731,1.317-2.884,2.637c-1.743,1.987-3.486,3.978-5.807,3.978s-4.064-1.992-5.805-3.978c-1.155-1.32-2.309-2.637-2.887-2.637s-1.729,1.317-2.884,2.634c-1.742,1.989-3.485,3.981-5.807,3.981Z" transform="translate(1776.653 11959.385)" fill-rule="evenodd"/>
        <path id="Path_1524" data-name="Path 1524" d="M395.657,402.023a5.524,5.524,0,1,0-5.382-5.521A5.463,5.463,0,0,0,395.657,402.023Z" transform="translate(1783.346 11964.965)" fill-rule="evenodd"/>
      </g>
    </g>
  </g>
</svg>
