<svg xmlns="http://www.w3.org/2000/svg" width="149" height="149" viewBox="0 0 149 149">
  <g id="_3" data-name="3" transform="translate(-2371 -12278)">
    <g id="Group_1249" data-name="Group 1249">
      <circle id="Ellipse_228" data-name="Ellipse 228" cx="67.5" cy="67.5" r="67.5" transform="translate(2378 12285)" fill="#fff"/>
      <g id="Ellipse_248" data-name="Ellipse 248" transform="translate(2371 12278)" fill="none" stroke="#2980f7" stroke-width="4" opacity="0">
        <circle cx="74.5" cy="74.5" r="74.5" stroke="none"/>
        <circle cx="74.5" cy="74.5" r="72.5" fill="none"/>
      </g>
      <g id="Group_1248" data-name="Group 1248">
        <path id="Path_1525" data-name="Path 1525" d="M544.782,494.94c-1.668.8-3.378.661-3.821-.311s.557-2.4,2.225-3.2L621.383,454c1.667-.8,3.38-.661,3.82.308s-.556,2.405-2.225,3.2Z" transform="translate(1866.145 11879.562)" fill-rule="evenodd"/>
        <path id="Path_1526" data-name="Path 1526" d="M621.382,494.94c1.668.8,3.378.661,3.821-.311s-.556-2.4-2.225-3.2L544.782,454c-1.671-.8-3.381-.661-3.823.308s.559,2.405,2.225,3.2Z" transform="translate(1866.144 11879.562)" fill-rule="evenodd"/>
        <path id="Path_1527" data-name="Path 1527" d="M582.814,440.809l29.2,59.953,1.365,2.8h-64.5l1.365-2.8,29.2-59.953,1.682-3.454,1.683,3.454Zm24.473,58.878-26.156-53.7-26.156,53.7Z" transform="translate(1868.094 11875.645)" fill-rule="evenodd"/>
      </g>
    </g>
  </g>
</svg>
