<svg xmlns="http://www.w3.org/2000/svg" width="149" height="149" viewBox="0 0 149 149">
  <g id="_4" data-name="4" transform="translate(-2645 -12278)">
    <g id="Group_1251" data-name="Group 1251">
      <circle id="Ellipse_228" data-name="Ellipse 228" cx="67.5" cy="67.5" r="67.5" transform="translate(2652 12285)" fill="#fff"/>
      <g id="Ellipse_248" data-name="Ellipse 248" transform="translate(2645 12278)" fill="none" stroke="#2980f7" stroke-width="4" opacity="0">
        <circle cx="74.5" cy="74.5" r="74.5" stroke="none"/>
        <circle cx="74.5" cy="74.5" r="72.5" fill="none"/>
      </g>
      <g id="Group_1250" data-name="Group 1250">
        <path id="Path_1528" data-name="Path 1528" d="M636.5,277.573a2.157,2.157,0,0,1,2.562-1.7,2.221,2.221,0,0,1,1.659,2.633l-12.487,58.557a2.164,2.164,0,0,1-2.107,1.746H569.795a2.179,2.179,0,0,1-2.124-1.836l-12.463-58.467a2.22,2.22,0,0,1,1.659-2.633,2.16,2.16,0,0,1,2.562,1.7l12.105,56.807h52.857Z" transform="translate(2121.827 12048.02)" fill-rule="evenodd"/>
        <path id="Path_1529" data-name="Path 1529" d="M556.55,285.525c.635,0,1.9-1.445,3.171-2.89,1.91-2.188,3.823-4.368,6.369-4.368s4.459,2.184,6.372,4.368c1.268,1.445,2.532,2.89,3.164,2.89s1.9-1.445,3.168-2.89c1.907-2.188,3.827-4.368,6.369-4.368s4.459,2.181,6.372,4.368c1.271,1.445,2.536,2.89,3.164,2.89s1.9-1.445,3.171-2.89c1.913-2.188,3.823-4.368,6.372-4.368s4.459,2.181,6.369,4.368c1.271,1.445,2.536,2.89,3.168,2.89s1.9-1.445,3.164-2.89c1.907-2.184,3.823-4.368,6.372-4.368s4.459,2.184,6.369,4.368c1.271,1.445,2.536,2.89,3.164,2.89v4.435c-2.545,0-4.459-2.181-6.369-4.365-1.264-1.448-2.535-2.893-3.164-2.893s-1.9,1.445-3.174,2.893c-1.9,2.184-3.82,4.365-6.362,4.365s-4.462-2.184-6.372-4.365c-1.268-1.448-2.539-2.893-3.164-2.893s-1.9,1.445-3.167,2.893c-1.91,2.181-3.827,4.365-6.376,4.365s-4.459-2.184-6.369-4.365c-1.265-1.448-2.535-2.893-3.168-2.893s-1.9,1.445-3.161,2.893c-1.913,2.181-3.83,4.365-6.375,4.365s-4.459-2.181-6.369-4.365c-1.264-1.448-2.535-2.893-3.168-2.893s-1.9,1.445-3.164,2.893c-1.91,2.181-3.823,4.365-6.375,4.365Z" transform="translate(2125.087 12053.746)" fill-rule="evenodd"/>
        <path id="Path_1530" data-name="Path 1530" d="M572.4,305.018v-4.9h-8.858v-3.128l7.536-12.507h5.754v12.035H579.2v3.6h-2.371v4.9Zm0-8.5v-4.549c0-1.234.063-2.5.124-3.82h-.094c-.642,1.325-1.194,2.525-1.876,3.82l-2.646,4.486-.027.063Z" transform="translate(2141.476 12068.334)"/>
        <path id="Path_1531" data-name="Path 1531" d="M583.779,294.9c0,6.315-2.489,10.7-7.563,10.7-5.168,0-7.449-4.767-7.479-10.58,0-5.967,2.432-10.644,7.6-10.644C581.665,284.383,583.779,289.28,583.779,294.9Zm-10.363.124c0,4.706,1.107,6.951,2.893,6.951,1.813,0,2.8-2.338,2.8-7.014,0-4.546-.957-6.944-2.837-6.944C574.581,288.019,573.417,290.227,573.417,295.027Z" transform="translate(2153.665 12068.09)"/>
        <g id="Ellipse_251" data-name="Ellipse 251" transform="translate(2739 12349)" fill="#fff" stroke="#000" stroke-width="1">
          <circle cx="2" cy="2" r="2" stroke="none"/>
          <circle cx="2" cy="2" r="1.5" fill="none"/>
        </g>
      </g>
    </g>
  </g>
</svg>
