<svg xmlns="http://www.w3.org/2000/svg" width="149" height="149" viewBox="0 0 149 149">
  <g id="_5" data-name="5" transform="translate(-2918 -12278)">
    <g id="Group_1252" data-name="Group 1252">
      <circle id="Ellipse_228" data-name="Ellipse 228" cx="67.5" cy="67.5" r="67.5" transform="translate(2925 12285)" fill="#fff"/>
      <g id="Ellipse_248" data-name="Ellipse 248" transform="translate(2918 12278)" fill="none" stroke="#2980f7" stroke-width="4" opacity="0">
        <circle cx="74.5" cy="74.5" r="74.5" stroke="none"/>
        <circle cx="74.5" cy="74.5" r="72.5" fill="none"/>
      </g>
      <path id="Path_1609" data-name="Path 1609" d="M123.9,442.814a41.438,41.438,0,0,1,29.774,12.659,44.033,44.033,0,0,1,0,61.124,41.345,41.345,0,0,1-59.545,0,44.032,44.032,0,0,1,0-61.124A41.434,41.434,0,0,1,123.9,442.814ZM150,459.25a36.236,36.236,0,0,0-52.183,0,38.6,38.6,0,0,0,0,53.568,36.232,36.232,0,0,0,52.183,0,38.6,38.6,0,0,0,0-53.568Z" transform="translate(2867.667 11866.186)" fill-rule="evenodd"/>
    </g>
  </g>
</svg>
