<svg xmlns="http://www.w3.org/2000/svg" width="149" height="149" viewBox="0 0 149 149">
  <g id="_6" data-name="6" transform="translate(-3188 -12278)">
    <g id="Ellipse_248" data-name="Ellipse 248" transform="translate(3188 12278)" fill="none" stroke="#2980f7" stroke-width="4" opacity="0">
      <circle cx="74.5" cy="74.5" r="74.5" stroke="none"/>
      <circle cx="74.5" cy="74.5" r="72.5" fill="none"/>
    </g>
    <g id="Group_1253" data-name="Group 1253">
      <circle id="Ellipse_228" data-name="Ellipse 228" cx="67.5" cy="67.5" r="67.5" transform="translate(3195 12285)" fill="#fff"/>
      <path id="Path_1519" data-name="Path 1519" d="M683.913,367.954a2.032,2.032,0,0,1,2.41-1.6,2.087,2.087,0,0,1,1.555,2.477L676.147,423.89a2.045,2.045,0,0,1-1.984,1.642H621.2a2.045,2.045,0,0,1-2-1.729L607.49,368.836a2.082,2.082,0,0,1,1.553-2.477,2.029,2.029,0,0,1,2.409,1.6l11.385,53.411h49.695Z" transform="translate(2614.557 11959.759)" fill-rule="evenodd"/>
      <path id="Path_1520" data-name="Path 1520" d="M610.715,378.887c.592,0,1.788-1.362,2.977-2.72,1.8-2.054,3.594-4.106,5.991-4.106s4.193,2.052,5.991,4.106c1.19,1.359,2.382,2.72,2.975,2.72s1.785-1.362,2.975-2.72c1.8-2.054,3.6-4.106,5.991-4.106s4.193,2.052,5.99,4.106c1.193,1.359,2.385,2.72,2.978,2.72s1.785-1.362,2.976-2.72c1.8-2.054,3.594-4.106,5.99-4.106s4.194,2.052,5.992,4.106c1.189,1.359,2.382,2.72,2.977,2.72s1.784-1.362,2.974-2.72c1.8-2.054,3.6-4.106,5.992-4.106s4.191,2.052,5.991,4.106c1.189,1.359,2.382,2.72,2.975,2.72v4.169c-2.4,0-4.193-2.055-5.991-4.1-1.19-1.361-2.382-2.72-2.975-2.72s-1.788,1.359-2.978,2.72c-1.8,2.05-3.594,4.1-5.988,4.1s-4.2-2.055-5.992-4.1c-1.191-1.361-2.382-2.72-2.977-2.72s-1.784,1.359-2.977,2.72c-1.794,2.05-3.594,4.1-5.988,4.1s-4.193-2.055-5.991-4.1c-1.19-1.361-2.382-2.72-2.977-2.72s-1.785,1.359-2.977,2.72c-1.8,2.05-3.6,4.1-5.99,4.1s-4.194-2.055-5.991-4.1c-1.189-1.361-2.382-2.72-2.975-2.72s-1.785,1.359-2.978,2.718c-1.8,2.052-3.593,4.107-5.99,4.107Z" transform="translate(2615.656 11961.691)" fill-rule="evenodd"/>
      <path id="Path_1521" data-name="Path 1521" d="M633.884,371.588l-.632.911-4.443,6.421-8.182,11.82a3.048,3.048,0,0,0,.688,4.163h0a2.871,2.871,0,0,0,4.058-.7l8.18-11.819.917.665-11.016,15.917a3.041,3.041,0,0,0,.688,4.162h0a2.869,2.869,0,0,0,4.055-.705l11.013-15.914.914.667-12.076,17.452a3.046,3.046,0,0,0,.685,4.162h0a2.87,2.87,0,0,0,4.056-.7l12.078-17.451.913.665-11.015,15.917a3.049,3.049,0,0,0,.688,4.165h0a2.87,2.87,0,0,0,4.058-.707l11.015-15.914,4.443-6.421,1.144.834-4.789,6.921c-.724,1.043-.247,2.675,1.057,3.628h0c1.305.949,2.964.872,3.686-.168l10.7-15.46a11.014,11.014,0,0,0,.629-11.7l-1.042-1.925a3.141,3.141,0,0,1,.182-3.4l1.292-1.748a1.921,1.921,0,0,0,.361-1.466,1.868,1.868,0,0,0-.774-1.285L653.482,352.4a1.86,1.86,0,0,0-2.616.432l-3.411,4.759a3.186,3.186,0,0,1-1.726,1.233,10.332,10.332,0,0,0-5.951,4.249l-2.955,4.273Z" transform="translate(2618.809 11954.962)" fill-rule="evenodd"/>
      <text id="_1" data-name="1" transform="translate(3272 12374)" font-size="16" font-family="Lato-Regular, Lato"><tspan x="0" y="0">1</tspan></text>
    </g>
  </g>
</svg>
