<svg xmlns="http://www.w3.org/2000/svg" width="149" height="149" viewBox="0 0 149 149">
  <g id="_7" data-name="7" transform="translate(-2105 -12660)">
    <g id="Group_1260" data-name="Group 1260">
      <circle id="Ellipse_228" data-name="Ellipse 228" cx="67.5" cy="67.5" r="67.5" transform="translate(2112 12667)" fill="#fff"/>
      <g id="Ellipse_248" data-name="Ellipse 248" transform="translate(2105 12660)" fill="none" stroke="#2980f7" stroke-width="4" opacity="0">
        <circle cx="74.5" cy="74.5" r="74.5" stroke="none"/>
        <circle cx="74.5" cy="74.5" r="72.5" fill="none"/>
      </g>
      <g id="Group_1259" data-name="Group 1259">
        <path id="Path_1533" data-name="Path 1533" d="M723.78,440.651l31.952,57.21,1.493,2.675h-70.57l1.493-2.675,31.953-57.21,1.839-3.3,1.84,3.3Zm26.776,56.184L721.94,445.595l-28.617,51.241Z" transform="translate(1457.345 12256.645)" fill-rule="evenodd"/>
        <path id="Path_1534" data-name="Path 1534" d="M700.449,495.512l23.587-42.234,1.841-3.3,1.84,3.3L751.3,495.512l1.493,2.675H698.956l1.493-2.675Zm25.429-37.29-20.253,36.264h40.5Z" transform="translate(1461.772 12258.994)" fill-rule="evenodd"/>
        <path id="Path_1535" data-name="Path 1535" d="M709.421,493.8l17.487-31.31,1.84-3.295,1.841,3.295,17.487,31.31,1.493,2.675h-41.64l1.492-2.675Zm19.327-26.365L714.6,492.772h28.3Z" transform="translate(1465.001 12260.708)" fill-rule="evenodd"/>
      </g>
    </g>
  </g>
</svg>
