<svg xmlns="http://www.w3.org/2000/svg" width="149" height="149" viewBox="0 0 149 149">
  <g id="_8" data-name="8" transform="translate(-2375 -12660)">
    <circle id="Ellipse_228" data-name="Ellipse 228" cx="67.5" cy="67.5" r="67.5" transform="translate(2382 12667)" fill="#fff"/>
    <g id="Ellipse_248" data-name="Ellipse 248" transform="translate(2375 12660)" fill="none" stroke="#2980f7" stroke-width="4" opacity="0">
      <circle cx="74.5" cy="74.5" r="74.5" stroke="none"/>
      <circle cx="74.5" cy="74.5" r="72.5" fill="none"/>
    </g>
    <g id="Group_1258" data-name="Group 1258">
      <path id="Path_1522" data-name="Path 1522" d="M409.015,423.71H377.649a1.982,1.982,0,0,1-1.939-1.676l-11.353-53.276a2.021,2.021,0,0,1,1.5-2.4A1.97,1.97,0,0,1,368.2,367.9l11.031,51.767Z" transform="translate(2036.688 12343.688)" fill-rule="evenodd"/>
      <path id="Path_1523" data-name="Path 1523" d="M367.585,378.677c.576,0,1.731-1.32,2.885-2.637,1.742-1.99,3.485-3.979,5.805-3.979s4.066,1.989,5.808,3.979c1.154,1.317,2.309,2.637,2.884,2.637s1.731-1.32,2.885-2.637c1.742-1.99,3.484-3.979,5.805-3.979s4.064,1.989,5.807,3.979c1.154,1.317,2.31,2.637,2.885,2.637s2.319,4.04,0,4.04-4.065-1.992-5.807-3.978c-1.154-1.32-2.309-2.637-2.885-2.637s-1.731,1.317-2.884,2.637c-1.743,1.987-3.486,3.978-5.807,3.978s-4.064-1.992-5.805-3.978c-1.155-1.32-2.309-2.637-2.887-2.637s-1.729,1.317-2.884,2.634c-1.742,1.989-3.485,3.981-5.807,3.981Z" transform="translate(2037.653 12345.385)" fill-rule="evenodd"/>
      <line id="Line_815" data-name="Line 815" y2="85" transform="translate(2449.5 12698.5)" fill="none" stroke="#000" stroke-width="1" stroke-dasharray="4"/>
      <path id="Path_772" data-name="Path 772" d="M41.644,4.83a33.632,33.632,0,0,0-4.168,3.441l-.7.69L32.8,11.509C18.346,20.778,7.589,27.915,2.42,31.662,1.292,32.485-.02,33.481,0,33.5s1.579-.769,2.8-1.425c6.014-3.237,17.161-9.814,31.943-18.846,3.312-2.026,3.594-2.187,4.1-2.358a37.9,37.9,0,0,0,5.409-2.455l.815-.457.436.568c2.559,3.329.856-1.278.856-1.3a5.905,5.905,0,0,1,.718-.52,22.335,22.335,0,0,0,5.44-4.671c.626-.893.7-1.579.21-1.861A3.171,3.171,0,0,0,50.5.227a27.589,27.589,0,0,0-6.112,2.814c-.369.22-.682.393-.687.385s-.267-.413-.569-.9C40.429-1.748,42.1,4.509,41.644,4.83Zm9.7-3.51c.1.238-.754,1.142-1.959,2.09a31.525,31.525,0,0,1-3.892,2.645c-.021-.019-.277-.384-.569-.812L44.4,4.475l.108-.082c.22-.161,1.923-1.152,2.7-1.571a29.174,29.174,0,0,1,2.846-1.341C50.75,1.222,51.278,1.159,51.345,1.32Zm-8.106,4.04c.031.047.277.407.549.8l.492.71-.856.486a19.444,19.444,0,0,1-4.609,2.1c-.292.054-.477,0-.477-.131,0-.359,1.118-1.438,2.712-2.614.8-.588,2.025-1.434,2.082-1.439C43.162,5.277,43.208,5.317,43.239,5.361Z" transform="matrix(0.766, -0.643, 0.643, 0.766, 2445.089, 12743.181)"/>
    </g>
  </g>
</svg>
