<svg xmlns="http://www.w3.org/2000/svg" width="149" height="149" viewBox="0 0 149 149">
  <g id="_9" data-name="9" transform="translate(-2648 -12660)">
    <g id="Group_1257" data-name="Group 1257">
      <circle id="Ellipse_228" data-name="Ellipse 228" cx="67.5" cy="67.5" r="67.5" transform="translate(2655 12667)" fill="#fff"/>
      <g id="Ellipse_248" data-name="Ellipse 248" transform="translate(2648 12660)" fill="none" stroke="#2980f7" stroke-width="4" opacity="0">
        <circle cx="74.5" cy="74.5" r="74.5" stroke="none"/>
        <circle cx="74.5" cy="74.5" r="72.5" fill="none"/>
      </g>
      <g id="Group_1256" data-name="Group 1256">
        <path id="Path_1522" data-name="Path 1522" d="M389.543,398.708h-17.7a1.119,1.119,0,0,1-1.094-.946l-6.408-30.069a1.141,1.141,0,0,1,.849-1.355,1.112,1.112,0,0,1,1.319.873l6.226,29.218Z" transform="translate(2316.424 12352.189)" fill-rule="evenodd"/>
        <path id="Path_1523" data-name="Path 1523" d="M367.585,375.8c.325,0,.977-.745,1.628-1.488.983-1.123,1.967-2.246,3.277-2.246s2.3,1.123,3.278,2.246c.651.743,1.3,1.488,1.628,1.488s.977-.745,1.628-1.488c.983-1.123,1.966-2.246,3.277-2.246s2.294,1.123,3.277,2.246c.651.743,1.3,1.488,1.628,1.488s1.309,2.28,0,2.28-2.294-1.124-3.277-2.245c-.651-.745-1.3-1.488-1.628-1.488s-.977.743-1.628,1.488c-.984,1.121-1.968,2.245-3.277,2.245s-2.294-1.124-3.277-2.245c-.652-.745-1.3-1.488-1.629-1.488s-.976.743-1.628,1.487c-.983,1.123-1.967,2.247-3.277,2.247Z" transform="translate(2315.543 12350.643)" fill-rule="evenodd"/>
        <line id="Line_815" data-name="Line 815" y2="85" transform="translate(2721.5 12694.5)" fill="none" stroke="#000" stroke-width="1" stroke-dasharray="4"/>
        <path id="Path_772" data-name="Path 772" d="M23.49,2.724a18.971,18.971,0,0,0-2.351,1.941l-.4.389L18.5,6.492C10.348,11.72,4.281,15.746,1.365,17.859.729,18.324-.011,18.886,0,18.9s.891-.434,1.579-.8c3.392-1.826,9.68-5.536,18.018-10.631a14.4,14.4,0,0,1,2.314-1.33,21.376,21.376,0,0,0,3.051-1.385l.46-.258.246.321c1.443,1.878.483-.721.483-.735a3.331,3.331,0,0,1,.4-.293,12.6,12.6,0,0,0,3.069-2.635c.353-.5.4-.891.119-1.05a1.789,1.789,0,0,0-1.258.03,15.562,15.562,0,0,0-3.447,1.587c-.208.124-.385.222-.388.217s-.15-.233-.321-.505C22.8-.986,23.745,2.543,23.49,2.724ZM28.962.745c.055.134-.425.644-1.1,1.179a17.783,17.783,0,0,1-2.2,1.492c-.012-.011-.156-.217-.321-.458l-.3-.434.061-.046c.124-.091,1.085-.65,1.524-.886A16.456,16.456,0,0,1,28.233.836C28.627.689,28.925.654,28.962.745ZM24.39,3.024c.017.027.156.23.309.452l.278.4-.483.274a10.968,10.968,0,0,1-2.6,1.187c-.165.03-.269,0-.269-.074,0-.2.63-.811,1.53-1.475.451-.332,1.142-.809,1.174-.812S24.372,3,24.39,3.024Z" transform="matrix(0.766, -0.643, 0.643, 0.766, 2730.64, 12737.342)"/>
        <path id="Path_1536" data-name="Path 1536" d="M587.438,12382.5l60.28,60.277" transform="translate(2104.561 321.562)" fill="none" stroke="#000" stroke-linecap="round" stroke-width="3"/>
        <path id="Path_1537" data-name="Path 1537" d="M647.718,12382.5l-60.28,60.277" transform="translate(2104.561 321.562)" fill="none" stroke="#000" stroke-linecap="round" stroke-width="3"/>
      </g>
    </g>
  </g>
</svg>
