<svg xmlns="http://www.w3.org/2000/svg" width="30.667" height="32.481" viewBox="0 0 30.667 32.481">
  <g id="Group_312" data-name="Group 312" transform="translate(-268.722 -57.869)">
    <g id="Icon_ionic-ios-cube" data-name="Icon ionic-ios-cube" transform="translate(269.222 58.375)">
      <path id="Path_873" data-name="Path 873" d="M31.375,9.188,18.6,3.461a.992.992,0,0,0-.806,0L5.011,9.188a.6.6,0,0,0-.029,1.056l12.747,6.712a.972.972,0,0,0,.927,0L31.4,10.244A.6.6,0,0,0,31.375,9.188Z" transform="translate(-3.356 -3.375)" fill="none" stroke="#000" stroke-width="1"/>
      <path id="Path_874" data-name="Path 874" d="M19.713,32.848l12.847-6.8a.576.576,0,0,0,.257-.485V12.376a.531.531,0,0,0-.763-.506l-12.847,6.62a.563.563,0,0,0-.3.506v13.36A.539.539,0,0,0,19.713,32.848Z" transform="translate(-3.15 -3.253)" fill="none" stroke="#000" stroke-width="1"/>
      <path id="Path_875" data-name="Path 875" d="M3.375,12.376V25.558a.576.576,0,0,0,.257.485l12.847,6.8a.526.526,0,0,0,.8-.485V19a.563.563,0,0,0-.3-.506L4.138,11.87A.533.533,0,0,0,3.375,12.376Z" transform="translate(-3.375 -3.253)" fill="none" stroke="#000" stroke-width="1"/>
    </g>
    <g id="_312387" data-name="312387" transform="matrix(0.682, 0.731, -0.731, 0.682, 290.836, 71.996)">
      <path id="Path_772" data-name="Path 772" d="M7.616.883a6.151,6.151,0,0,0-.762.629l-.128.126L6,2.1C3.355,3.8,1.388,5.105.443,5.79.236,5.941,0,6.123,0,6.127s.289-.141.512-.261c1.1-.592,3.138-1.795,5.842-3.447a4.667,4.667,0,0,1,.75-.431,6.931,6.931,0,0,0,.989-.449l.149-.083.08.1c.468.609.157-.234.157-.238a1.08,1.08,0,0,1,.131-.1A4.085,4.085,0,0,0,9.6.372c.114-.163.128-.289.038-.34a.58.58,0,0,0-.408.01A5.046,5.046,0,0,0,8.118.556c-.068.04-.125.072-.126.07s-.049-.076-.1-.164C7.394-.32,7.7.825,7.616.883ZM9.39.241c.018.044-.138.209-.358.382a5.765,5.765,0,0,1-.712.484s-.051-.07-.1-.148L8.12.818,8.139.8c.04-.029.352-.211.494-.287a5.335,5.335,0,0,1,.52-.245C9.281.224,9.378.212,9.39.241ZM7.908.98l.1.147.09.13-.157.089A3.556,3.556,0,0,1,7.1,1.73c-.053.01-.087,0-.087-.024,0-.066.2-.263.5-.478.146-.108.37-.262.381-.263S7.9.972,7.908.98Z" transform="translate(0 0)"/>
    </g>
    <g id="Group_272" data-name="Group 272" transform="translate(298.451 77.812) rotate(135)">
      <path id="Path_766" data-name="Path 766" d="M.272,0S-1.1,5.743,2.3,9.711c3.168,4.134,9.886,1.894,13.013,4.913s-.506,7.161-.506,7.161" transform="matrix(-0.998, 0.07, -0.07, -0.998, 18.639, 22.268)" fill="none" stroke="#0076cc" stroke-linecap="round" stroke-width="0.3"/>
      <path id="Path_770" data-name="Path 770" d="M.271,0S-1.095,5.688,2.308,9.621c3.174,4.1,9.9,1.884,13.029,4.876s-1.181,7.8-1.181,7.8" transform="matrix(-0.998, 0.07, -0.07, -0.998, 18.361, 22.545)" fill="none" stroke="#ff9d00" stroke-linecap="round" stroke-width="0.3"/>
      <path id="Path_769" data-name="Path 769" d="M.271,0S-1.095,5.685,2.309,9.616c3.175,4.095,9.9,1.883,13.033,4.874,2.212,2.112.63,5.149-.493,6.753l-.012.017A11.247,11.247,0,0,1,14,22.326" transform="matrix(-0.998, 0.07, -0.07, -0.998, 18.18, 22.545)" fill="none" stroke="#eaeaea" stroke-linecap="round" stroke-width="0.3"/>
      <path id="Path_771" data-name="Path 771" d="M.27,0S-1.095,5.665,2.312,9.584c3.178,4.082,9.9,1.879,13.039,4.861s-1.65,8.064-1.65,8.064" transform="matrix(-0.998, 0.07, -0.07, -0.998, 17.946, 22.683)" fill="none" stroke="#159a2f" stroke-linecap="round" stroke-width="0.3"/>
      <path id="Path_767" data-name="Path 767" d="M.272,0S-1.1,5.743,2.3,9.711c3.168,4.134,9.886,1.894,13.013,4.913s-.506,7.161-.506,7.161" transform="matrix(-0.998, 0.07, -0.07, -0.998, 18.807, 21.904)" fill="none" stroke="#ff1489" stroke-linecap="round" stroke-width="0.3"/>
      <path id="Path_768" data-name="Path 768" d="M.273,0S-1.094,5.729,2.288,9.685c3.154,4.121,9.849,1.883,12.962,4.891s-.508,7.143-.508,7.143" transform="translate(19.138 21.636) rotate(175)" fill="none" stroke="#3964d9" stroke-linecap="round" stroke-width="0.3"/>
    </g>
    <g id="Ellipse_142" data-name="Ellipse 142" transform="translate(281 62)" fill="none" stroke="#159a2f" stroke-width="0.2">
      <ellipse cx="4" cy="3" rx="4" ry="3" stroke="none"/>
      <ellipse cx="4" cy="3" rx="3.9" ry="2.9" fill="none"/>
    </g>
    <g id="Ellipse_147" data-name="Ellipse 147" transform="translate(281 62)" fill="none" stroke="#1176cc" stroke-width="0.2">
      <ellipse cx="3.5" cy="3" rx="3.5" ry="3" stroke="none"/>
      <ellipse cx="3.5" cy="3" rx="3.4" ry="2.9" fill="none"/>
    </g>
    <g id="Ellipse_146" data-name="Ellipse 146" transform="translate(280 62)" fill="none" stroke="#fd1689" stroke-width="0.2">
      <ellipse cx="4" cy="3" rx="4" ry="3" stroke="none"/>
      <ellipse cx="4" cy="3" rx="3.9" ry="2.9" fill="none"/>
    </g>
    <g id="Ellipse_144" data-name="Ellipse 144" transform="translate(279 62)" fill="none" stroke="#4d0ba8" stroke-width="0.2">
      <ellipse cx="5.5" cy="3.5" rx="5.5" ry="3.5" stroke="none"/>
      <ellipse cx="5.5" cy="3.5" rx="5.4" ry="3.4" fill="none"/>
    </g>
    <g id="Ellipse_143" data-name="Ellipse 143" transform="translate(282 63)" fill="none" stroke="#dedede" stroke-width="0.2">
      <ellipse cx="3" cy="2" rx="3" ry="2" stroke="none"/>
      <ellipse cx="3" cy="2" rx="2.9" ry="1.9" fill="none"/>
    </g>
    <g id="Ellipse_145" data-name="Ellipse 145" transform="translate(283 64)" fill="none" stroke="#fd9d27" stroke-width="0.2">
      <ellipse cx="2.5" cy="1" rx="2.5" ry="1" stroke="none"/>
      <ellipse cx="2.5" cy="1" rx="2.4" ry="0.9" fill="none"/>
    </g>
  </g>
</svg>
