<svg xmlns="http://www.w3.org/2000/svg" xmlns:xlink="http://www.w3.org/1999/xlink" width="165" height="132" viewBox="0 0 165 132">
  <defs>
    <linearGradient id="linear-gradient" x1="0.5" x2="0.504" y2="0.5" gradientUnits="objectBoundingBox">
      <stop offset="0" stop-color="#426aa5"/>
      <stop offset="1" stop-color="#363d67"/>
    </linearGradient>
  </defs>
  <g id="Group_1367" data-name="Group 1367" transform="translate(-48 -264)">
    <rect id="Rectangle_789" data-name="Rectangle 789" width="165" height="132" transform="translate(48 264)" fill="url(#linear-gradient)"/>
    <g id="Ellipse_278" data-name="Ellipse 278" transform="translate(97 297)" fill="none" stroke="#fff" stroke-width="3">
      <ellipse cx="24" cy="23.5" rx="24" ry="23.5" stroke="none"/>
      <ellipse cx="24" cy="23.5" rx="22.5" ry="22" fill="none"/>
    </g>
    <g id="Ellipse_279" data-name="Ellipse 279" transform="translate(118 316)" fill="none" stroke="#fff" stroke-width="3">
      <ellipse cx="24" cy="23.5" rx="24" ry="23.5" stroke="none"/>
      <ellipse cx="24" cy="23.5" rx="22.5" ry="22" fill="none"/>
    </g>
    <g id="Ellipse_280" data-name="Ellipse 280" transform="translate(81 281)" fill="none" stroke="#fff" stroke-width="0.3">
      <ellipse cx="49.5" cy="49" rx="49.5" ry="49" stroke="none"/>
      <ellipse cx="49.5" cy="49" rx="49.35" ry="48.85" fill="none"/>
    </g>
    <g id="Ellipse_281" data-name="Ellipse 281" transform="translate(84 283)" fill="none" stroke="#fff" stroke-width="0.3">
      <ellipse cx="46.5" cy="47" rx="46.5" ry="47" stroke="none"/>
      <ellipse cx="46.5" cy="47" rx="46.35" ry="46.85" fill="none"/>
    </g>
    <g id="Ellipse_282" data-name="Ellipse 282" transform="translate(79 278)" fill="none" stroke="#fff" stroke-width="0.3">
      <ellipse cx="51.5" cy="52" rx="51.5" ry="52" stroke="none"/>
      <ellipse cx="51.5" cy="52" rx="51.35" ry="51.85" fill="none"/>
    </g>
    <g id="Ellipse_283" data-name="Ellipse 283" transform="translate(76 276)" fill="none" stroke="#fff" stroke-width="0.3">
      <ellipse cx="54.5" cy="54" rx="54.5" ry="54" stroke="none"/>
      <ellipse cx="54.5" cy="54" rx="54.35" ry="53.85" fill="none"/>
    </g>
    <g id="Ellipse_284" data-name="Ellipse 284" transform="translate(74 273)" fill="none" stroke="#fff" stroke-width="0.3">
      <ellipse cx="56.5" cy="57" rx="56.5" ry="57" stroke="none"/>
      <ellipse cx="56.5" cy="57" rx="56.35" ry="56.85" fill="none"/>
    </g>
    <g id="Ellipse_285" data-name="Ellipse 285" transform="translate(72 271)" fill="none" stroke="#fff" stroke-width="0.3">
      <ellipse cx="58.5" cy="59" rx="58.5" ry="59" stroke="none"/>
      <ellipse cx="58.5" cy="59" rx="58.35" ry="58.85" fill="none"/>
    </g>
  </g>
</svg>
