<svg xmlns="http://www.w3.org/2000/svg" xmlns:xlink="http://www.w3.org/1999/xlink" width="47" height="37" viewBox="0 0 47 37">
  <defs>
    <linearGradient id="linear-gradient" x1="0.5" x2="0.5" y2="1" gradientUnits="objectBoundingBox">
      <stop offset="0" stop-color="#426aa5"/>
      <stop offset="1" stop-color="#363d67"/>
    </linearGradient>
  </defs>
  <g id="Group_2255" data-name="Group 2255" transform="translate(-1093.311 -422.448)">
    <rect id="Rectangle_789" data-name="Rectangle 789" width="47" height="37" transform="translate(1093.311 422.448)" fill="none"/>
    <circle id="Ellipse_822" data-name="Ellipse 822" cx="18.5" cy="18.5" r="18.5" transform="translate(1098.311 422.448)" fill="url(#linear-gradient)"/>
    <g id="Ellipse_278" data-name="Ellipse 278" transform="translate(1109.311 434.448)" fill="none" stroke="#fff" stroke-width="1">
      <circle cx="5" cy="5" r="5" stroke="none"/>
      <circle cx="5" cy="5" r="4.5" fill="none"/>
    </g>
    <g id="Ellipse_279" data-name="Ellipse 279" transform="translate(1114.311 437.448)" fill="none" stroke="#fff" stroke-width="1">
      <circle cx="5" cy="5" r="5" stroke="none"/>
      <circle cx="5" cy="5" r="4.5" fill="none"/>
    </g>
    <g id="Ellipse_282" data-name="Ellipse 282" transform="translate(1105.311 429.448)" fill="none" stroke="#fff" stroke-width="0.3">
      <circle cx="11.5" cy="11.5" r="11.5" stroke="none"/>
      <circle cx="11.5" cy="11.5" r="11.35" fill="none"/>
    </g>
    <g id="Ellipse_821" data-name="Ellipse 821" transform="translate(1106.311 430.448)" fill="none" stroke="#fff" stroke-width="0.3">
      <circle cx="10.5" cy="10.5" r="10.5" stroke="none"/>
      <circle cx="10.5" cy="10.5" r="10.35" fill="none"/>
    </g>
    <g id="Ellipse_820" data-name="Ellipse 820" transform="translate(1103.311 427.448)" fill="none" stroke="#fff" stroke-width="0.3">
      <circle cx="13.5" cy="13.5" r="13.5" stroke="none"/>
      <circle cx="13.5" cy="13.5" r="13.35" fill="none"/>
    </g>
    <g id="Ellipse_284" data-name="Ellipse 284" transform="translate(1104.311 428.448)" fill="none" stroke="#fff" stroke-width="0.3">
      <circle cx="12.5" cy="12.5" r="12.5" stroke="none"/>
      <circle cx="12.5" cy="12.5" r="12.35" fill="none"/>
    </g>
  </g>
</svg>
