<svg xmlns="http://www.w3.org/2000/svg" width="1919.438" height="796.734" viewBox="0 0 1919.438 796.734">
  <g id="Group_1370" data-name="Group 1370" transform="translate(0.01 0.5)">
    <path id="Path_1929" data-name="Path 1929" d="M17030.666,4311.2s33.1-443.97-410.713-443.97c-163.795,0,1.08,653.692,0-34.354-.148-94.6-858.921,581.344-1012.6,161.888s537.738-646.876,537.263-236.927-1032.172,432.989-1032.172,432.989" transform="translate(-15112.441 -3515)" fill="none" stroke="#fec098" stroke-width="1"/>
    <path id="Path_1930" data-name="Path 1930" d="M17030.666,4311.2s33.1-443.97-410.713-443.97c-163.795,0,1.08,653.692,0-34.354-.148-94.6-858.921,581.344-1012.6,161.888s537.738-646.876,537.263-236.927-1032.172,432.989-1032.172,432.989" transform="translate(-15112.441 -3520)" fill="none" stroke="#fec098" stroke-width="1"/>
    <path id="Path_1931" data-name="Path 1931" d="M17030.666,4311.2s33.1-443.97-410.713-443.97c-163.795,0,1.08,653.692,0-34.354-.148-94.6-858.921,581.344-1012.6,161.888s537.738-646.876,537.263-236.927-1032.172,432.989-1032.172,432.989" transform="translate(-15112.441 -3525)" fill="none" stroke="#fec098" stroke-width="1"/>
    <path id="Path_1932" data-name="Path 1932" d="M17030.666,4311.2s33.1-443.97-410.713-443.97c-163.795,0,1.08,653.692,0-34.354-.148-94.6-858.921,581.344-1012.6,161.888s537.738-646.876,537.263-236.927-1032.172,432.989-1032.172,432.989" transform="translate(-15112.441 -3530)" fill="none" stroke="#fec098" stroke-width="1"/>
    <path id="Path_1933" data-name="Path 1933" d="M17030.666,4312.2s33.1-444.547-410.713-444.547c-163.795,0,1.08,654.542,0-34.4-.148-94.723-858.921,582.1-1012.6,162.1s537.738-647.717,537.263-237.235-1032.172,433.551-1032.172,433.551" transform="translate(-15112.441 -3536.001)" fill="none" stroke="#fec098" stroke-width="1"/>
    <path id="Path_1934" data-name="Path 1934" d="M17030.666,4312.2s33.1-444.547-410.713-444.547c-163.795,0,1.08,654.542,0-34.4-.148-94.723-858.921,582.1-1012.6,162.1s537.738-647.717,537.263-237.235-1032.172,433.551-1032.172,433.551" transform="translate(-15112.441 -3542.001)" fill="none" stroke="#fec098" stroke-width="1"/>
  </g>
</svg>
