<svg xmlns="http://www.w3.org/2000/svg" width="1920.452" height="594.163" viewBox="0 0 1920.452 594.163">
  <g id="Group_1171" data-name="Group 1171" transform="translate(15.193 -2844.317)">
    <g id="Ellipse_154" data-name="Ellipse 154" transform="translate(852.013 3079)" fill="none" stroke="#5130fb" stroke-width="3" stroke-dasharray="3 36">
      <circle cx="97.5" cy="97.5" r="97.5" stroke="none"/>
      <circle cx="97.5" cy="97.5" r="96" fill="none"/>
    </g>
    <g id="Ellipse_160" data-name="Ellipse 160" transform="translate(1069.013 3000)" fill="none" stroke="#5130fb" stroke-width="3" stroke-dasharray="3 36">
      <circle cx="97.5" cy="97.5" r="97.5" stroke="none"/>
      <circle cx="97.5" cy="97.5" r="96" fill="none"/>
    </g>
    <g id="Ellipse_166" data-name="Ellipse 166" transform="translate(634.013 3000)" fill="none" stroke="#5130fb" stroke-width="3" stroke-dasharray="3 36">
      <circle cx="97.5" cy="97.5" r="97.5" stroke="none"/>
      <circle cx="97.5" cy="97.5" r="96" fill="none"/>
    </g>
    <g id="Ellipse_172" data-name="Ellipse 172" transform="translate(433.013 3112)" fill="none" stroke="#5130fb" stroke-width="3" stroke-dasharray="3 36">
      <circle cx="97.5" cy="97.5" r="97.5" stroke="none"/>
      <circle cx="97.5" cy="97.5" r="96" fill="none"/>
    </g>
    <g id="Ellipse_178" data-name="Ellipse 178" transform="translate(1284.013 3112)" fill="none" stroke="#5130fb" stroke-width="3" stroke-dasharray="3 36">
      <circle cx="97.5" cy="97.5" r="97.5" stroke="none"/>
      <circle cx="97.5" cy="97.5" r="96" fill="none"/>
    </g>
    <g id="Ellipse_155" data-name="Ellipse 155" transform="matrix(0.839, -0.545, 0.545, 0.839, 863.708, 3158.123)" fill="none" stroke="#1176cc" stroke-width="3" stroke-dasharray="1 39">
      <circle cx="62.5" cy="62.5" r="62.5" stroke="none"/>
      <circle cx="62.5" cy="62.5" r="61" fill="none"/>
    </g>
    <g id="Ellipse_161" data-name="Ellipse 161" transform="matrix(0.839, -0.545, 0.545, 0.839, 1079.192, 3079.123)" fill="none" stroke="#1176cc" stroke-width="3" stroke-dasharray="1 39">
      <circle cx="62.5" cy="62.5" r="62.5" stroke="none"/>
      <circle cx="62.5" cy="62.5" r="61" fill="none"/>
    </g>
    <g id="Ellipse_167" data-name="Ellipse 167" transform="matrix(0.839, -0.545, 0.545, 0.839, 645.271, 3079.123)" fill="none" stroke="#1176cc" stroke-width="3" stroke-dasharray="1 39">
      <circle cx="62.5" cy="62.5" r="62.5" stroke="none"/>
      <circle cx="62.5" cy="62.5" r="61" fill="none"/>
    </g>
    <g id="Ellipse_173" data-name="Ellipse 173" transform="matrix(0.839, -0.545, 0.545, 0.839, 444.546, 3191.123)" fill="none" stroke="#1176cc" stroke-width="3" stroke-dasharray="1 39">
      <circle cx="62.5" cy="62.5" r="62.5" stroke="none"/>
      <circle cx="62.5" cy="62.5" r="61" fill="none"/>
    </g>
    <g id="Ellipse_179" data-name="Ellipse 179" transform="matrix(0.839, -0.545, 0.545, 0.839, 1294.677, 3191.123)" fill="none" stroke="#1176cc" stroke-width="3" stroke-dasharray="1 39">
      <circle cx="62.5" cy="62.5" r="62.5" stroke="none"/>
      <circle cx="62.5" cy="62.5" r="61" fill="none"/>
    </g>
    <g id="Ellipse_157" data-name="Ellipse 157" transform="matrix(0.839, -0.545, 0.545, 0.839, 895.527, 3164.886)" fill="none" stroke="#159a2f" stroke-width="3" stroke-dasharray="7 36">
      <circle cx="39.5" cy="39.5" r="39.5" stroke="none"/>
      <circle cx="39.5" cy="39.5" r="38" fill="none"/>
    </g>
    <g id="Ellipse_162" data-name="Ellipse 162" transform="matrix(0.839, -0.545, 0.545, 0.839, 1111.133, 3085.886)" fill="none" stroke="#159a2f" stroke-width="3" stroke-dasharray="7 36">
      <circle cx="39.5" cy="39.5" r="39.5" stroke="none"/>
      <circle cx="39.5" cy="39.5" r="38" fill="none"/>
    </g>
    <g id="Ellipse_168" data-name="Ellipse 168" transform="matrix(0.839, -0.545, 0.545, 0.839, 676.967, 3085.886)" fill="none" stroke="#159a2f" stroke-width="3" stroke-dasharray="7 36">
      <circle cx="39.5" cy="39.5" r="39.5" stroke="none"/>
      <circle cx="39.5" cy="39.5" r="38" fill="none"/>
    </g>
    <g id="Ellipse_174" data-name="Ellipse 174" transform="matrix(0.839, -0.545, 0.545, 0.839, 476.129, 3197.886)" fill="none" stroke="#159a2f" stroke-width="3" stroke-dasharray="7 36">
      <circle cx="39.5" cy="39.5" r="39.5" stroke="none"/>
      <circle cx="39.5" cy="39.5" r="38" fill="none"/>
    </g>
    <g id="Ellipse_180" data-name="Ellipse 180" transform="matrix(0.839, -0.545, 0.545, 0.839, 1326.739, 3197.886)" fill="none" stroke="#159a2f" stroke-width="3" stroke-dasharray="7 36">
      <circle cx="39.5" cy="39.5" r="39.5" stroke="none"/>
      <circle cx="39.5" cy="39.5" r="38" fill="none"/>
    </g>
    <g id="Ellipse_158" data-name="Ellipse 158" transform="matrix(0.839, -0.545, 0.545, 0.839, 917.662, 3169.591)" fill="none" stroke="#fff" stroke-width="3" stroke-dasharray="15 23">
      <circle cx="23.5" cy="23.5" r="23.5" stroke="none"/>
      <circle cx="23.5" cy="23.5" r="22" fill="none"/>
    </g>
    <g id="Ellipse_163" data-name="Ellipse 163" transform="matrix(0.839, -0.545, 0.545, 0.839, 1133.348, 3090.591)" fill="none" stroke="#fff" stroke-width="3" stroke-dasharray="15 23">
      <circle cx="23.5" cy="23.5" r="23.5" stroke="none"/>
      <circle cx="23.5" cy="23.5" r="22" fill="none"/>
    </g>
    <g id="Ellipse_169" data-name="Ellipse 169" transform="matrix(0.839, -0.545, 0.545, 0.839, 699.021, 3090.591)" fill="none" stroke="#fff" stroke-width="3" stroke-dasharray="15 23">
      <circle cx="23.5" cy="23.5" r="23.5" stroke="none"/>
      <circle cx="23.5" cy="23.5" r="22" fill="none"/>
    </g>
    <g id="Ellipse_175" data-name="Ellipse 175" transform="matrix(0.839, -0.545, 0.545, 0.839, 498.108, 3202.591)" fill="none" stroke="#fff" stroke-width="3" stroke-dasharray="15 23">
      <circle cx="23.5" cy="23.5" r="23.5" stroke="none"/>
      <circle cx="23.5" cy="23.5" r="22" fill="none"/>
    </g>
    <g id="Ellipse_181" data-name="Ellipse 181" transform="matrix(0.839, -0.545, 0.545, 0.839, 1349.033, 3202.591)" fill="none" stroke="#fff" stroke-width="3" stroke-dasharray="15 23">
      <circle cx="23.5" cy="23.5" r="23.5" stroke="none"/>
      <circle cx="23.5" cy="23.5" r="22" fill="none"/>
    </g>
    <g id="Ellipse_159" data-name="Ellipse 159" transform="matrix(0.839, -0.545, 0.545, 0.839, 931.496, 3172.531)" fill="none" stroke="#fd9d27" stroke-width="3" stroke-dasharray="7 22">
      <circle cx="13.5" cy="13.5" r="13.5" stroke="none"/>
      <circle cx="13.5" cy="13.5" r="12" fill="none"/>
    </g>
    <g id="Ellipse_165" data-name="Ellipse 165" transform="matrix(0.839, -0.545, 0.545, 0.839, 1147.23, 3093.531)" fill="none" stroke="#fd9d27" stroke-width="3" stroke-dasharray="7 22">
      <circle cx="13.5" cy="13.5" r="13.5" stroke="none"/>
      <circle cx="13.5" cy="13.5" r="12" fill="none"/>
    </g>
    <g id="Ellipse_171" data-name="Ellipse 171" transform="matrix(0.839, -0.545, 0.545, 0.839, 712.807, 3093.531)" fill="none" stroke="#fd9d27" stroke-width="3" stroke-dasharray="7 22">
      <circle cx="13.5" cy="13.5" r="13.5" stroke="none"/>
      <circle cx="13.5" cy="13.5" r="12" fill="none"/>
    </g>
    <g id="Ellipse_177" data-name="Ellipse 177" transform="matrix(0.839, -0.545, 0.545, 0.839, 511.849, 3205.531)" fill="none" stroke="#fd9d27" stroke-width="3" stroke-dasharray="7 22">
      <circle cx="13.5" cy="13.5" r="13.5" stroke="none"/>
      <circle cx="13.5" cy="13.5" r="12" fill="none"/>
    </g>
    <g id="Ellipse_183" data-name="Ellipse 183" transform="matrix(0.839, -0.545, 0.545, 0.839, 1362.964, 3205.531)" fill="none" stroke="#fd9d27" stroke-width="3" stroke-dasharray="7 22">
      <circle cx="13.5" cy="13.5" r="13.5" stroke="none"/>
      <circle cx="13.5" cy="13.5" r="12" fill="none"/>
    </g>
    <g id="Ellipse_156" data-name="Ellipse 156" transform="translate(867.013 3094)" fill="none" stroke="#fd1689" stroke-width="3" stroke-dasharray="11 54">
      <circle cx="82.5" cy="82.5" r="82.5" stroke="none"/>
      <circle cx="82.5" cy="82.5" r="81" fill="none"/>
    </g>
    <g id="Ellipse_164" data-name="Ellipse 164" transform="translate(1084.013 3015)" fill="none" stroke="#fd1689" stroke-width="3" stroke-dasharray="11 54">
      <circle cx="82.5" cy="82.5" r="82.5" stroke="none"/>
      <circle cx="82.5" cy="82.5" r="81" fill="none"/>
    </g>
    <g id="Ellipse_170" data-name="Ellipse 170" transform="translate(649.013 3015)" fill="none" stroke="#fd1689" stroke-width="3" stroke-dasharray="11 54">
      <circle cx="82.5" cy="82.5" r="82.5" stroke="none"/>
      <circle cx="82.5" cy="82.5" r="81" fill="none"/>
    </g>
    <g id="Ellipse_176" data-name="Ellipse 176" transform="translate(448.013 3127)" fill="none" stroke="#fd1689" stroke-width="3" stroke-dasharray="11 54">
      <circle cx="82.5" cy="82.5" r="82.5" stroke="none"/>
      <circle cx="82.5" cy="82.5" r="81" fill="none"/>
    </g>
    <g id="Ellipse_182" data-name="Ellipse 182" transform="translate(1299.013 3127)" fill="none" stroke="#fd1689" stroke-width="3" stroke-dasharray="11 54">
      <circle cx="82.5" cy="82.5" r="82.5" stroke="none"/>
      <circle cx="82.5" cy="82.5" r="81" fill="none"/>
    </g>
    <g id="Group_1152" data-name="Group 1152" transform="translate(1495.013 3000)">
      <g id="Ellipse_184" data-name="Ellipse 184" transform="translate(0)" fill="none" stroke="#5130fb" stroke-width="3" stroke-dasharray="3 36">
        <circle cx="97.5" cy="97.5" r="97.5" stroke="none"/>
        <circle cx="97.5" cy="97.5" r="96" fill="none"/>
      </g>
      <g id="Ellipse_185" data-name="Ellipse 185" transform="matrix(0.839, -0.545, 0.545, 0.839, 11.528, 79.123)" fill="none" stroke="#1176cc" stroke-width="3" stroke-dasharray="1 39">
        <circle cx="62.5" cy="62.5" r="62.5" stroke="none"/>
        <circle cx="62.5" cy="62.5" r="61" fill="none"/>
      </g>
      <g id="Ellipse_186" data-name="Ellipse 186" transform="matrix(0.839, -0.545, 0.545, 0.839, 43.344, 85.886)" fill="none" stroke="#159a2f" stroke-width="3" stroke-dasharray="7 36">
        <circle cx="39.5" cy="39.5" r="39.5" stroke="none"/>
        <circle cx="39.5" cy="39.5" r="38" fill="none"/>
      </g>
      <g id="Ellipse_187" data-name="Ellipse 187" transform="matrix(0.839, -0.545, 0.545, 0.839, 65.477, 90.591)" fill="none" stroke="#fff" stroke-width="3" stroke-dasharray="15 23">
        <circle cx="23.5" cy="23.5" r="23.5" stroke="none"/>
        <circle cx="23.5" cy="23.5" r="22" fill="none"/>
      </g>
      <g id="Ellipse_189" data-name="Ellipse 189" transform="matrix(0.839, -0.545, 0.545, 0.839, 79.31, 93.531)" fill="none" stroke="#fd9d27" stroke-width="3" stroke-dasharray="7 22">
        <circle cx="13.5" cy="13.5" r="13.5" stroke="none"/>
        <circle cx="13.5" cy="13.5" r="12" fill="none"/>
      </g>
      <g id="Ellipse_188" data-name="Ellipse 188" transform="translate(15 15)" fill="none" stroke="#fd1689" stroke-width="3" stroke-dasharray="11 54">
        <circle cx="82.5" cy="82.5" r="82.5" stroke="none"/>
        <circle cx="82.5" cy="82.5" r="81" fill="none"/>
      </g>
    </g>
    <g id="Ellipse_184-2" data-name="Ellipse 184" transform="translate(230.013 3000)" fill="none" stroke="#5130fb" stroke-width="3" stroke-dasharray="3 36">
      <circle cx="97.5" cy="97.5" r="97.5" stroke="none"/>
      <circle cx="97.5" cy="97.5" r="96" fill="none"/>
    </g>
    <g id="Ellipse_185-2" data-name="Ellipse 185" transform="matrix(0.839, -0.545, 0.545, 0.839, 241.043, 3079.123)" fill="none" stroke="#1176cc" stroke-width="3" stroke-dasharray="1 39">
      <circle cx="62.5" cy="62.5" r="62.5" stroke="none"/>
      <circle cx="62.5" cy="62.5" r="61" fill="none"/>
    </g>
    <g id="Ellipse_186-2" data-name="Ellipse 186" transform="matrix(0.839, -0.545, 0.545, 0.839, 272.859, 3085.886)" fill="none" stroke="#159a2f" stroke-width="3" stroke-dasharray="7 36">
      <circle cx="39.5" cy="39.5" r="39.5" stroke="none"/>
      <circle cx="39.5" cy="39.5" r="38" fill="none"/>
    </g>
    <g id="Ellipse_187-2" data-name="Ellipse 187" transform="matrix(0.839, -0.545, 0.545, 0.839, 294.992, 3090.591)" fill="none" stroke="#fff" stroke-width="3" stroke-dasharray="15 23">
      <circle cx="23.5" cy="23.5" r="23.5" stroke="none"/>
      <circle cx="23.5" cy="23.5" r="22" fill="none"/>
    </g>
    <g id="Ellipse_189-2" data-name="Ellipse 189" transform="matrix(0.839, -0.545, 0.545, 0.839, 308.825, 3093.531)" fill="none" stroke="#fd9d27" stroke-width="3" stroke-dasharray="7 22">
      <circle cx="13.5" cy="13.5" r="13.5" stroke="none"/>
      <circle cx="13.5" cy="13.5" r="12" fill="none"/>
    </g>
    <g id="Ellipse_188-2" data-name="Ellipse 188" transform="translate(245.013 3015)" fill="none" stroke="#fd1689" stroke-width="3" stroke-dasharray="11 54">
      <circle cx="82.5" cy="82.5" r="82.5" stroke="none"/>
      <circle cx="82.5" cy="82.5" r="81" fill="none"/>
    </g>
    <path id="Path_1404" data-name="Path 1404" d="M0,0S201.24,62.421,305.037,237.377s154.26,63.06,259.191-10.708,524.759,136.751,1046.831-6.02c109.084-69.681-21.471-160.7-225.64-155.2s504.1,300.19,504.1,300.19" transform="translate(-14.987 3075.089) rotate(-7)" fill="none" stroke="#707070" stroke-width="1"/>
    <g id="Ellipse_190" data-name="Ellipse 190" transform="translate(864.013 3079)" fill="none" stroke="#5130fb" stroke-width="3">
      <ellipse cx="64" cy="109" rx="64" ry="109" stroke="none"/>
      <ellipse cx="64" cy="109" rx="62.5" ry="107.5" fill="none"/>
    </g>
    <g id="Ellipse_191" data-name="Ellipse 191" transform="translate(871.013 3079)" fill="none" stroke="#fd1689" stroke-width="3">
      <ellipse cx="64" cy="109" rx="64" ry="109" stroke="none"/>
      <ellipse cx="64" cy="109" rx="62.5" ry="107.5" fill="none"/>
    </g>
    <g id="Ellipse_192" data-name="Ellipse 192" transform="translate(879.013 3079)" fill="none" stroke="#159a2f" stroke-width="3">
      <ellipse cx="64" cy="109" rx="64" ry="109" stroke="none"/>
      <ellipse cx="64" cy="109" rx="62.5" ry="107.5" fill="none"/>
    </g>
    <g id="Ellipse_193" data-name="Ellipse 193" transform="translate(887.013 3079)" fill="none" stroke="#fff" stroke-width="3">
      <ellipse cx="64" cy="109" rx="64" ry="109" stroke="none"/>
      <ellipse cx="64" cy="109" rx="62.5" ry="107.5" fill="none"/>
    </g>
    <g id="Ellipse_194" data-name="Ellipse 194" transform="translate(897.013 3079)" fill="none" stroke="#fd9d27" stroke-width="3">
      <ellipse cx="64" cy="109" rx="64" ry="109" stroke="none"/>
      <ellipse cx="64" cy="109" rx="62.5" ry="107.5" fill="none"/>
    </g>
    <g id="Ellipse_195" data-name="Ellipse 195" transform="translate(907.013 3079)" fill="none" stroke="#1176cc" stroke-width="3">
      <ellipse cx="64" cy="109" rx="64" ry="109" stroke="none"/>
      <ellipse cx="64" cy="109" rx="62.5" ry="107.5" fill="none"/>
    </g>
    <path id="Path_1405" data-name="Path 1405" d="M0,0S201.24,62.475,305.072,237.467s154.264,63.1,259.169-10.644,524.752,136.891,1046.748-5.759C1720.047,151.406,1589.48,60.353,1385.328,65.8s504.139,300.334,504.139,300.334" transform="matrix(0.995, -0.105, 0.105, 0.995, -13.681, 3052.097)" fill="none" stroke="#707070" stroke-width="1"/>
    <path id="Path_1406" data-name="Path 1406" d="M0,0S201.241,62.53,305.109,237.556,459.377,300.7,564.255,226.977s524.747,137.03,1046.67-5.494c109.033-69.634-21.547-160.724-225.683-155.33S1889.42,366.629,1889.42,366.629" transform="matrix(0.996, -0.087, 0.087, 0.996, -12.08, 3028.129)" fill="none" stroke="#707070" stroke-width="1"/>
    <path id="Path_1407" data-name="Path 1407" d="M0,0S201.243,62.583,305.147,237.643,459.42,300.83,564.273,227.129s524.746,137.17,1046.6-5.228c109.008-69.609-21.586-160.736-225.706-155.393s504.218,300.616,504.218,300.616" transform="matrix(0.998, -0.07, 0.07, 0.998, -10.182, 3005.192)" fill="none" stroke="#707070" stroke-width="1"/>
    <path id="Path_1408" data-name="Path 1408" d="M0,0S201.243,62.583,305.147,237.643,459.42,300.83,564.273,227.129s524.746,137.17,1046.6-5.228c109.008-69.609-21.586-160.736-225.706-155.393s504.218,300.616,504.218,300.616" transform="matrix(0.998, -0.07, 0.07, 0.998, -11.182, 2999.192)" fill="none" stroke="#707070" stroke-width="1"/>
    <path id="Path_1409" data-name="Path 1409" d="M0,0S201.246,62.637,305.187,237.729s154.279,63.228,259.107-10.448S1089.04,364.59,1610.82,222.322c108.984-69.583-21.625-160.747-225.73-155.456s504.26,300.755,504.26,300.755" transform="translate(-8.988 2975.291) rotate(-3)" fill="none" stroke="#707070" stroke-width="1"/>
  </g>
</svg>
