<svg xmlns="http://www.w3.org/2000/svg" viewBox="0 0 1016.65 376.57"><defs><style>.cls-1,.cls-10,.cls-11,.cls-12,.cls-2,.cls-3,.cls-4,.cls-5,.cls-6,.cls-7,.cls-8,.cls-9{fill:none;stroke-width:0.75px;}.cls-1,.cls-12{stroke:#fd9d27;}.cls-2,.cls-7{stroke:#159a2f;}.cls-3,.cls-8{stroke:#fff;}.cls-4,.cls-9{stroke:#fd1689;}.cls-10,.cls-5{stroke:#5130fb;}.cls-11,.cls-6{stroke:#1176cc;}</style></defs><g id="Layer_2" data-name="Layer 2"><g id="Layer_1-2" data-name="Layer 1"><path id="Path_895" data-name="Path 895" class="cls-1" d="M8.33.19S334,549.81,376.06,309.24c7.17-41-61.16-117.41-75.38-88.58S382.38,437,446.77,341c28.42-42.39,2.81-123.13-24.45-157.17S362.75,45,497.73,137.18c15.42,10.53,98.56,80.75,72.35,46.61"/><path id="Path_900" data-name="Path 900" class="cls-2" d="M5,2.71s325.7,549.62,367.73,309c7.17-41-61.16-117.41-75.38-88.57S379,439.54,443.43,343.51c28.42-42.38,2.81-123.13-24.45-157.16S359.41,47.51,494.39,139.7c15.42,10.53,98.56,80.75,72.35,46.61"/><path id="Path_896" data-name="Path 896" class="cls-3" d="M6.67,1.45s325.7,549.61,367.73,309c7.17-41-61.17-117.41-75.38-88.58s81.7,216.37,146.09,120.34c28.42-42.39,2.81-123.13-24.46-157.16s-59.56-138.85,75.42-46.66c15.41,10.53,98.56,80.75,72.34,46.62"/><path id="Path_897" data-name="Path 897" class="cls-4" d="M3.44,3.88S329.14,553.5,371.17,312.93c7.17-41-61.17-117.41-75.38-88.58s81.7,216.36,146.09,120.33c28.42-42.38,2.81-123.13-24.46-157.16s-59.56-138.84,75.42-46.65c15.41,10.53,98.56,80.75,72.34,46.61"/><path id="Path_898" data-name="Path 898" class="cls-5" d="M.32,6.23s325.7,549.62,367.73,309c7.17-41-61.17-117.41-75.38-88.57S374.37,443.06,438.76,347c28.42-42.38,2.81-123.13-24.46-157.16S354.74,51,489.72,143.22c15.42,10.53,98.56,80.75,72.35,46.61"/><path id="Path_899" data-name="Path 899" class="cls-6" d="M1.88,5.05S327.58,554.67,369.61,314.1c7.17-41-61.17-117.41-75.38-88.58s81.7,216.37,146.09,120.34c28.42-42.39,2.81-123.13-24.46-157.17S356.3,49.85,491.28,142c15.42,10.53,98.56,80.75,72.34,46.62"/><g id="Group_1178" data-name="Group 1178"><path id="Path_900-2" data-name="Path 900-2" class="cls-7" d="M562.51,190.26S923.19,485.38,899.25,294.51c-4.08-32.56-70.94-65.85-74.73-39.91s108.23,131.72,133.23,39.62c11-40.65-25.83-91.44-53.31-107.34s-74.64-82.15,44.16-59.5c13.42,1.75,88,30.74,61.28,14.41"/><path id="Path_896-2" data-name="Path 896-2" class="cls-8" d="M563.44,188.78S924.12,483.89,900.18,293c-4.08-32.56-70.94-65.85-74.73-39.91s108.23,131.72,133.23,39.62c11-40.65-25.83-91.44-53.31-107.34s-74.64-82.14,44.16-59.5c13.62,1.79,87.72,32.58,61,16.25"/><path id="Path_897-2" data-name="Path 897-2" class="cls-9" d="M561.65,191.64S922.33,486.76,898.39,295.89C894.31,263.33,827.44,230,823.66,256S931.89,387.7,956.88,295.6c11-40.65-25.82-91.44-53.3-107.34s-74.64-82.15,44.16-59.5c13.41,1.7,89.27,29.43,62.52,13.1"/><path id="Path_898-2" data-name="Path 898-2" class="cls-10" d="M559.92,194.41S920.6,489.53,896.66,298.66c-4.08-32.56-70.95-65.85-74.73-39.91s108.23,131.72,133.22,39.62c11-40.66-25.82-91.44-53.3-107.34s-74.64-82.15,44.16-59.5c13.57,2.59,89.78,26.41,63,10.08"/><path id="Path_899-2" data-name="Path 899-2" class="cls-11" d="M560.78,193S921.47,488.14,897.53,297.27c-4.09-32.55-70.95-65.85-74.74-39.91S931,389.08,956,297c11-40.65-25.82-91.44-53.31-107.34s-74.63-82.14,44.16-59.5c13.57,2.59,89.6,27.91,62.86,11.58"/><path id="Path_895-2" data-name="Path 895-2" class="cls-12" d="M564.37,187.3S925.05,482.41,901.11,291.54c-4.09-32.56-71-65.85-74.74-39.91S934.61,383.35,959.6,291.25c11-40.65-25.82-91.44-53.31-107.34s-74.65-82.15,44.15-59.5c13.72,2.22,85.3,33.38,58.56,17.05"/></g></g></g></svg>