<svg xmlns="http://www.w3.org/2000/svg" width="1948.952" height="601.059" viewBox="0 0 1948.952 601.059"><defs><style>.a,.b,.c,.d,.e,.f,.g,.h,.i,.j,.k,.l,.m,.o{fill:none;}.a,.h{stroke:#5130fb;}.a,.b,.c,.d,.e,.f,.h,.i,.j,.k,.l,.m{stroke-width:3px;}.a{stroke-dasharray:3 36;}.b,.m{stroke:#1176cc;}.b{stroke-dasharray:1 39;}.c,.j{stroke:#159a2f;}.c{stroke-dasharray:7 36;}.d,.k{stroke:#fff;}.d{stroke-dasharray:15 23;}.e,.l{stroke:#fd9d27;}.e{stroke-dasharray:7 22;}.f,.i{stroke:#fd1689;}.f{stroke-dasharray:11 54;}.g{stroke:#707070;}.n{stroke:none;}</style></defs><g transform="translate(15.191 -2840.869)"><g class="a" transform="translate(867 3079)"><circle class="n" cx="97.5" cy="97.5" r="97.5"/><circle class="o" cx="97.5" cy="97.5" r="96"/></g><g class="a" transform="translate(1086 3000)"><circle class="n" cx="97.5" cy="97.5" r="97.5"/><circle class="o" cx="97.5" cy="97.5" r="96"/></g><g class="a" transform="translate(645 3000)"><circle class="n" cx="97.5" cy="97.5" r="97.5"/><circle class="o" cx="97.5" cy="97.5" r="96"/></g><g class="a" transform="translate(441 3112)"><circle class="n" cx="97.5" cy="97.5" r="97.5"/><circle class="o" cx="97.5" cy="97.5" r="96"/></g><g class="a" transform="translate(1305 3112)"><circle class="n" cx="97.5" cy="97.5" r="97.5"/><circle class="o" cx="97.5" cy="97.5" r="96"/></g><g class="b" transform="matrix(0.839, -0.545, 0.545, 0.839, 878.043, 3158.123)"><circle class="n" cx="62.5" cy="62.5" r="62.5"/><circle class="o" cx="62.5" cy="62.5" r="61"/></g><g class="b" transform="matrix(0.839, -0.545, 0.545, 0.839, 1097.043, 3079.123)"><circle class="n" cx="62.5" cy="62.5" r="62.5"/><circle class="o" cx="62.5" cy="62.5" r="61"/></g><g class="b" transform="matrix(0.839, -0.545, 0.545, 0.839, 656.043, 3079.123)"><circle class="n" cx="62.5" cy="62.5" r="62.5"/><circle class="o" cx="62.5" cy="62.5" r="61"/></g><g class="b" transform="matrix(0.839, -0.545, 0.545, 0.839, 452.043, 3191.123)"><circle class="n" cx="62.5" cy="62.5" r="62.5"/><circle class="o" cx="62.5" cy="62.5" r="61"/></g><g class="b" transform="matrix(0.839, -0.545, 0.545, 0.839, 1316.043, 3191.123)"><circle class="n" cx="62.5" cy="62.5" r="62.5"/><circle class="o" cx="62.5" cy="62.5" r="61"/></g><g class="c" transform="matrix(0.839, -0.545, 0.545, 0.839, 909.859, 3164.886)"><circle class="n" cx="39.5" cy="39.5" r="39.5"/><circle class="o" cx="39.5" cy="39.5" r="38"/></g><g class="c" transform="matrix(0.839, -0.545, 0.545, 0.839, 1128.859, 3085.886)"><circle class="n" cx="39.5" cy="39.5" r="39.5"/><circle class="o" cx="39.5" cy="39.5" r="38"/></g><g class="c" transform="matrix(0.839, -0.545, 0.545, 0.839, 687.859, 3085.886)"><circle class="n" cx="39.5" cy="39.5" r="39.5"/><circle class="o" cx="39.5" cy="39.5" r="38"/></g><g class="c" transform="matrix(0.839, -0.545, 0.545, 0.839, 483.859, 3197.886)"><circle class="n" cx="39.5" cy="39.5" r="39.5"/><circle class="o" cx="39.5" cy="39.5" r="38"/></g><g class="c" transform="matrix(0.839, -0.545, 0.545, 0.839, 1347.859, 3197.886)"><circle class="n" cx="39.5" cy="39.5" r="39.5"/><circle class="o" cx="39.5" cy="39.5" r="38"/></g><g class="d" transform="matrix(0.839, -0.545, 0.545, 0.839, 931.992, 3169.591)"><circle class="n" cx="23.5" cy="23.5" r="23.5"/><circle class="o" cx="23.5" cy="23.5" r="22"/></g><g class="d" transform="matrix(0.839, -0.545, 0.545, 0.839, 1150.992, 3090.591)"><circle class="n" cx="23.5" cy="23.5" r="23.5"/><circle class="o" cx="23.5" cy="23.5" r="22"/></g><g class="d" transform="matrix(0.839, -0.545, 0.545, 0.839, 709.992, 3090.591)"><circle class="n" cx="23.5" cy="23.5" r="23.5"/><circle class="o" cx="23.5" cy="23.5" r="22"/></g><g class="d" transform="matrix(0.839, -0.545, 0.545, 0.839, 505.992, 3202.591)"><circle class="n" cx="23.5" cy="23.5" r="23.5"/><circle class="o" cx="23.5" cy="23.5" r="22"/></g><g class="d" transform="matrix(0.839, -0.545, 0.545, 0.839, 1369.992, 3202.591)"><circle class="n" cx="23.5" cy="23.5" r="23.5"/><circle class="o" cx="23.5" cy="23.5" r="22"/></g><g class="e" transform="matrix(0.839, -0.545, 0.545, 0.839, 945.825, 3172.531)"><circle class="n" cx="13.5" cy="13.5" r="13.5"/><circle class="o" cx="13.5" cy="13.5" r="12"/></g><g class="e" transform="matrix(0.839, -0.545, 0.545, 0.839, 1164.825, 3093.531)"><circle class="n" cx="13.5" cy="13.5" r="13.5"/><circle class="o" cx="13.5" cy="13.5" r="12"/></g><g class="e" transform="matrix(0.839, -0.545, 0.545, 0.839, 723.825, 3093.531)"><circle class="n" cx="13.5" cy="13.5" r="13.5"/><circle class="o" cx="13.5" cy="13.5" r="12"/></g><g class="e" transform="matrix(0.839, -0.545, 0.545, 0.839, 519.825, 3205.531)"><circle class="n" cx="13.5" cy="13.5" r="13.5"/><circle class="o" cx="13.5" cy="13.5" r="12"/></g><g class="e" transform="matrix(0.839, -0.545, 0.545, 0.839, 1383.825, 3205.531)"><circle class="n" cx="13.5" cy="13.5" r="13.5"/><circle class="o" cx="13.5" cy="13.5" r="12"/></g><g class="f" transform="translate(882 3094)"><circle class="n" cx="82.5" cy="82.5" r="82.5"/><circle class="o" cx="82.5" cy="82.5" r="81"/></g><g class="f" transform="translate(1101 3015)"><circle class="n" cx="82.5" cy="82.5" r="82.5"/><circle class="o" cx="82.5" cy="82.5" r="81"/></g><g class="f" transform="translate(660 3015)"><circle class="n" cx="82.5" cy="82.5" r="82.5"/><circle class="o" cx="82.5" cy="82.5" r="81"/></g><g class="f" transform="translate(456 3127)"><circle class="n" cx="82.5" cy="82.5" r="82.5"/><circle class="o" cx="82.5" cy="82.5" r="81"/></g><g class="f" transform="translate(1320 3127)"><circle class="n" cx="82.5" cy="82.5" r="82.5"/><circle class="o" cx="82.5" cy="82.5" r="81"/></g><g transform="translate(0 41)"><g class="a" transform="translate(1524 2959)"><circle class="n" cx="97.5" cy="97.5" r="97.5"/><circle class="o" cx="97.5" cy="97.5" r="96"/></g><g class="b" transform="matrix(0.839, -0.545, 0.545, 0.839, 1535.043, 3038.123)"><circle class="n" cx="62.5" cy="62.5" r="62.5"/><circle class="o" cx="62.5" cy="62.5" r="61"/></g><g class="c" transform="matrix(0.839, -0.545, 0.545, 0.839, 1566.859, 3044.886)"><circle class="n" cx="39.5" cy="39.5" r="39.5"/><circle class="o" cx="39.5" cy="39.5" r="38"/></g><g class="d" transform="matrix(0.839, -0.545, 0.545, 0.839, 1588.992, 3049.591)"><circle class="n" cx="23.5" cy="23.5" r="23.5"/><circle class="o" cx="23.5" cy="23.5" r="22"/></g><g class="e" transform="matrix(0.839, -0.545, 0.545, 0.839, 1602.825, 3052.531)"><circle class="n" cx="13.5" cy="13.5" r="13.5"/><circle class="o" cx="13.5" cy="13.5" r="12"/></g><g class="f" transform="translate(1539 2974)"><circle class="n" cx="82.5" cy="82.5" r="82.5"/><circle class="o" cx="82.5" cy="82.5" r="81"/></g></g><g class="a" transform="translate(230 3000)"><circle class="n" cx="97.5" cy="97.5" r="97.5"/><circle class="o" cx="97.5" cy="97.5" r="96"/></g><g class="b" transform="matrix(0.839, -0.545, 0.545, 0.839, 241.043, 3079.123)"><circle class="n" cx="62.5" cy="62.5" r="62.5"/><circle class="o" cx="62.5" cy="62.5" r="61"/></g><g class="c" transform="matrix(0.839, -0.545, 0.545, 0.839, 272.859, 3085.886)"><circle class="n" cx="39.5" cy="39.5" r="39.5"/><circle class="o" cx="39.5" cy="39.5" r="38"/></g><g class="d" transform="matrix(0.839, -0.545, 0.545, 0.839, 294.992, 3090.591)"><circle class="n" cx="23.5" cy="23.5" r="23.5"/><circle class="o" cx="23.5" cy="23.5" r="22"/></g><g class="e" transform="matrix(0.839, -0.545, 0.545, 0.839, 308.825, 3093.531)"><circle class="n" cx="13.5" cy="13.5" r="13.5"/><circle class="o" cx="13.5" cy="13.5" r="12"/></g><g class="f" transform="translate(245 3015)"><circle class="n" cx="82.5" cy="82.5" r="82.5"/><circle class="o" cx="82.5" cy="82.5" r="81"/></g><path class="g" d="M-3330,6120s204.3,62.8,309.924,237.977,156.629,63.351,262.963-10.246,532.679,137.724,1062.13-4.142c110.555-69.5-22.073-160.771-229.218-155.639s512.016,301.162,512.016,301.162" transform="translate(2544.351 -3405.118) rotate(-7)"/><g class="h" transform="translate(878 3079)"><ellipse class="n" cx="64" cy="109" rx="64" ry="109"/><ellipse class="o" cx="64" cy="109" rx="62.5" ry="107.5"/></g><g class="i" transform="translate(885 3079)"><ellipse class="n" cx="64" cy="109" rx="64" ry="109"/><ellipse class="o" cx="64" cy="109" rx="62.5" ry="107.5"/></g><g class="j" transform="translate(893 3079)"><ellipse class="n" cx="64" cy="109" rx="64" ry="109"/><ellipse class="o" cx="64" cy="109" rx="62.5" ry="107.5"/></g><g class="k" transform="translate(902 3079)"><ellipse class="n" cx="64" cy="109" rx="64" ry="109"/><ellipse class="o" cx="64" cy="109" rx="62.5" ry="107.5"/></g><g class="l" transform="translate(912 3079)"><ellipse class="n" cx="64" cy="109" rx="64" ry="109"/><ellipse class="o" cx="64" cy="109" rx="62.5" ry="107.5"/></g><g class="m" transform="translate(922 3079)"><ellipse class="n" cx="64" cy="109" rx="64" ry="109"/><ellipse class="o" cx="64" cy="109" rx="62.5" ry="107.5"/></g><path class="g" d="M-3330,6120s204.3,62.8,309.924,237.977,156.629,63.351,262.963-10.246,532.679,137.724,1062.13-4.142c110.555-69.5-22.073-160.771-229.218-155.639s512.016,301.162,512.016,301.162" transform="matrix(0.995, -0.105, 0.105, 0.995, 2658.362, -3382.457)"/><path class="g" d="M-3330,6120s204.3,62.8,309.924,237.977,156.629,63.351,262.963-10.246,532.679,137.724,1062.13-4.142c110.555-69.5-22.073-160.771-229.218-155.639s512.016,301.162,512.016,301.162" transform="matrix(0.996, -0.087, 0.087, 0.996, 2771.856, -3358.811)"/><path class="g" d="M-3330,6120s204.3,62.8,309.924,237.977,156.629,63.351,262.963-10.246,532.679,137.724,1062.13-4.142c110.555-69.5-22.073-160.771-229.218-155.639s512.016,301.162,512.016,301.162" transform="matrix(0.998, -0.07, 0.07, 0.998, 2884.797, -3332.189)"/><path class="g" d="M-3330,6120s204.3,62.8,309.924,237.977,156.629,63.351,262.963-10.246,532.679,137.724,1062.13-4.142c110.555-69.5-22.073-160.771-229.218-155.639s512.016,301.162,512.016,301.162" transform="matrix(0.998, -0.07, 0.07, 0.998, 2883.797, -3338.189)"/><path class="g" d="M-3330,6120s204.3,62.8,309.924,237.977,156.629,63.351,262.963-10.246,532.679,137.724,1062.13-4.142c110.555-69.5-22.073-160.771-229.218-155.639s512.016,301.162,512.016,301.162" transform="translate(2996.152 -3310.601) rotate(-3)"/></g></svg>