<svg xmlns="http://www.w3.org/2000/svg" width="78.91" height="80" viewBox="0 0 78.91 80"><defs><style>.a{fill:#c00;fill-rule:evenodd;}.b{fill:none;stroke:#fbffff;stroke-linecap:round;stroke-miterlimit:22.926;stroke-width:2px;}</style></defs><path class="a" d="M490.67,182.016c21.79,0,39.455,17.911,39.455,40s-17.665,40-39.455,40-39.454-17.911-39.454-40,17.664-40,39.454-40" transform="translate(-451.216 -182.016)"/><path class="b" d="M527.249,253.66a15.257,15.257,0,0,1-3.614,3.348,6.736,6.736,0,0,1-6.3.69c-2.626-1.019-5.774-3.8-6.272-6.626s1.655-5.685.146-4.405-6.679,6.7-9.174,9.291-2.314,2.352-1.262,1.414,2.976-2.575,4.224-3.778a31.5,31.5,0,0,0,2.4-2.64,4.9,4.9,0,0,0,1.425-2.353,4.706,4.706,0,0,0-.892-3.991c-1.039-1.183-3.018-1.867-5.387.385s-5.129,7.435-8.267,10.314a12.9,12.9,0,0,1-17.825-.741,16.388,16.388,0,0,1-4.666-10.526,17.128,17.128,0,0,1,4.219-11.385c2.424-2.563,5.359-3.085,8.724-2.889s7.161,1.11,10.209.872,5.351-1.627,6.321-3.528a5.32,5.32,0,0,0-.769-5.849c-1.382-1.535-3.79-2.2-6.517-2.259a45.967,45.967,0,0,0-9.76,1.269c-3.988.8-8.919,1.883-13.381,1.476s-9.248-2.718-13.241-4.613" transform="translate(-453.54 -194.819)"/></svg>