<svg xmlns="http://www.w3.org/2000/svg" xmlns:xlink="http://www.w3.org/1999/xlink" width="136" height="108" viewBox="0 0 136 108">
  <defs>
    <linearGradient id="linear-gradient" x2="0.732" y2="0.687" gradientUnits="objectBoundingBox">
      <stop offset="0"/>
      <stop offset="1" stop-color="#c7c7c7"/>
    </linearGradient>
  </defs>
  <g id="Group_1368" data-name="Group 1368" transform="translate(-104 -691)">
    <rect id="Rectangle_808" data-name="Rectangle 808" width="136" height="108" transform="translate(240 799) rotate(180)" fill="url(#linear-gradient)"/>
    <g id="Ellipse_286" data-name="Ellipse 286" transform="translate(141 702)" fill="none" stroke="#fff" stroke-width="0.5">
      <circle cx="41" cy="41" r="41" stroke="none"/>
      <circle cx="41" cy="41" r="40.75" fill="none"/>
    </g>
    <g id="Ellipse_287" data-name="Ellipse 287" transform="translate(141 702)" fill="none" stroke="#fff" stroke-width="0.5">
      <circle cx="41" cy="41" r="41" stroke="none"/>
      <circle cx="41" cy="41" r="40.75" fill="none"/>
    </g>
    <g id="Ellipse_288" data-name="Ellipse 288" transform="translate(141 702)" fill="none" stroke="#fff" stroke-width="0.5">
      <circle cx="41" cy="41" r="41" stroke="none"/>
      <circle cx="41" cy="41" r="40.75" fill="none"/>
    </g>
    <g id="Ellipse_289" data-name="Ellipse 289" transform="translate(141 702)" fill="none" stroke="#fff" stroke-width="0.5">
      <circle cx="41" cy="41" r="41" stroke="none"/>
      <circle cx="41" cy="41" r="40.75" fill="none"/>
    </g>
    <g id="Ellipse_290" data-name="Ellipse 290" transform="translate(137 702)" fill="none" stroke="#fff" stroke-width="0.5">
      <circle cx="41" cy="41" r="41" stroke="none"/>
      <circle cx="41" cy="41" r="40.75" fill="none"/>
    </g>
    <g id="Ellipse_291" data-name="Ellipse 291" transform="translate(133 702)" fill="none" stroke="#fff" stroke-width="0.5">
      <circle cx="41" cy="41" r="41" stroke="none"/>
      <circle cx="41" cy="41" r="40.75" fill="none"/>
    </g>
    <g id="Ellipse_292" data-name="Ellipse 292" transform="translate(129 702)" fill="none" stroke="#fff" stroke-width="0.5">
      <circle cx="41" cy="41" r="41" stroke="none"/>
      <circle cx="41" cy="41" r="40.75" fill="none"/>
    </g>
    <g id="Ellipse_293" data-name="Ellipse 293" transform="translate(125 702)" fill="none" stroke="#fff" stroke-width="0.5">
      <circle cx="41" cy="41" r="41" stroke="none"/>
      <circle cx="41" cy="41" r="40.75" fill="none"/>
    </g>
    <g id="Ellipse_294" data-name="Ellipse 294" transform="translate(121 702)" fill="none" stroke="#fff" stroke-width="0.5">
      <circle cx="41" cy="41" r="41" stroke="none"/>
      <circle cx="41" cy="41" r="40.75" fill="none"/>
    </g>
    <g id="Ellipse_295" data-name="Ellipse 295" transform="translate(153 724)" fill="none" stroke="#fff" stroke-width="3">
      <circle cx="19" cy="19" r="19" stroke="none"/>
      <circle cx="19" cy="19" r="17.5" fill="none"/>
    </g>
  </g>
</svg>
