<svg xmlns="http://www.w3.org/2000/svg" width="1923.822" height="744.461" viewBox="0 0 1923.822 744.461">
  <g id="Group_1308" data-name="Group 1308" transform="translate(0.049 -200.502)">
    <path id="Path_1742" data-name="Path 1742" d="M6533,15913s720.523,70.541,716.711,408.293-412.4,307.932-413.793,79.012,362.931-331.316,438.006,38.146S8219.846,16553.717,8456.3,15913" transform="translate(-6533 -15704)" fill="none" stroke="#9c7499" stroke-width="1"/>
    <path id="Path_1751" data-name="Path 1751" d="M6533,15913s720.523,70.541,716.711,408.293-412.4,307.932-413.793,79.012,362.931-331.316,438.006,38.146S8219.846,16553.717,8456.3,15913" transform="translate(-6533 -15712)" fill="none" stroke="#9c7499" stroke-width="1"/>
    <path id="Path_1743" data-name="Path 1743" d="M6533,15913s720.523,70.541,716.711,408.293-412.4,307.932-413.793,79.012,362.931-331.316,438.006,38.146S8219.846,16553.717,8456.3,15913" transform="translate(-6533 -15696)" fill="none" stroke="#9c7499" stroke-width="1"/>
    <path id="Path_1744" data-name="Path 1744" d="M6533,15913s720.523,70.541,716.711,408.293-412.4,307.932-413.793,79.012,362.931-331.316,438.006,38.146S8219.846,16553.717,8456.3,15913" transform="translate(-6533 -15688)" fill="none" stroke="#9c7499" stroke-width="1"/>
    <path id="Path_1745" data-name="Path 1745" d="M6533,15913s720.523,70.541,716.711,408.293-412.4,307.932-413.793,79.012,362.931-331.316,438.006,38.146S8219.846,16553.717,8456.3,15913" transform="translate(-6533 -15678)" fill="none" stroke="#9c7499" stroke-width="1"/>
    <path id="Path_1746" data-name="Path 1746" d="M6533,15913s720.523,70.541,716.711,408.293-412.4,307.932-413.793,79.012,362.931-331.316,438.006,38.146S8219.846,16553.717,8456.3,15913" transform="translate(-6533 -15665)" fill="none" stroke="#9c7499" stroke-width="1"/>
  </g>
</svg>
