<svg xmlns="http://www.w3.org/2000/svg" width="20.333" height="20.332" viewBox="0 0 20.333 20.332">
  <path id="Icon_awesome-cash-register" data-name="Icon awesome-cash-register" d="M19.545,14.488,18.524,8.368a1.224,1.224,0,0,0-1.209-1.021H7.952V4.9h3.672a.614.614,0,0,0,.612-.612V.612A.614.614,0,0,0,11.624,0H1.833a.614.614,0,0,0-.612.612V4.284a.614.614,0,0,0,.612.612H5.5V7.343H2.257A1.227,1.227,0,0,0,1.049,8.365L.027,14.484a2.373,2.373,0,0,0-.034.4v3.473a1.223,1.223,0,0,0,1.224,1.224H18.351a1.223,1.223,0,0,0,1.224-1.224V14.889A2.03,2.03,0,0,0,19.545,14.488Zm-8.839-5a.614.614,0,0,1,.612-.612h.612a.614.614,0,0,1,.612.612V10.1a.614.614,0,0,1-.612.612h-.612a.614.614,0,0,1-.612-.612ZM9.482,11.933h.612a.614.614,0,0,1,.612.612v.612a.614.614,0,0,1-.612.612H9.482a.614.614,0,0,1-.612-.612v-.612A.614.614,0,0,1,9.482,11.933ZM8.258,8.873a.614.614,0,0,1,.612.612V10.1a.614.614,0,0,1-.612.612H7.646a.614.614,0,0,1-.612-.612V9.485a.614.614,0,0,1,.612-.612ZM3.057,3.06V1.836H10.4V3.06Zm1.53,7.649H3.974a.614.614,0,0,1-.612-.612V9.485a.614.614,0,0,1,.612-.612h.612a.614.614,0,0,1,.612.612V10.1A.614.614,0,0,1,4.586,10.709ZM5.2,13.157v-.612a.614.614,0,0,1,.612-.612h.612a.614.614,0,0,1,.612.612v.612a.614.614,0,0,1-.612.612H5.81A.614.614,0,0,1,5.2,13.157Zm8.261,4.284a.307.307,0,0,1-.306.306H6.422a.307.307,0,0,1-.306-.306v-.612a.307.307,0,0,1,.306-.306h6.731a.307.307,0,0,1,.306.306Zm.918-4.284a.614.614,0,0,1-.612.612h-.612a.614.614,0,0,1-.612-.612v-.612a.614.614,0,0,1,.612-.612h.612a.614.614,0,0,1,.612.612Zm1.836-3.06a.614.614,0,0,1-.612.612H14.99a.614.614,0,0,1-.612-.612V9.485a.614.614,0,0,1,.612-.612H15.6a.614.614,0,0,1,.612.612Z" transform="translate(0.382 0.375)" fill="none" stroke="#000" stroke-width="0.75"/>
</svg>
