<svg xmlns="http://www.w3.org/2000/svg" width="18.492" height="24.389" viewBox="0 0 18.492 24.389">
  <path id="Icon_awesome-receipt" data-name="Icon awesome-receipt" d="M16.326.145,14.577,2.186,12.1.145a.724.724,0,0,0-.875,0L8.746,2.186,6.268.145a.724.724,0,0,0-.875,0L2.915,2.186,1.166.145A.728.728,0,0,0,0,.728V22.594a.728.728,0,0,0,1.166.583l1.749-2.041,2.478,2.041a.724.724,0,0,0,.875,0l2.478-2.041,2.478,2.041a.724.724,0,0,0,.875,0l2.478-2.041,1.749,2.041a.729.729,0,0,0,1.166-.583V.728A.728.728,0,0,0,16.326.145ZM14.577,16.4a.365.365,0,0,1-.364.364H3.28a.365.365,0,0,1-.364-.364V15.67a.365.365,0,0,1,.364-.364H14.213a.365.365,0,0,1,.364.364Zm0-4.373a.365.365,0,0,1-.364.364H3.28a.365.365,0,0,1-.364-.364V11.3a.365.365,0,0,1,.364-.364H14.213a.365.365,0,0,1,.364.364Zm0-4.373a.365.365,0,0,1-.364.364H3.28a.365.365,0,0,1-.364-.364V6.923a.365.365,0,0,1,.364-.364H14.213a.365.365,0,0,1,.364.364Z" transform="translate(0.5 0.533)" fill="none" stroke="#fff" stroke-width="1"/>
</svg>
