<svg xmlns="http://www.w3.org/2000/svg" width="20.269" height="20.269" viewBox="0 0 20.269 20.269">
  <path id="Icon_material-flip-to-back" data-name="Icon material-flip-to-back" d="M11.256,9H9v2.252h2.252Zm0,4.5H9V15.76h2.252Zm0-9.008A2.251,2.251,0,0,0,9,6.752h2.252Zm4.5,13.512H13.508v2.252H15.76ZM22.516,4.5V6.752h2.252A2.259,2.259,0,0,0,22.516,4.5Zm-6.756,0H13.508V6.752H15.76Zm-4.5,15.764V18.012H9A2.251,2.251,0,0,0,11.256,20.264Zm11.26-4.5h2.252V13.508H22.516Zm0-4.5h2.252V9H22.516Zm0,9.008a2.259,2.259,0,0,0,2.252-2.252H22.516ZM6.752,9H4.5V22.516a2.251,2.251,0,0,0,2.252,2.252H20.264V22.516H6.752Zm11.26-2.252h2.252V4.5H18.012Zm0,13.512h2.252V18.012H18.012Z" transform="translate(-4.5 -4.5)"/>
</svg>
