<svg xmlns="http://www.w3.org/2000/svg" width="2108.761" height="1597.876" viewBox="0 0 2108.761 1597.876">
  <g id="Group_1277" data-name="Group 1277" transform="translate(168.31 -111.075)">
    <g id="Group_311" data-name="Group 311" transform="matrix(-0.629, 0.777, -0.777, -0.629, 1977.814, 1275.63)">
      <path id="Path_1" data-name="Path 1" d="M620.613,125.378c-86.281-122.485-363.1-239.672-251.787,100s55.87,482.089-23.693,583.309-108.674,154.768-115.69,300.07,164.778-4.124,74.047,167.466,67.077,82.345-93.049,276.4-105.443,307.5-86.54,345.1-96.375,142.27-113.745,155.651" transform="matrix(0.985, -0.174, 0.174, 0.985, -116.516, 135.836)" fill="none" stroke="#ff9d00" stroke-linecap="round" stroke-width="2"/>
      <path id="Path_3" data-name="Path 3" d="M620.207,125.612c-86.1-122.675-362.424-240.11-251.4,100.039s55.632,482.734-23.83,584.057S236.438,964.639,229.39,1110.126s164.505-4.07,73.874,167.71,66.941,82.475-92.978,276.726-105.36,307.86-86.5,345.521S27.528,2042.5,10.182,2055.9" transform="matrix(0.985, -0.174, 0.174, 0.985, -95.48, 125.803)" fill="none" stroke="#009a2f" stroke-linecap="round" stroke-width="2"/>
      <path id="Path_6" data-name="Path 6" d="M599.657,129.347c-85.145-124.8-357-246.975-246.293,97.291s57.049,487.156-20.446,588.138S227.145,969.365,220.96,1115.853s161.474-1.809,73.368,170.006,66.132,84.031-89.88,277.521S102.57,1872.1,121.275,1910.307,27.5,2052.462,10.537,2065.714" transform="translate(-56.315 110.656) rotate(-9)" fill="none" stroke="#ff1489" stroke-linecap="round" stroke-width="2"/>
      <path id="Path_2" data-name="Path 2" d="M620.378,125.632C534.185,2.956,257.613-114.514,368.788,225.618s55.76,482.692-23.75,583.991S236.434,964.5,229.4,1109.976s164.641-4.042,73.963,167.7,67.011,82.477-93.008,276.68-105.4,307.81-86.513,345.469S27.534,2042.22,10.176,2055.609" transform="matrix(0.985, -0.174, 0.174, 0.985, -106.667, 128.794)" fill="none" stroke="#dedede" stroke-linecap="round" stroke-width="2"/>
      <path id="Path_4" data-name="Path 4" d="M599.485,129.334C514.427,4.53,242.8-117.619,353.373,226.675s56.931,487.21-20.518,588.216S227.144,969.514,220.942,1116.023s161.346-1.834,73.284,170.017,66.067,84.031-89.85,277.568-101.844,308.773-83.16,346.983S27.493,2052.779,10.544,2066.035" transform="translate(-46.274 107.186) rotate(-9)" fill="none" stroke="#0076cc" stroke-linecap="round" stroke-width="2"/>
      <path id="Path_5" data-name="Path 5" d="M577.807,133.2c-84.055-127-351-254.071-240.754,94.449s58.421,491.726-16.965,592.353-102.806,154.233-108.1,301.756,158.165.53,72.754,172.38,65.219,85.639-86.6,278.34-98.189,309.6-79.668,348.377-91.121,141.88-107.666,154.987" transform="translate(-6.379 91.723) rotate(-8)" fill="none" stroke="#5131ff" stroke-linecap="round" stroke-width="2"/>
    </g>
    <g id="Group_1243" data-name="Group 1243">
      <path id="Polygon_21" data-name="Polygon 21" d="M88,0l88,152H0Z" transform="translate(423.587 460.175) rotate(30)" fill="#efd6d6"/>
      <path id="Polygon_22" data-name="Polygon 22" d="M61.5,0,123,107H0Z" transform="translate(1282.587 222.175) rotate(30)" fill="#efd6d6"/>
      <path id="Polygon_23" data-name="Polygon 23" d="M61.5,0,123,107H0Z" transform="translate(1710.672 327.914) rotate(-45)" fill="#efd6d6"/>
      <path id="Polygon_24" data-name="Polygon 24" d="M61.5,0,123,107H0Z" transform="translate(1568.672 656.914) rotate(-45)" fill="#efd6d6"/>
      <circle id="Ellipse_197" data-name="Ellipse 197" cx="52.5" cy="52.5" r="52.5" transform="translate(569 324)" fill="#efd6d6"/>
      <circle id="Ellipse_198" data-name="Ellipse 198" cx="52.5" cy="52.5" r="52.5" transform="translate(112 641)" fill="#efd6d6"/>
      <circle id="Ellipse_201" data-name="Ellipse 201" cx="30" cy="30" r="30" transform="translate(171 494)" fill="#efd6d6"/>
      <circle id="Ellipse_199" data-name="Ellipse 199" cx="52.5" cy="52.5" r="52.5" transform="translate(1390 490)" fill="#efd6d6"/>
      <circle id="Ellipse_200" data-name="Ellipse 200" cx="26" cy="26" r="26" transform="translate(1580 272)" fill="#efd6d6"/>
      <rect id="Rectangle_545" data-name="Rectangle 545" width="134" height="134" transform="translate(82.248 340) rotate(-45)" fill="#efd6d6"/>
      <rect id="Rectangle_548" data-name="Rectangle 548" width="53" height="53" transform="translate(1766.523 542.724) rotate(-45)" fill="#efd6d6"/>
      <rect id="Rectangle_546" data-name="Rectangle 546" width="55" height="55" transform="translate(374.109 361.139) rotate(-45)" fill="#efd6d6"/>
      <rect id="Rectangle_547" data-name="Rectangle 547" width="55" height="55" transform="translate(1566.109 455.139) rotate(-45)" fill="#efd6d6"/>
    </g>
  </g>
</svg>
