<svg xmlns="http://www.w3.org/2000/svg" width="25" height="16.674" viewBox="0 0 25 16.674">
  <path id="Icon_ionic-ios-arrow-round-back" data-name="Icon ionic-ios-arrow-round-back" d="M16.939,11.571a1.135,1.135,0,0,1,.009,1.6l-5.271,5.288H31.762a1.129,1.129,0,0,1,0,2.258H11.677L16.956,26a1.143,1.143,0,0,1-.009,1.6,1.124,1.124,0,0,1-1.589-.009L8.2,20.385h0a1.268,1.268,0,0,1-.234-.356,1.077,1.077,0,0,1-.087-.434A1.132,1.132,0,0,1,8.2,18.8L15.359,11.6A1.106,1.106,0,0,1,16.939,11.571Z" transform="translate(-7.882 -11.252)"/>
</svg>
