<svg xmlns="http://www.w3.org/2000/svg" width="26.414" height="31.217" viewBox="0 0 26.414 31.217">
  <path id="Icon_ionic-md-notifications-outline" data-name="Icon ionic-md-notifications-outline" d="M23,10.162a18.96,18.96,0,0,0-2.668-.677,8.629,8.629,0,0,1,4.808,3.1,6.485,6.485,0,0,1,1.394,4.062v9.576l.7.7h-.7l-16.68.587H27.23a96.979,96.979,0,0,0,0-10.866c-.379-3.759-1.515-4.169-1.515-4.169,0-3.558-7.982-.759-9.99-3.338,0,0,10.365,17.084,10.806,17.084m-7.7-22.843A2.294,2.294,0,0,0,16.5,5.716V6.809a10.117,10.117,0,0,0-7.769,9.833v8.585L5.625,28.348v1.561H32.039V28.348l-3.107-3.122V16.642a10.117,10.117,0,0,0-7.769-9.833V5.716a2.294,2.294,0,0,0-2.331-2.341Zm3.107,28.1H15.724a3.108,3.108,0,1,0,6.215,0Z" transform="translate(-5.625 -3.375)" fill="#c00"/>
</svg>
