<svg xmlns="http://www.w3.org/2000/svg" width="168.643" height="141.239" viewBox="0 0 168.643 141.239">
  <g id="Group_1781" data-name="Group 1781" transform="translate(-914.947 -698.806)">
    <g id="Group_1780" data-name="Group 1780" transform="translate(0 8)">
      <path id="Path_2147" data-name="Path 2147" d="M-19518.818-14966.831s7.688-23.14-21.455-24.087-24.086,24.087-24.086,24.087,3.311,96.456-24.287,96.215,64.594,0,64.594,0,12.451.232,12.451,7.925-2.35,12.938-12.451,12.453-12.453-2.673-12.453-12.453" transform="translate(20517.225 15682)" fill="none" stroke="#f8ac00" stroke-width="0.5"/>
      <path id="Path_2148" data-name="Path 2148" d="M-19518.818-14966.831s7.688-23.14-21.455-24.087-24.086,24.087-24.086,24.087,3.311,96.456-24.287,96.215,64.594,0,64.594,0,12.451.232,12.451,7.925-2.35,12.938-12.451,12.453-12.453-2.673-12.453-12.453" transform="translate(20515.578 15682)" fill="none" stroke="#f8ac00" stroke-width="0.5"/>
      <path id="Path_2149" data-name="Path 2149" d="M-19518.818-14966.831s7.688-23.14-21.455-24.087-24.086,24.087-24.086,24.087,3.311,96.456-24.287,96.215,64.594,0,64.594,0,12.451.232,12.451,7.925-2.35,12.938-12.451,12.453-12.453-2.673-12.453-12.453" transform="translate(20513.934 15682)" fill="none" stroke="#f8ac00" stroke-width="0.5"/>
      <path id="Path_2150" data-name="Path 2150" d="M-19518.818-14966.831s7.688-23.14-21.455-24.087-24.086,24.087-24.086,24.087,3.311,96.456-24.287,96.215,64.594,0,64.594,0,12.451.232,12.451,7.925-2.35,12.938-12.451,12.453-12.453-2.673-12.453-12.453" transform="translate(20512.289 15682)" fill="none" stroke="#f8ac00" stroke-width="0.5"/>
      <path id="Path_2151" data-name="Path 2151" d="M-19519.568-14966.831s7.611-23.14-21.24-24.087-23.846,24.087-23.846,24.087,3.277,96.456-24.043,96.215,63.947,0,63.947,0,12.326.232,12.326,7.925-2.324,12.938-12.326,12.453-12.33-2.673-12.33-12.453" transform="translate(20510.643 15682)" fill="none" stroke="#f8ac00" stroke-width="0.5"/>
      <path id="Path_2152" data-name="Path 2152" d="M-19520.32-14966.831s7.535-23.14-21.023-24.087-23.605,24.087-23.605,24.087,3.244,96.456-23.8,96.215,63.3,0,63.3,0,12.2.232,12.2,7.925-2.3,12.938-12.2,12.453-12.205-2.673-12.205-12.453" transform="translate(20509.002 15682)" fill="none" stroke="#f8ac00" stroke-width="0.5"/>
    </g>
    <path id="Path_2153" data-name="Path 2153" d="M-19619.8-14934.023l-48.385-19.672" transform="translate(-18588.668 -14120.826) rotate(180)" fill="none" stroke="#ffcd7c" stroke-width="1"/>
    <path id="Path_2158" data-name="Path 2158" d="M-19619.8-14934.023l-48.385-19.672" transform="translate(-18588.668 -14122.826) rotate(180)" fill="none" stroke="#ffcd7c" stroke-width="1"/>
    <path id="Path_2161" data-name="Path 2161" d="M-19619.8-14934.023l-48.385-19.672" transform="translate(-18588.668 -14118.826) rotate(180)" fill="none" stroke="#ffcd7c" stroke-width="1"/>
    <path id="Path_2154" data-name="Path 2154" d="M-19619.8-14934.023l-48.385-19.672" transform="translate(-23426.801 -2343.732) rotate(150)" fill="none" stroke="#ffcd7c" stroke-width="1"/>
    <path id="Path_2157" data-name="Path 2157" d="M-19619.8-14934.023l-48.385-19.672" transform="translate(-23426.801 -2345.732) rotate(150)" fill="none" stroke="#ffcd7c" stroke-width="1"/>
    <path id="Path_2160" data-name="Path 2160" d="M-19619.8-14934.023l-48.385-19.672" transform="translate(-23426.801 -2341.732) rotate(150)" fill="none" stroke="#ffcd7c" stroke-width="1"/>
    <path id="Path_2155" data-name="Path 2155" d="M-19619.8-14934.023l-48.385-19.672" transform="matrix(-0.53, 0.848, -0.848, -0.53, -22030.516, 9469.047)" fill="none" stroke="#ffcd7c" stroke-width="1"/>
    <path id="Path_2156" data-name="Path 2156" d="M-19619.8-14934.023l-48.385-19.672" transform="matrix(-0.53, 0.848, -0.848, -0.53, -22030.516, 9467.047)" fill="none" stroke="#ffcd7c" stroke-width="1"/>
    <path id="Path_2159" data-name="Path 2159" d="M-19619.8-14934.023l-48.385-19.672" transform="matrix(-0.53, 0.848, -0.848, -0.53, -22030.516, 9471.047)" fill="none" stroke="#ffcd7c" stroke-width="1"/>
  </g>
</svg>
