<svg xmlns="http://www.w3.org/2000/svg" width="1202.602" height="519.613" viewBox="0 0 1202.602 519.613">
  <g id="Group_1763" data-name="Group 1763" transform="translate(-358.66 -413.859)">
    <g id="Group_1761" data-name="Group 1761" transform="translate(1858.922 903.632) rotate(180)">
      <path id="Path_2125" data-name="Path 2125" d="M-24235.018-14684s137.271-115.81,323.957,13.361" transform="translate(24533 15160)" fill="none" stroke="#ffc49f" stroke-width="1"/>
      <path id="Path_2127" data-name="Path 2127" d="M-24235.018-14684s137.271-115.81,323.957,13.361" transform="translate(24533 15157)" fill="none" stroke="#ffc49f" stroke-width="1"/>
      <path id="Path_2129" data-name="Path 2129" d="M-24235.018-14684.781s137.271-113.914,323.957,13.143" transform="translate(24533 15155)" fill="none" stroke="#ffc49f" stroke-width="1"/>
      <path id="Path_2131" data-name="Path 2131" d="M-24235.018-14685.562s137.271-112.019,323.957,12.924" transform="translate(24533 15152)" fill="none" stroke="#ffc49f" stroke-width="1"/>
      <path id="Path_2133" data-name="Path 2133" d="M-24235.018-14686.344s137.271-110.123,323.957,12.705" transform="translate(24533 15149)" fill="none" stroke="#ffc49f" stroke-width="1"/>
      <path id="Path_2135" data-name="Path 2135" d="M-24235.018-14687.126s137.271-108.227,323.957,12.486" transform="translate(24533 15146.001)" fill="none" stroke="#ffc49f" stroke-width="1"/>
    </g>
    <g id="Group_1762" data-name="Group 1762" transform="translate(682.939 489.361) rotate(180)">
      <path id="Path_2126" data-name="Path 2126" d="M-23911.061-14684s-137.271-115.81-323.957,13.361" transform="translate(24235.018 14745.729)" fill="none" stroke="#ffc49f" stroke-width="1"/>
      <path id="Path_2128" data-name="Path 2128" d="M-23911.061-14684s-137.271-115.81-323.957,13.361" transform="translate(24235.018 14742.729)" fill="none" stroke="#ffc49f" stroke-width="1"/>
      <path id="Path_2130" data-name="Path 2130" d="M-23911.061-14684.781s-137.271-113.914-323.957,13.143" transform="translate(24235.018 14740.729)" fill="none" stroke="#ffc49f" stroke-width="1"/>
      <path id="Path_2132" data-name="Path 2132" d="M-23911.061-14685.562s-137.271-112.019-323.957,12.924" transform="translate(24235.018 14737.729)" fill="none" stroke="#ffc49f" stroke-width="1"/>
      <path id="Path_2134" data-name="Path 2134" d="M-23911.061-14686.344s-137.271-110.123-323.957,12.705" transform="translate(24235.018 14734.729)" fill="none" stroke="#ffc49f" stroke-width="1"/>
      <path id="Path_2136" data-name="Path 2136" d="M-23911.061-14687.126s-137.271-108.227-323.957,12.486" transform="translate(24235.018 14731.73)" fill="none" stroke="#ffc49f" stroke-width="1"/>
    </g>
    <path id="Path_2137" data-name="Path 2137" d="M-23850.059-14273.951s127.551-100.855,312.031-101.32c93.23-.234,200.359,31.108,313.8,101.32" transform="translate(24497.086 15191)" fill="none" stroke="#ffc49f" stroke-width="1"/>
    <path id="Path_2138" data-name="Path 2138" d="M-23850.059-14273.951s126.492-102,310.477-103.012c93.207-.516,201.234,32.381,315.355,103.012" transform="translate(24497.086 15194)" fill="none" stroke="#ffc49f" stroke-width="1"/>
    <path id="Path_2139" data-name="Path 2139" d="M-23850.059-14273.951s125.25-101.46,306.254-104.354c94.344-1.508,203.086,32.256,319.578,104.354" transform="translate(24497.086 15197)" fill="none" stroke="#ffc49f" stroke-width="1"/>
    <path id="Path_2140" data-name="Path 2140" d="M-23850.059-14273.951s129.246-106.732,316.223-105.793c92.035.463,197.859,36.629,309.609,105.793" transform="translate(24497.086 15200)" fill="none" stroke="#ffc49f" stroke-width="1"/>
    <path id="Path_2141" data-name="Path 2141" d="M-23850.059-14273.951s127.742-106.957,313.348-106.865c92.629.046,199.719,37.072,312.484,106.865" transform="translate(24497.086 15203)" fill="none" stroke="#ffc49f" stroke-width="1"/>
    <path id="Path_2142" data-name="Path 2142" d="M-23850.059-14272.951s123.98-105.715,304.07-108.9c94.992-1.678,204.934,35.812,321.762,108.9" transform="translate(24497.086 15206)" fill="none" stroke="#ffc49f" stroke-width="1"/>
  </g>
</svg>
