<svg xmlns="http://www.w3.org/2000/svg" width="1544.342" height="1640.38" viewBox="0 0 1544.342 1640.38">
  <g id="Group_2032" data-name="Group 2032" transform="translate(-283.755 -262.07)">
    <circle id="Ellipse_761" data-name="Ellipse 761" cx="65" cy="65" r="65" transform="matrix(0.891, 0.454, -0.454, 0.891, 435.565, 262.07)" fill="#e2e2e2" opacity="0.072"/>
    <circle id="Ellipse_762" data-name="Ellipse 762" cx="49.5" cy="49.5" r="49.5" transform="matrix(0.891, 0.454, -0.454, 0.891, 328.7, 377.092)" fill="#fff" opacity="0.072"/>
    <circle id="Ellipse_763" data-name="Ellipse 763" cx="105" cy="105" r="105" transform="matrix(0.891, 0.454, -0.454, 0.891, 500.549, 420.883)" fill="#c6c6c6" opacity="0.072"/>
    <circle id="Ellipse_764" data-name="Ellipse 764" cx="124.5" cy="124.5" r="124.5" transform="matrix(0.891, 0.454, -0.454, 0.891, 693.75, 394.625)" fill="#cb0e13" opacity="0.041"/>
    <circle id="Ellipse_765" data-name="Ellipse 765" cx="150" cy="150" r="150" transform="matrix(0.891, 0.454, -0.454, 0.891, 1560.795, 703.342)" fill="#717171" opacity="0.047"/>
    <circle id="Ellipse_766" data-name="Ellipse 766" cx="150" cy="150" r="150" transform="matrix(0.891, 0.454, -0.454, 0.891, 682.953, 973.096)" fill="#c6c6c6" opacity="0.072"/>
    <circle id="Ellipse_767" data-name="Ellipse 767" cx="198" cy="198" r="198" transform="matrix(0.891, 0.454, -0.454, 0.891, 1301.106, 924.732)" fill="#f2bf2b" opacity="0.072"/>
    <circle id="Ellipse_768" data-name="Ellipse 768" cx="233" cy="233" r="233" transform="matrix(0.891, 0.454, -0.454, 0.891, 1286.098, 1275.682)" fill="#aaa" opacity="0.072"/>
  </g>
</svg>
