<svg xmlns="http://www.w3.org/2000/svg" width="75" height="75" viewBox="0 0 75 75">
  <g id="Group_1859" data-name="Group 1859" transform="translate(-1786 -14)">
    <circle id="Ellipse_1" data-name="Ellipse 1" cx="37.5" cy="37.5" r="37.5" transform="translate(1786 14)" fill="#fff"/>
    <path id="Icon_material-account-circle" data-name="Icon material-account-circle" d="M32.184,3A29.184,29.184,0,1,0,61.369,32.184,29.195,29.195,0,0,0,32.184,3Zm0,8.755a8.755,8.755,0,1,1-8.755,8.755A8.744,8.744,0,0,1,32.184,11.755Zm0,41.442a21.014,21.014,0,0,1-17.511-9.4c.088-5.808,11.674-8.989,17.511-8.989,5.808,0,17.423,3.181,17.511,8.989A21.014,21.014,0,0,1,32.184,53.2Z" transform="translate(1791.276 18.569)" fill="#aae3f8"/>
  </g>
</svg>
