<svg xmlns="http://www.w3.org/2000/svg" width="1953.481" height="379.855" viewBox="0 0 1953.481 379.855">
  <g id="Group_2054" data-name="Group 2054" transform="translate(5.928 -412.237)">
    <g id="Group_2047" data-name="Group 2047" transform="translate(0 94)">
      <path id="Path_2336" data-name="Path 2336" d="M-2286-14060.678s80.961-145.686,133.968-83.956,0,83.956,0,83.956-71.511-98.092,112.32-83.956,243.4,223.745,170.079,141.335,123.046-101,177.1-57.379,123.31,108.539,193.556,83.071,153.623-40.5,153.623-40.5,11.352-3.986,10.22-7.606-9.4,14.756-.943,12.991,2.406,2.355,2.406,2.355l1.705,1.521-1.705,1.181,1.705,1.994-1.705,2.277" transform="translate(2286 14543)" fill="none" stroke="#0810cc" stroke-width="0.25"/>
      <path id="Path_2337" data-name="Path 2337" d="M-2286-14060.678s80.961-145.686,133.968-83.956,0,83.956,0,83.956-71.511-98.092,112.32-83.956,243.4,223.745,170.079,141.335,123.046-101,177.1-57.379,123.31,108.539,193.556,83.071,153.623-40.5,153.623-40.5,11.352-3.986,10.22-7.606-9.4,14.756-.943,12.991,2.406,2.355,2.406,2.355l1.705,1.521-1.705,1.181,1.705,1.994-1.705,2.277" transform="translate(2286 14545)" fill="none" stroke="#0810cc" stroke-width="0.25"/>
      <path id="Path_2338" data-name="Path 2338" d="M-2286-14060.678s80.961-145.686,133.968-83.956,0,83.956,0,83.956-71.511-98.092,112.32-83.956,243.4,223.745,170.079,141.335,123.046-101,177.1-57.379,123.31,108.539,193.556,83.071,153.623-40.5,153.623-40.5,11.352-3.986,10.22-7.606-9.4,14.756-.943,12.991,2.406,2.355,2.406,2.355l1.705,1.521-1.705,1.181,1.705,1.994-1.705,2.277" transform="translate(2286 14547)" fill="none" stroke="#0810cc" stroke-width="0.25"/>
      <path id="Path_2339" data-name="Path 2339" d="M-2286-14060.678s80.961-145.686,133.968-83.956,0,83.956,0,83.956-71.511-98.092,112.32-83.956,243.4,223.745,170.079,141.335,123.046-101,177.1-57.379,123.31,108.539,193.556,83.071,153.623-40.5,153.623-40.5,11.352-3.986,10.22-7.606-9.4,14.756-.943,12.991,2.406,2.355,2.406,2.355l1.705,1.521-1.705,1.181,1.705,1.994-1.705,2.277" transform="translate(2286 14549)" fill="none" stroke="#0810cc" stroke-width="0.25"/>
      <path id="Path_2340" data-name="Path 2340" d="M-2286-14060.678s80.961-145.686,133.968-83.956,0,83.956,0,83.956-71.511-98.092,112.32-83.956,243.4,223.745,170.079,141.335,123.046-101,177.1-57.379,123.31,108.539,193.556,83.071,153.623-40.5,153.623-40.5,11.352-3.986,10.22-7.606-9.4,14.756-.943,12.991,2.406,2.355,2.406,2.355l1.705,1.521-1.705,1.181,1.705,1.994-1.705,2.277" transform="translate(2286 14551)" fill="none" stroke="#0810cc" stroke-width="0.25"/>
      <path id="Path_2341" data-name="Path 2341" d="M-2286-14060.678s80.961-145.686,133.968-83.956,0,83.956,0,83.956-71.511-98.092,112.32-83.956,243.4,223.745,170.079,141.335,123.046-101,177.1-57.379,123.31,108.539,193.556,83.071,153.623-40.5,153.623-40.5,11.352-3.986,10.22-7.606-9.4,14.756-.943,12.991,2.406,2.355,2.406,2.355l1.705,1.521-1.705,1.181,1.705,1.994-1.705,2.277" transform="translate(2286 14553)" fill="none" stroke="#0810cc" stroke-width="0.25"/>
      <path id="Path_2342" data-name="Path 2342" d="M-2286-14060.15s80.961-146.461,133.968-84.4,0,84.4,0,84.4-71.511-98.613,112.32-84.4,243.4,224.935,170.079,142.086,123.046-101.533,177.1-57.684,123.31,109.116,193.556,83.513,153.623-40.716,153.623-40.716,11.352-4.008,10.22-7.647-9.4,14.835-.943,13.061,2.406,2.368,2.406,2.368l1.705,1.528-1.705,1.187,1.705,2-1.705,2.29" transform="translate(2286 14554)" fill="none" stroke="#0810cc" stroke-width="0.25"/>
    </g>
    <g id="Group_2052" data-name="Group 2052" transform="matrix(0.998, 0.07, -0.07, 0.998, 34.864, 61.888)">
      <path id="Path_2336-2" data-name="Path 2336" d="M-2286-14060.678s80.961-145.686,133.968-83.956,0,83.956,0,83.956-71.511-98.092,112.32-83.956,243.4,223.745,170.079,141.335,123.046-101,177.1-57.379,123.31,108.539,193.556,83.071,153.623-40.5,153.623-40.5,11.352-3.986,10.22-7.606-9.4,14.756-.943,12.991,2.406,2.355,2.406,2.355l1.705,1.521-1.705,1.181,1.705,1.994-1.705,2.277" transform="translate(2286 14543)" fill="none" stroke="#cc085b" stroke-width="0.25"/>
      <path id="Path_2337-2" data-name="Path 2337" d="M-2286-14060.678s80.961-145.686,133.968-83.956,0,83.956,0,83.956-71.511-98.092,112.32-83.956,243.4,223.745,170.079,141.335,123.046-101,177.1-57.379,123.31,108.539,193.556,83.071,153.623-40.5,153.623-40.5,11.352-3.986,10.22-7.606-9.4,14.756-.943,12.991,2.406,2.355,2.406,2.355l1.705,1.521-1.705,1.181,1.705,1.994-1.705,2.277" transform="translate(2286 14545)" fill="none" stroke="#cc085b" stroke-width="0.25"/>
      <path id="Path_2338-2" data-name="Path 2338" d="M-2286-14060.678s80.961-145.686,133.968-83.956,0,83.956,0,83.956-71.511-98.092,112.32-83.956,243.4,223.745,170.079,141.335,123.046-101,177.1-57.379,123.31,108.539,193.556,83.071,153.623-40.5,153.623-40.5,11.352-3.986,10.22-7.606-9.4,14.756-.943,12.991,2.406,2.355,2.406,2.355l1.705,1.521-1.705,1.181,1.705,1.994-1.705,2.277" transform="translate(2286 14547)" fill="none" stroke="#cc085b" stroke-width="0.25"/>
      <path id="Path_2339-2" data-name="Path 2339" d="M-2286-14060.678s80.961-145.686,133.968-83.956,0,83.956,0,83.956-71.511-98.092,112.32-83.956,243.4,223.745,170.079,141.335,123.046-101,177.1-57.379,123.31,108.539,193.556,83.071,153.623-40.5,153.623-40.5,11.352-3.986,10.22-7.606-9.4,14.756-.943,12.991,2.406,2.355,2.406,2.355l1.705,1.521-1.705,1.181,1.705,1.994-1.705,2.277" transform="translate(2286 14549)" fill="none" stroke="#cc085b" stroke-width="0.25"/>
      <path id="Path_2340-2" data-name="Path 2340" d="M-2286-14060.678s80.961-145.686,133.968-83.956,0,83.956,0,83.956-71.511-98.092,112.32-83.956,243.4,223.745,170.079,141.335,123.046-101,177.1-57.379,123.31,108.539,193.556,83.071,153.623-40.5,153.623-40.5,11.352-3.986,10.22-7.606-9.4,14.756-.943,12.991,2.406,2.355,2.406,2.355l1.705,1.521-1.705,1.181,1.705,1.994-1.705,2.277" transform="translate(2286 14551)" fill="none" stroke="#cc085b" stroke-width="0.25"/>
      <path id="Path_2341-2" data-name="Path 2341" d="M-2286-14060.678s80.961-145.686,133.968-83.956,0,83.956,0,83.956-71.511-98.092,112.32-83.956,243.4,223.745,170.079,141.335,123.046-101,177.1-57.379,123.31,108.539,193.556,83.071,153.623-40.5,153.623-40.5,11.352-3.986,10.22-7.606-9.4,14.756-.943,12.991,2.406,2.355,2.406,2.355l1.705,1.521-1.705,1.181,1.705,1.994-1.705,2.277" transform="translate(2286 14553)" fill="none" stroke="#cc085b" stroke-width="0.25"/>
      <path id="Path_2342-2" data-name="Path 2342" d="M-2286-14060.15s80.961-146.461,133.968-84.4,0,84.4,0,84.4-71.511-98.613,112.32-84.4,243.4,224.935,170.079,142.086,123.046-101.533,177.1-57.684,123.31,109.116,193.556,83.513,153.623-40.716,153.623-40.716,11.352-4.008,10.22-7.647-9.4,14.835-.943,13.061,2.406,2.368,2.406,2.368l1.705,1.528-1.705,1.187,1.705,2-1.705,2.29" transform="translate(2286 14554)" fill="none" stroke="#cc085b" stroke-width="0.25"/>
    </g>
    <g id="Group_2048" data-name="Group 2048" transform="translate(2020.522 984.75) rotate(169)">
      <path id="Path_2336-3" data-name="Path 2336" d="M-2286-14060.678s81.473-145.686,134.815-83.956,0,83.956,0,83.956-71.964-98.092,113.03-83.956,244.937,223.745,171.155,141.335,123.823-101,178.219-57.379,124.09,108.539,194.78,83.071,154.594-40.5,154.594-40.5,11.424-3.986,10.285-7.606-9.464,14.756-.949,12.991,2.421,2.355,2.421,2.355l1.716,1.521-1.716,1.181,1.716,1.994-1.716,2.277" transform="translate(2286 14543)" fill="none" stroke="#ccb508" stroke-width="0.25"/>
      <path id="Path_2337-3" data-name="Path 2337" d="M-2286-14060.678s81.473-145.686,134.815-83.956,0,83.956,0,83.956-71.964-98.092,113.03-83.956,244.937,223.745,171.155,141.335,123.823-101,178.219-57.379,124.09,108.539,194.78,83.071,154.594-40.5,154.594-40.5,11.424-3.986,10.285-7.606-9.464,14.756-.949,12.991,2.421,2.355,2.421,2.355l1.716,1.521-1.716,1.181,1.716,1.994-1.716,2.277" transform="translate(2286 14545)" fill="none" stroke="#ccb508" stroke-width="0.25"/>
      <path id="Path_2338-3" data-name="Path 2338" d="M-2286-14060.678s81.473-145.686,134.815-83.956,0,83.956,0,83.956-71.964-98.092,113.03-83.956,244.937,223.745,171.155,141.335,123.823-101,178.219-57.379,124.09,108.539,194.78,83.071,154.594-40.5,154.594-40.5,11.424-3.986,10.285-7.606-9.464,14.756-.949,12.991,2.421,2.355,2.421,2.355l1.716,1.521-1.716,1.181,1.716,1.994-1.716,2.277" transform="translate(2286 14547)" fill="none" stroke="#ccb508" stroke-width="0.25"/>
      <path id="Path_2339-3" data-name="Path 2339" d="M-2286-14060.678s81.473-145.686,134.815-83.956,0,83.956,0,83.956-71.964-98.092,113.03-83.956,244.937,223.745,171.155,141.335,123.823-101,178.219-57.379,124.09,108.539,194.78,83.071,154.594-40.5,154.594-40.5,11.424-3.986,10.285-7.606-9.464,14.756-.949,12.991,2.421,2.355,2.421,2.355l1.716,1.521-1.716,1.181,1.716,1.994-1.716,2.277" transform="translate(2286 14549)" fill="none" stroke="#ccb508" stroke-width="0.25"/>
      <path id="Path_2340-3" data-name="Path 2340" d="M-2286-14060.678s81.473-145.686,134.815-83.956,0,83.956,0,83.956-71.964-98.092,113.03-83.956,244.937,223.745,171.155,141.335,123.823-101,178.219-57.379,124.09,108.539,194.78,83.071,154.594-40.5,154.594-40.5,11.424-3.986,10.285-7.606-9.464,14.756-.949,12.991,2.421,2.355,2.421,2.355l1.716,1.521-1.716,1.181,1.716,1.994-1.716,2.277" transform="translate(2286 14551)" fill="none" stroke="#ccb508" stroke-width="0.25"/>
      <path id="Path_2341-3" data-name="Path 2341" d="M-2286-14060.678s81.473-145.686,134.815-83.956,0,83.956,0,83.956-71.964-98.092,113.03-83.956,244.937,223.745,171.155,141.335,123.823-101,178.219-57.379,124.09,108.539,194.78,83.071,154.594-40.5,154.594-40.5,11.424-3.986,10.285-7.606-9.464,14.756-.949,12.991,2.421,2.355,2.421,2.355l1.716,1.521-1.716,1.181,1.716,1.994-1.716,2.277" transform="translate(2286 14553)" fill="none" stroke="#ccb508" stroke-width="0.25"/>
      <path id="Path_2342-3" data-name="Path 2342" d="M-2286-14060.15s81.473-146.461,134.815-84.4,0,84.4,0,84.4-71.964-98.613,113.03-84.4,244.937,224.935,171.155,142.086,123.823-101.533,178.219-57.684,124.09,109.116,194.78,83.513,154.594-40.716,154.594-40.716,11.424-4.008,10.285-7.647-9.464,14.835-.949,13.061,2.421,2.368,2.421,2.368l1.716,1.528-1.716,1.187,1.716,2-1.716,2.29" transform="translate(2286 14554)" fill="none" stroke="#ccb508" stroke-width="0.25"/>
    </g>
    <g id="Group_2051" data-name="Group 2051" transform="translate(1992.459 1023.132) rotate(173)">
      <path id="Path_2336-4" data-name="Path 2336" d="M-2286-14060.678s81.473-145.686,134.815-83.956,0,83.956,0,83.956-71.964-98.092,113.03-83.956,244.937,223.745,171.155,141.335,123.823-101,178.219-57.379,124.09,108.539,194.78,83.071,154.594-40.5,154.594-40.5,11.424-3.986,10.285-7.606-9.464,14.756-.949,12.991,2.421,2.355,2.421,2.355l1.716,1.521-1.716,1.181,1.716,1.994-1.716,2.277" transform="translate(2286 14543)" fill="none" stroke="#08ccc4" stroke-width="0.25"/>
      <path id="Path_2337-4" data-name="Path 2337" d="M-2286-14060.678s81.473-145.686,134.815-83.956,0,83.956,0,83.956-71.964-98.092,113.03-83.956,244.937,223.745,171.155,141.335,123.823-101,178.219-57.379,124.09,108.539,194.78,83.071,154.594-40.5,154.594-40.5,11.424-3.986,10.285-7.606-9.464,14.756-.949,12.991,2.421,2.355,2.421,2.355l1.716,1.521-1.716,1.181,1.716,1.994-1.716,2.277" transform="translate(2286 14545)" fill="none" stroke="#08ccc4" stroke-width="0.25"/>
      <path id="Path_2338-4" data-name="Path 2338" d="M-2286-14060.678s81.473-145.686,134.815-83.956,0,83.956,0,83.956-71.964-98.092,113.03-83.956,244.937,223.745,171.155,141.335,123.823-101,178.219-57.379,124.09,108.539,194.78,83.071,154.594-40.5,154.594-40.5,11.424-3.986,10.285-7.606-9.464,14.756-.949,12.991,2.421,2.355,2.421,2.355l1.716,1.521-1.716,1.181,1.716,1.994-1.716,2.277" transform="translate(2286 14547)" fill="none" stroke="#08ccc4" stroke-width="0.25"/>
      <path id="Path_2339-4" data-name="Path 2339" d="M-2286-14060.678s81.473-145.686,134.815-83.956,0,83.956,0,83.956-71.964-98.092,113.03-83.956,244.937,223.745,171.155,141.335,123.823-101,178.219-57.379,124.09,108.539,194.78,83.071,154.594-40.5,154.594-40.5,11.424-3.986,10.285-7.606-9.464,14.756-.949,12.991,2.421,2.355,2.421,2.355l1.716,1.521-1.716,1.181,1.716,1.994-1.716,2.277" transform="translate(2286 14549)" fill="none" stroke="#08ccc4" stroke-width="0.25"/>
      <path id="Path_2340-4" data-name="Path 2340" d="M-2286-14060.678s81.473-145.686,134.815-83.956,0,83.956,0,83.956-71.964-98.092,113.03-83.956,244.937,223.745,171.155,141.335,123.823-101,178.219-57.379,124.09,108.539,194.78,83.071,154.594-40.5,154.594-40.5,11.424-3.986,10.285-7.606-9.464,14.756-.949,12.991,2.421,2.355,2.421,2.355l1.716,1.521-1.716,1.181,1.716,1.994-1.716,2.277" transform="translate(2286 14551)" fill="none" stroke="#08ccc4" stroke-width="0.25"/>
      <path id="Path_2341-4" data-name="Path 2341" d="M-2286-14060.678s81.473-145.686,134.815-83.956,0,83.956,0,83.956-71.964-98.092,113.03-83.956,244.937,223.745,171.155,141.335,123.823-101,178.219-57.379,124.09,108.539,194.78,83.071,154.594-40.5,154.594-40.5,11.424-3.986,10.285-7.606-9.464,14.756-.949,12.991,2.421,2.355,2.421,2.355l1.716,1.521-1.716,1.181,1.716,1.994-1.716,2.277" transform="translate(2286 14553)" fill="none" stroke="#08ccc4" stroke-width="0.25"/>
      <path id="Path_2342-4" data-name="Path 2342" d="M-2286-14060.15s81.473-146.461,134.815-84.4,0,84.4,0,84.4-71.964-98.613,113.03-84.4,244.937,224.935,171.155,142.086,123.823-101.533,178.219-57.684,124.09,109.116,194.78,83.513,154.594-40.716,154.594-40.716,11.424-4.008,10.285-7.647-9.464,14.835-.949,13.061,2.421,2.368,2.421,2.368l1.716,1.528-1.716,1.187,1.716,2-1.716,2.29" transform="translate(2286 14554)" fill="none" stroke="#08ccc4" stroke-width="0.25"/>
    </g>
  </g>
</svg>
