<svg xmlns="http://www.w3.org/2000/svg" xmlns:xlink="http://www.w3.org/1999/xlink" width="365" height="365" viewBox="0 0 365 365">
  <defs>
    <clipPath id="clip-path">
      <circle id="Ellipse_318" data-name="Ellipse 318" cx="182.5" cy="182.5" r="182.5" transform="translate(545 333)" fill="none"/>
    </clipPath>
  </defs>
  <g id="Group_2219" data-name="Group 2219" transform="translate(-6096 -15331)">
    <g id="Group_1501" data-name="Group 1501" transform="translate(5633 15089)">
      <g id="Group_1500" data-name="Group 1500" transform="translate(-82 -91)" clip-path="url(#clip-path)">
        <g id="Group_1499" data-name="Group 1499">
          <g id="Group_1493" data-name="Group 1493">
            <path id="Rectangle_665" data-name="Rectangle 665" d="M727.446,333.228h0a182.5,182.5,0,0,1,182.5,182.5h0a182.5,182.5,0,0,1-182.5,182.5h0a182.5,182.5,0,0,1-182.5-182.5h0A182.5,182.5,0,0,1,727.446,333.228Z" fill="rgba(196,161,161,0)"/>
            <path id="Path_1730" data-name="Path 1730" d="M619.775,368.614s-28.314,66.362,11.243,79.16,89.959,2.286,83.362,62.328-1.943,82.777,58.344,97.88,87.222,27.65,78.322,41.36" transform="matrix(0.259, -0.966, 0.966, 0.259, 39.745, 1079.571)" fill="none" stroke="#fd9d27" stroke-linecap="round" stroke-width="1"/>
            <path id="Path_1731" data-name="Path 1731" d="M627.657,363.344s-30.495,65.32,8.418,79.488,89.44,5.422,80.774,65.186-4.83,82.643,54.634,99.837,85.829,30.67,76.493,44.058" transform="matrix(0.259, -0.966, 0.966, 0.259, 39.745, 1079.571)" fill="none" stroke="#dedede" stroke-linecap="round" stroke-miterlimit="3.998" stroke-width="1"/>
            <path id="Path_1732" data-name="Path 1732" d="M645.9,352.7s-34.958,62.661,2.872,79.45,88.828,11.66,76.031,70.342-10.56,81.648,47.552,102.883,83.471,36.455,73.23,49.078" transform="matrix(0.259, -0.966, 0.966, 0.259, 39.745, 1079.571)" fill="none" stroke="#1176cc" stroke-linecap="round" stroke-miterlimit="4.002" stroke-width="1.001"/>
            <path id="Path_1734" data-name="Path 1734" d="M643.354,354S607.2,416.181,644.9,433.658s88.988,13.222,75.152,71.794-11.978,81.624,46.009,103.907,83.193,37.972,72.7,50.445" transform="matrix(0.259, -0.966, 0.966, 0.259, 39.745, 1079.571)" fill="none" stroke="#159a2f" stroke-linecap="round" stroke-width="1"/>
            <path id="Path_1733" data-name="Path 1733" d="M656.993,347.86s-38.183,60.081-1.082,78.713,88.5,16.3,72.742,73.632-14.663,80.166,42.558,104.281,81.894,40.526,70.992,52.46" transform="matrix(0.259, -0.966, 0.966, 0.259, 39.745, 1079.571)" fill="none" stroke="#fd1689" stroke-linecap="round" stroke-width="1"/>
            <path id="Path_1735" data-name="Path 1735" d="M670.449,342.556s-42.211,57.478-6.664,78.653,86.789,22.353,67.059,78.622S710.58,579.007,765.729,607.04s78.5,46.135,66.817,57.326" transform="matrix(0.259, -0.966, 0.966, 0.259, 39.745, 1079.571)" fill="none" stroke="#462ec3" stroke-linecap="round" stroke-width="1"/>
          </g>
          <g id="Group_2220" data-name="Group 2220" transform="translate(-3257 -864)">
            <path id="Subtraction_2" data-name="Subtraction 2" d="M203,250H0V0H45.853V46.77a4.9,4.9,0,1,0,9.794,0V0h90.014V46.77a4.9,4.9,0,1,0,9.794,0V0H203V250Z" transform="translate(3885 1272)" fill="#e04e4e"/>
            <g id="Group_1937" data-name="Group 1937" transform="translate(3879.575 1367.748)">
              <path id="Path_2259" data-name="Path 2259" d="M3881,1286.57s32.546-53.144,81.74-30.546,97.08,100.818,120.285,62.072" transform="translate(-3875.739 -1226.493)" fill="none" stroke="#ffa5a5" stroke-linecap="round" stroke-width="0.1"/>
              <path id="Path_2264" data-name="Path 2264" d="M0,36.142S32.177-17,80.811,5.6s95.974,100.818,118.914,62.071" transform="matrix(0.985, -0.174, 0.174, 0.985, 0, 34.682)" fill="none" stroke="#ffa5a5" stroke-linecap="round" stroke-width="0.1"/>
              <path id="Path_2260" data-name="Path 2260" d="M3881,1288.275s32.546-55.652,81.74-31.988,97.08,105.576,120.285,65" transform="translate(-3875.739 -1226.494)" fill="none" stroke="#ffa5a5" stroke-linecap="round" stroke-width="0.1"/>
              <path id="Path_2261" data-name="Path 2261" d="M3881,1289.98s32.546-58.159,81.74-33.429,97.08,110.333,120.285,67.93" transform="translate(-3875.739 -1226.494)" fill="none" stroke="#ffa5a5" stroke-linecap="round" stroke-width="0.1"/>
              <path id="Path_2262" data-name="Path 2262" d="M3881,1291.686s32.546-60.667,81.74-34.87,97.08,115.091,120.285,70.858" transform="translate(-3875.739 -1226.494)" fill="none" stroke="#ffa5a5" stroke-linecap="round" stroke-width="0.1"/>
              <path id="Path_2263" data-name="Path 2263" d="M3881,1293.391s32.546-63.175,81.74-36.312,97.08,119.849,120.285,73.788" transform="translate(-3875.739 -1226.494)" fill="none" stroke="#ffa5a5" stroke-linecap="round" stroke-width="0.1"/>
            </g>
            <g id="Group_2221" data-name="Group 2221" transform="translate(3901.718 1339.95) rotate(31)">
              <path id="Path_2259-2" data-name="Path 2259" d="M3881,1286.57s32.546-53.144,81.74-30.546,97.08,100.818,120.285,62.072" transform="translate(-3875.739 -1226.493)" fill="none" stroke="#ffa5a5" stroke-linecap="round" stroke-width="0.1"/>
              <path id="Path_2264-2" data-name="Path 2264" d="M0,36.142S32.177-17,80.811,5.6s95.974,100.818,118.914,62.071" transform="matrix(0.985, -0.174, 0.174, 0.985, 0, 34.682)" fill="none" stroke="#ffa5a5" stroke-linecap="round" stroke-width="0.1"/>
              <path id="Path_2260-2" data-name="Path 2260" d="M3881,1288.275s32.546-55.652,81.74-31.988,97.08,105.576,120.285,65" transform="translate(-3875.739 -1226.494)" fill="none" stroke="#ffa5a5" stroke-linecap="round" stroke-width="0.1"/>
              <path id="Path_2261-2" data-name="Path 2261" d="M3881,1289.98s32.546-58.159,81.74-33.429,97.08,110.333,120.285,67.93" transform="translate(-3875.739 -1226.494)" fill="none" stroke="#ffa5a5" stroke-linecap="round" stroke-width="0.1"/>
              <path id="Path_2262-2" data-name="Path 2262" d="M3881,1291.686s32.546-60.667,81.74-34.87,97.08,115.091,120.285,70.858" transform="translate(-3875.739 -1226.494)" fill="none" stroke="#ffa5a5" stroke-linecap="round" stroke-width="0.1"/>
              <path id="Path_2263-2" data-name="Path 2263" d="M3881,1293.391s32.546-63.175,81.74-36.312,97.08,119.849,120.285,73.788" transform="translate(-3875.739 -1226.494)" fill="none" stroke="#ffa5a5" stroke-linecap="round" stroke-width="0.1"/>
            </g>
            <g id="Group_2222" data-name="Group 2222" transform="translate(3929.8 1325.938) rotate(60)">
              <path id="Path_2259-3" data-name="Path 2259" d="M3881,1286.57s32.546-53.144,81.74-30.546,97.08,100.818,120.285,62.072" transform="translate(-3875.739 -1226.493)" fill="none" stroke="#ffa5a5" stroke-linecap="round" stroke-width="0.1"/>
              <path id="Path_2264-3" data-name="Path 2264" d="M0,36.142S32.177-17,80.811,5.6s95.974,100.818,118.914,62.071" transform="matrix(0.985, -0.174, 0.174, 0.985, 0, 34.682)" fill="none" stroke="#ffa5a5" stroke-linecap="round" stroke-width="0.1"/>
              <path id="Path_2260-3" data-name="Path 2260" d="M3881,1288.275s32.546-55.652,81.74-31.988,97.08,105.576,120.285,65" transform="translate(-3875.739 -1226.494)" fill="none" stroke="#ffa5a5" stroke-linecap="round" stroke-width="0.1"/>
              <path id="Path_2261-3" data-name="Path 2261" d="M3881,1289.98s32.546-58.159,81.74-33.429,97.08,110.333,120.285,67.93" transform="translate(-3875.739 -1226.494)" fill="none" stroke="#ffa5a5" stroke-linecap="round" stroke-width="0.1"/>
              <path id="Path_2262-3" data-name="Path 2262" d="M3881,1291.686s32.546-60.667,81.74-34.87,97.08,115.091,120.285,70.858" transform="translate(-3875.739 -1226.494)" fill="none" stroke="#ffa5a5" stroke-linecap="round" stroke-width="0.1"/>
              <path id="Path_2263-3" data-name="Path 2263" d="M3881,1293.391s32.546-63.175,81.74-36.312,97.08,119.849,120.285,73.788" transform="translate(-3875.739 -1226.494)" fill="none" stroke="#ffa5a5" stroke-linecap="round" stroke-width="0.1"/>
            </g>
            <g id="Group_2223" data-name="Group 2223" transform="translate(3964.207 1333.096) rotate(90)">
              <path id="Path_2259-4" data-name="Path 2259" d="M3881,1286.57s32.546-53.144,81.74-30.546,97.08,100.818,120.285,62.072" transform="translate(-3875.739 -1226.493)" fill="none" stroke="#ffa5a5" stroke-linecap="round" stroke-width="0.1"/>
              <path id="Path_2264-4" data-name="Path 2264" d="M0,36.142S32.177-17,80.811,5.6s95.974,100.818,118.914,62.071" transform="matrix(0.985, -0.174, 0.174, 0.985, 0, 34.682)" fill="none" stroke="#ffa5a5" stroke-linecap="round" stroke-width="0.1"/>
              <path id="Path_2260-4" data-name="Path 2260" d="M3881,1288.275s32.546-55.652,81.74-31.988,97.08,105.576,120.285,65" transform="translate(-3875.739 -1226.494)" fill="none" stroke="#ffa5a5" stroke-linecap="round" stroke-width="0.1"/>
              <path id="Path_2261-4" data-name="Path 2261" d="M3881,1289.98s32.546-58.159,81.74-33.429,97.08,110.333,120.285,67.93" transform="translate(-3875.739 -1226.494)" fill="none" stroke="#ffa5a5" stroke-linecap="round" stroke-width="0.1"/>
              <path id="Path_2262-4" data-name="Path 2262" d="M3881,1291.686s32.546-60.667,81.74-34.87,97.08,115.091,120.285,70.858" transform="translate(-3875.739 -1226.494)" fill="none" stroke="#ffa5a5" stroke-linecap="round" stroke-width="0.1"/>
              <path id="Path_2263-4" data-name="Path 2263" d="M3881,1293.391s32.546-63.175,81.74-36.312,97.08,119.849,120.285,73.788" transform="translate(-3875.739 -1226.494)" fill="none" stroke="#ffa5a5" stroke-linecap="round" stroke-width="0.1"/>
            </g>
            <g id="Group_2224" data-name="Group 2224" transform="matrix(-0.602, 0.799, -0.799, -0.602, 3989.705, 1370.468)">
              <path id="Path_2259-5" data-name="Path 2259" d="M3881,1286.57s32.546-53.144,81.74-30.546,97.08,100.818,120.285,62.072" transform="translate(-3875.739 -1226.493)" fill="none" stroke="#ffa5a5" stroke-linecap="round" stroke-width="0.1"/>
              <path id="Path_2264-5" data-name="Path 2264" d="M0,36.142S32.177-17,80.811,5.6s95.974,100.818,118.914,62.071" transform="matrix(0.985, -0.174, 0.174, 0.985, 0, 34.682)" fill="none" stroke="#ffa5a5" stroke-linecap="round" stroke-width="0.1"/>
              <path id="Path_2260-5" data-name="Path 2260" d="M3881,1288.275s32.546-55.652,81.74-31.988,97.08,105.576,120.285,65" transform="translate(-3875.739 -1226.494)" fill="none" stroke="#ffa5a5" stroke-linecap="round" stroke-width="0.1"/>
              <path id="Path_2261-5" data-name="Path 2261" d="M3881,1289.98s32.546-58.159,81.74-33.429,97.08,110.333,120.285,67.93" transform="translate(-3875.739 -1226.494)" fill="none" stroke="#ffa5a5" stroke-linecap="round" stroke-width="0.1"/>
              <path id="Path_2262-5" data-name="Path 2262" d="M3881,1291.686s32.546-60.667,81.74-34.87,97.08,115.091,120.285,70.858" transform="translate(-3875.739 -1226.494)" fill="none" stroke="#ffa5a5" stroke-linecap="round" stroke-width="0.1"/>
              <path id="Path_2263-5" data-name="Path 2263" d="M3881,1293.391s32.546-63.175,81.74-36.312,97.08,119.849,120.285,73.788" transform="translate(-3875.739 -1226.494)" fill="none" stroke="#ffa5a5" stroke-linecap="round" stroke-width="0.1"/>
            </g>
            <g id="Group_1936" data-name="Group 1936" transform="translate(3934.324 1362.351)">
              <path id="Path_764" data-name="Path 764" d="M502.769,182.016a51.553,51.553,0,1,1-51.553,51.553,51.555,51.555,0,0,1,51.553-51.553" transform="translate(-451.216 -182.016)" fill="#fff" fill-rule="evenodd"/>
              <path id="Path_765" data-name="Path 765" d="M547.908,265.652a19.951,19.951,0,0,1-4.685,4.447,8.555,8.555,0,0,1-8.167.918c-3.4-1.354-7.487-5.051-8.132-8.8s2.146-7.551.189-5.851-8.66,8.9-11.895,12.341-3,3.124-1.635,1.878,3.858-3.421,5.477-5.019a41.63,41.63,0,0,0,3.115-3.506,6.532,6.532,0,0,0,1.846-3.126,6.37,6.37,0,0,0-1.156-5.3c-1.348-1.57-3.913-2.479-6.986.512s-6.649,9.875-10.719,13.7a16.442,16.442,0,0,1-23.112-.984A22.012,22.012,0,0,1,476,252.877a23.078,23.078,0,0,1,5.47-15.124c3.143-3.4,6.948-4.1,11.312-3.837s9.285,1.474,13.237,1.159,6.938-2.161,8.195-4.686a7.2,7.2,0,0,0-1-7.77c-1.793-2.04-4.915-2.918-8.45-3s-7.484.617-12.655,1.685-11.564,2.5-17.349,1.96-11.991-3.61-17.169-6.128" transform="translate(-451.879 -187.807)" fill="none" stroke="#e04e4e" stroke-linecap="round" stroke-miterlimit="22.926" stroke-width="1"/>
            </g>
            <path id="Path_2409" data-name="Path 2409" d="M6789.176,15441.4s-4.937-15.154-.64-57.444,57.176-45.45,93.079-3.713c12.895,14.99,7.073,26.057,7.12,61.157" transform="translate(-2853 -14134)" fill="none" stroke="#e04e4e" stroke-linecap="round" stroke-width="4"/>
          </g>
        </g>
      </g>
    </g>
  </g>
</svg>
