<svg xmlns="http://www.w3.org/2000/svg" width="30.692" height="41.11" viewBox="0 0 30.692 41.11">
  <g id="Group_1317" data-name="Group 1317" transform="translate(-1661.515 -797.74)">
    <g id="Group_1313" data-name="Group 1313" transform="translate(1663.015 798.178)">
      <path id="Path_1944" data-name="Path 1944" d="M4150.5,8593.834s17.789,1.737,17.693,10.358-8.681,6.678-10.757,4.508-2.41-6.074,0-8.214,1.372,9.383,5.023,6.946,15.606-13.6,15.606-13.6" transform="translate(-4149.966 -8576.056)" fill="none" stroke="#c4c4c4" stroke-width="0.2"/>
      <path id="Path_1950" data-name="Path 1950" d="M4150.5,8593.834s17.789,1.737,17.693,10.358-8.681,6.678-10.757,4.508-2.41-6.074,0-8.214,1.372,9.383,5.023,6.946,15.606-13.6,15.606-13.6" transform="translate(-4149.966 -8576.507)" fill="none" stroke="#c4c4c4" stroke-width="0.2"/>
      <path id="Path_1945" data-name="Path 1945" d="M4150.5,8593.834s17.789,1.737,17.693,10.358-8.681,6.678-10.757,4.508-2.41-6.074,0-8.214,1.372,9.383,5.023,6.946,15.606-13.6,15.606-13.6" transform="translate(-4149.966 -8575.604)" fill="none" stroke="#c4c4c4" stroke-width="0.2"/>
      <path id="Path_1946" data-name="Path 1946" d="M4150.5,8593.834s17.789,1.737,17.693,10.358-8.681,6.678-10.757,4.508-2.41-6.074,0-8.214,1.372,9.383,5.023,6.946,15.606-13.6,15.606-13.6" transform="translate(-4149.966 -8575.152)" fill="none" stroke="#c4c4c4" stroke-width="0.2"/>
      <path id="Path_1947" data-name="Path 1947" d="M4150.5,8593.834s17.789,1.737,17.693,10.358-8.681,6.678-10.757,4.508-2.41-6.074,0-8.214,1.372,9.383,5.023,6.946,15.606-13.6,15.606-13.6" transform="translate(-4149.966 -8574.701)" fill="none" stroke="#c4c4c4" stroke-width="0.2"/>
      <path id="Path_1948" data-name="Path 1948" d="M4150.5,8593.834s17.789,1.737,17.693,10.358-8.681,6.678-10.757,4.508-2.41-6.074,0-8.214,1.372,9.383,5.023,6.946,15.606-13.6,15.606-13.6" transform="translate(-4149.966 -8574.249)" fill="none" stroke="#c4c4c4" stroke-width="0.2"/>
      <path id="Path_2040" data-name="Path 2040" d="M4179.725,8556.673c-1.66-11.953-5.866-11.8-10.218-11.333-6.719.719-6.786,9.172-6.719,11.048.006.162.016.285.016.285" transform="translate(-4156.059 -8542.637)" fill="none" stroke="#5c1616" stroke-linecap="round" stroke-width="1"/>
      <path id="Path_1957" data-name="Path 1957" d="M4153.549,8586.87l1.857-.7,1.526.7,1.6-.7,1.338.7,1.406-.7,1.622.7,1.525-.7,1.289.7" transform="translate(-4151.755 -8572.481)" fill="none" stroke="#ff8d8d" stroke-linecap="round" stroke-linejoin="bevel" stroke-width="1" stroke-dasharray="4"/>
      <path id="Path_1956" data-name="Path 1956" d="M4153.549,8586.87l1.857-.7,1.526.7,1.6-.7,1.338.7,1.406-.7,1.622.7,1.525-.7,1.289.7" transform="translate(-4139.715 -8572.481)" fill="none" stroke="#ff8d8d" stroke-linecap="round" stroke-linejoin="bevel" stroke-width="1" stroke-dasharray="4"/>
      <path id="Path_1954" data-name="Path 1954" d="M4179.725,8560.63c-1.66-16.071-5.866-15.863-10.218-15.237-6.719.966-6.786,12.332-6.719,14.854.006.219.016.384.016.384" transform="translate(-4157.414 -8545.188)" fill="none" stroke="#c00" stroke-linecap="round" stroke-width="1"/>
      <line id="Line_1267" data-name="Line 1267" y2="24.532" transform="translate(0 14.64)" fill="none" stroke="#fff" stroke-linecap="round" stroke-width="3"/>
      <line id="Line_1268" data-name="Line 1268" y2="24.532" transform="translate(27.692 14.64)" fill="none" stroke="#fff" stroke-linecap="round" stroke-width="3"/>
      <line id="Line_1269" data-name="Line 1269" x2="27.692" transform="translate(0 39.171)" fill="none" stroke="#fff" stroke-linecap="round" stroke-width="3"/>
    </g>
  </g>
</svg>
