<svg xmlns="http://www.w3.org/2000/svg" width="20.543" height="23.967" viewBox="0 0 20.543 23.967">
  <path id="Icon_metro-language" data-name="Icon metro-language" d="M13.517,16.621q-.013.04-.167-.007t-.421-.154l-.267-.12a8.014,8.014,0,0,1-1.164-.655q-.094-.067-.548-.421t-.508-.381A22.785,22.785,0,0,1,8.648,17.3a9.942,9.942,0,0,1-1.4,1.471,1.06,1.06,0,0,1-.261.054.515.515,0,0,1-.247,0q.08-.054,1.1-1.23.281-.321,1.144-1.538a18.7,18.7,0,0,0,1.05-1.578q.227-.4.682-1.317a10.425,10.425,0,0,0,.481-1.037,10.99,10.99,0,0,0-1.471.441q-.107.027-.368.1t-.461.127a2.291,2.291,0,0,0-.227.067.227.227,0,0,0-.027.14.3.3,0,0,1-.013.127q-.067.134-.415.2a1.078,1.078,0,0,1-.629,0A.564.564,0,0,1,7.2,13.05a.68.68,0,0,1-.067-.308,2.585,2.585,0,0,1,.328-.067,3.993,3.993,0,0,0,.395-.08q.776-.214,1.4-.428Q10.6,11.7,10.628,11.7a2.967,2.967,0,0,0,.575-.261,6.049,6.049,0,0,1,.588-.288q.12-.04.288-.107t.194-.074a.179.179,0,0,1,.08.007,1.522,1.522,0,0,1-.013.441,2.848,2.848,0,0,1-.167.361q-.167.334-.354.716t-.227.448a20.059,20.059,0,0,1-1.03,1.752l.856.374q.16.08,1,.428l.9.374q.054.013.14.341a1.013,1.013,0,0,1,.06.408Zm-2.742-6.5a.542.542,0,0,1-.054.374,1.212,1.212,0,0,1-.669.508,2.147,2.147,0,0,1-.8.16,1.107,1.107,0,0,1-.655-.348,1.006,1.006,0,0,1-.241-.548l.013-.04a.572.572,0,0,0,.261.067,1.163,1.163,0,0,0,.354,0q.134-.027.776-.214a3.819,3.819,0,0,1,.736-.187.264.264,0,0,1,.281.227Zm9.335,1.725.843,3.036-1.859-.562ZM5.292,22.546l9.282-3.1V5.641L5.292,8.757V22.546Zm16.6-4.24,1.364.415L20.832,9.934,19.5,9.519l-2.889,7.169,1.364.415.6-1.471,2.822.869ZM15.162,5.44,22.825,7.9V2.819Zm4.159,17.694,2.113.174-.722,2.14-.535-.883a9.914,9.914,0,0,1-3.691,1.444,6.41,6.41,0,0,1-1.217.16H14.145a9.039,9.039,0,0,1-2.668-.522,8.881,8.881,0,0,1-2.454-1.137.279.279,0,0,1-.107-.214.259.259,0,0,1,.067-.181.224.224,0,0,1,.174-.074.753.753,0,0,1,.241.1l.408.221q.221.12.274.147a11.85,11.85,0,0,0,2.133.823,7.793,7.793,0,0,0,2.106.328,11.413,11.413,0,0,0,2.234-.194,11.023,11.023,0,0,0,2.1-.675q.2-.094.408-.207t.455-.254q.247-.14.381-.221ZM25.313,8.7V23.134l-10.352-3.29q-.187.08-5.015,1.705T5.024,23.174A.242.242,0,0,1,4.783,23a.1.1,0,0,0-.013-.04V8.543a.6.6,0,0,1,.053-.134.6.6,0,0,1,.268-.147q1.418-.468,1.993-.669V2.458l7.463,2.648q.027,0,2.147-.736t4.226-1.451q2.106-.716,2.16-.716.268,0,.268.281v5.59Z" transform="translate(-4.77 -2.203)"/>
</svg>
