<svg xmlns="http://www.w3.org/2000/svg" width="26.806" height="30.242" viewBox="0 0 26.806 30.242">
  <g id="Group_1615" data-name="Group 1615" transform="translate(-889.597 -987.879)">
    <path id="Icon_awesome-receipt" data-name="Icon awesome-receipt" d="M17.808.158,15.9,2.384,13.2.158a.79.79,0,0,0-.954,0L9.54,2.384,6.837.158a.79.79,0,0,0-.954,0L3.18,2.384,1.272.158A.8.8,0,0,0,0,.794v23.85a.8.8,0,0,0,1.272.636L3.18,23.055l2.7,2.226a.79.79,0,0,0,.954,0l2.7-2.226,2.7,2.226a.79.79,0,0,0,.954,0l2.7-2.226,1.908,2.226a.8.8,0,0,0,1.272-.636V.794A.8.8,0,0,0,17.808.158ZM15.9,17.887a.4.4,0,0,1-.4.4H3.578a.4.4,0,0,1-.4-.4v-.8a.4.4,0,0,1,.4-.4H15.5a.4.4,0,0,1,.4.4Zm0-4.77a.4.4,0,0,1-.4.4H3.578a.4.4,0,0,1-.4-.4v-.8a.4.4,0,0,1,.4-.4H15.5a.4.4,0,0,1,.4.4Zm0-4.77a.4.4,0,0,1-.4.4H3.578a.4.4,0,0,1-.4-.4v-.8a.4.4,0,0,1,.4-.4H15.5a.4.4,0,0,1,.4.4Z" transform="translate(893.231 990.577)" fill="none" stroke="#fff" stroke-width="1"/>
    <line id="Line_1644" data-name="Line 1644" x1="23" y2="27" transform="translate(891.5 989.5)" fill="none" stroke="#c00" stroke-width="5"/>
  </g>
</svg>
