<svg xmlns="http://www.w3.org/2000/svg" width="14.461" height="16.871" viewBox="0 0 14.461 16.871">
  <path id="Icon_metro-language" data-name="Icon metro-language" d="M10.927,12.353q-.009.028-.118,0t-.3-.108l-.188-.085a5.641,5.641,0,0,1-.819-.461q-.066-.047-.386-.3t-.358-.268a16.039,16.039,0,0,1-1.262,1.7,7,7,0,0,1-.989,1.036.746.746,0,0,1-.184.038.363.363,0,0,1-.174,0q.056-.038.772-.866.2-.226.8-1.083a13.163,13.163,0,0,0,.739-1.111q.16-.282.48-.927a7.338,7.338,0,0,0,.339-.73A7.736,7.736,0,0,0,8.253,9.5q-.075.019-.259.071L7.67,9.66a1.613,1.613,0,0,0-.16.047.16.16,0,0,0-.019.1.209.209,0,0,1-.009.089q-.047.094-.292.141a.759.759,0,0,1-.442,0,.4.4,0,0,1-.264-.2.479.479,0,0,1-.047-.217,1.82,1.82,0,0,1,.231-.047,2.811,2.811,0,0,0,.278-.056q.546-.151.989-.3.941-.33.96-.33A2.089,2.089,0,0,0,9.3,8.7a4.258,4.258,0,0,1,.414-.2q.085-.028.2-.075t.137-.052a.126.126,0,0,1,.057,0,1.071,1.071,0,0,1-.009.311,2,2,0,0,1-.118.254q-.118.235-.249.5t-.16.315A14.12,14.12,0,0,1,8.847,11l.6.264q.113.056.7.3l.635.264q.038.009.1.24a.713.713,0,0,1,.042.287ZM9,7.777a.382.382,0,0,1-.038.264.853.853,0,0,1-.471.358,1.511,1.511,0,0,1-.565.113.779.779,0,0,1-.461-.245.708.708,0,0,1-.169-.386L7.3,7.852a.4.4,0,0,0,.184.047.819.819,0,0,0,.249,0q.094-.019.546-.151A2.688,2.688,0,0,1,8.8,7.617a.186.186,0,0,1,.2.16Zm6.572,1.215.593,2.137-1.309-.4ZM5.137,16.524l6.534-2.184V4.623L5.137,6.817v9.707Zm11.684-2.985.96.292-1.7-6.186-.941-.292L13.1,12.4l.96.292.424-1.036,1.987.612ZM12.085,4.482,17.48,6.214V2.637Zm2.928,12.456,1.488.122-.508,1.506-.377-.621a6.979,6.979,0,0,1-2.6,1.017,4.512,4.512,0,0,1-.857.113H11.37a6.363,6.363,0,0,1-1.878-.367,6.252,6.252,0,0,1-1.728-.8.2.2,0,0,1-.075-.151.182.182,0,0,1,.047-.127.158.158,0,0,1,.122-.052.53.53,0,0,1,.169.071l.287.155.193.1a8.342,8.342,0,0,0,1.5.579,5.486,5.486,0,0,0,1.483.231,8.034,8.034,0,0,0,1.572-.137,7.76,7.76,0,0,0,1.478-.475q.141-.066.287-.146t.32-.179q.174-.1.268-.155ZM19.231,6.779V16.938l-7.287-2.316q-.132.056-3.531,1.2T4.949,16.966a.17.17,0,0,1-.169-.122.072.072,0,0,0-.009-.028V6.666a.42.42,0,0,1,.038-.094A.424.424,0,0,1,5,6.468q1-.33,1.4-.471V2.382l5.253,1.864q.019,0,1.511-.518t2.975-1.022q1.483-.5,1.521-.5.188,0,.188.2V6.337Z" transform="translate(-4.77 -2.203)" fill="#3964d9"/>
</svg>
