<svg xmlns="http://www.w3.org/2000/svg" width="16.924" height="16.924" viewBox="0 0 16.924 16.924">
  <path id="Icon_metro-warning" data-name="Icon metro-warning" d="M11.032,3.461,18.124,17.6H3.941L11.032,3.461Zm0-1.533a1.223,1.223,0,0,0-1.006.738L2.8,17.063c-.553.984-.083,1.789,1.046,1.789H18.216c1.129,0,1.6-.8,1.046-1.789h0l-7.223-14.4a1.223,1.223,0,0,0-1.006-.738Zm1.058,13.75a1.058,1.058,0,1,1-1.058-1.058A1.058,1.058,0,0,1,12.09,15.678Zm-1.058-2.115a1.058,1.058,0,0,1-1.058-1.058V9.332a1.058,1.058,0,0,1,2.115,0v3.173A1.058,1.058,0,0,1,11.032,13.563Z" transform="translate(-2.571 -1.928)" fill="#cc0813"/>
</svg>
