<svg xmlns="http://www.w3.org/2000/svg" width="2383.245" height="1614.472" viewBox="0 0 2383.245 1614.472">
  <g id="Group_1307" data-name="Group 1307" transform="translate(290.181 11.654)">
    <g id="Group_1306" data-name="Group 1306" transform="matrix(0.966, -0.259, 0.259, 0.966, -324.286, 422.336)">
      <path id="Path_1736" data-name="Path 1736" d="M8707.306,12578s-304.8,588.02-943.476,343.967-952.508,278.735-978.541,350.188-181.974,333.342-252.561,347.862" transform="translate(-6533 -12435)" fill="none" stroke="#cbcbcb" stroke-width="2"/>
      <path id="Path_1737" data-name="Path 1737" d="M8707.306,12578s-304.8,588.02-943.476,343.967-952.508,278.735-978.541,350.188-181.974,333.342-252.561,347.862" transform="translate(-6533 -12425)" fill="none" stroke="#cbcbcb" stroke-width="2"/>
      <path id="Path_1738" data-name="Path 1738" d="M8707.306,12578s-304.8,588.02-943.476,343.967-952.508,278.735-978.541,350.188-181.974,333.342-252.561,347.862" transform="translate(-6533 -12412)" fill="none" stroke="#cbcbcb" stroke-width="2"/>
      <path id="Path_1739" data-name="Path 1739" d="M8707.306,12578s-304.8,588.02-943.476,343.967-952.508,278.735-978.541,350.188-181.974,333.342-252.561,347.862" transform="translate(-6533 -12399)" fill="none" stroke="#cbcbcb" stroke-width="2"/>
      <path id="Path_1740" data-name="Path 1740" d="M8707.306,12578s-304.8,588.02-943.476,343.967-952.508,278.735-978.541,350.188-181.974,333.342-252.561,347.862" transform="translate(-6533 -12444)" fill="none" stroke="#cbcbcb" stroke-width="2"/>
      <path id="Path_1741" data-name="Path 1741" d="M8707.306,12578s-304.8,588.02-943.476,343.967-952.508,278.735-978.541,350.188-181.974,333.342-252.561,347.862" transform="translate(-6533 -12405)" fill="none" stroke="#cbcbcb" stroke-width="2"/>
    </g>
    <g id="Ellipse_190" data-name="Ellipse 190" transform="translate(1533 256)" fill="none" stroke="#5130fb" stroke-width="3">
      <ellipse cx="64" cy="109" rx="64" ry="109" stroke="none"/>
      <ellipse cx="64" cy="109" rx="62.5" ry="107.5" fill="none"/>
    </g>
    <g id="Ellipse_191" data-name="Ellipse 191" transform="translate(1540 256)" fill="none" stroke="#fd1689" stroke-width="3">
      <ellipse cx="64" cy="109" rx="64" ry="109" stroke="none"/>
      <ellipse cx="64" cy="109" rx="62.5" ry="107.5" fill="none"/>
    </g>
    <g id="Ellipse_192" data-name="Ellipse 192" transform="translate(1548 256)" fill="none" stroke="#159a2f" stroke-width="3">
      <ellipse cx="64" cy="109" rx="64" ry="109" stroke="none"/>
      <ellipse cx="64" cy="109" rx="62.5" ry="107.5" fill="none"/>
    </g>
    <g id="Ellipse_193" data-name="Ellipse 193" transform="translate(1556 256)" fill="none" stroke="#fff" stroke-width="3">
      <ellipse cx="64" cy="109" rx="64" ry="109" stroke="none"/>
      <ellipse cx="64" cy="109" rx="62.5" ry="107.5" fill="none"/>
    </g>
    <g id="Ellipse_194" data-name="Ellipse 194" transform="translate(1566 256)" fill="none" stroke="#fd9d27" stroke-width="3">
      <ellipse cx="64" cy="109" rx="64" ry="109" stroke="none"/>
      <ellipse cx="64" cy="109" rx="62.5" ry="107.5" fill="none"/>
    </g>
    <g id="Ellipse_195" data-name="Ellipse 195" transform="translate(1576 256)" fill="none" stroke="#1176cc" stroke-width="3">
      <ellipse cx="64" cy="109" rx="64" ry="109" stroke="none"/>
      <ellipse cx="64" cy="109" rx="62.5" ry="107.5" fill="none"/>
    </g>
  </g>
</svg>
