<svg xmlns="http://www.w3.org/2000/svg" width="249.02" height="246.192" viewBox="0 0 249.02 246.192">
  <g id="Group_1917" data-name="Group 1917" transform="translate(-820.969 -1567.655)">
    <g id="Icon_material-fiber-smart-record" data-name="Icon material-fiber-smart-record" transform="translate(1071.645 1681.643) rotate(137)" opacity="0.781">
      <path id="Path_2170" data-name="Path 2170" d="M147.926,79.213A73.213,73.213,0,1,1,74.713,6a73.213,73.213,0,0,1,73.213,73.213Z" transform="translate(0 0)" fill="none" stroke="#16a227" stroke-width="5" stroke-dasharray="3"/>
      <path id="Path_2171" data-name="Path 2171" d="M25.5,6.39V25.517a54.821,54.821,0,0,1,0,103.413v19.127A73.142,73.142,0,0,0,25.5,6.39Z" transform="translate(122.426 1.989)" fill="#16a227"/>
    </g>
    <path id="Icon_ionic-md-happy" data-name="Icon ionic-md-happy" d="M45.413,3.375A42.038,42.038,0,1,0,87.45,45.413,42.026,42.026,0,0,0,45.413,3.375Zm0,75.668a33.63,33.63,0,1,1,33.631-33.63A33.73,33.73,0,0,1,45.413,79.043ZM60.126,41.209A6.306,6.306,0,1,0,53.82,34.9,6.193,6.193,0,0,0,60.126,41.209Zm-29.426,0A6.306,6.306,0,1,0,24.394,34.9,6.193,6.193,0,0,0,30.7,41.209ZM45.413,68.533A22.9,22.9,0,0,0,66.852,53.82H23.973A22.9,22.9,0,0,0,45.413,68.533Z" transform="translate(915.55 1630)" fill="#48b656"/>
  </g>
</svg>
