<svg xmlns="http://www.w3.org/2000/svg" width="325.027" height="293.87" viewBox="0 0 325.027 293.87"><defs><style>.a,.b{fill:none;}.a{stroke:#761944;stroke-width:0.5px;}.b{stroke:#707070;}.c{fill:#7362d9;}.c,.d{font-size:36px;font-family:Lato-Regular, Lato;}.d{fill:#1188ef;}</style></defs><g transform="translate(-797.777 -4551.06)"><line class="a" y2="183.302" transform="matrix(0.809, -0.588, 0.588, 0.809, 817.799, 4696.488)"/><line class="a" y2="183.302" transform="matrix(0.809, -0.588, 0.588, 0.809, 861.962, 4664.402)"/><line class="a" y2="183.302" transform="matrix(0.809, -0.588, 0.588, 0.809, 906.125, 4632.316)"/><line class="a" y2="183.302" transform="matrix(0.809, -0.588, 0.588, 0.809, 950.287, 4600.23)"/><line class="a" y2="237.22" transform="matrix(-0.588, -0.809, 0.809, -0.588, 843.499, 4752.2)"/><line class="a" y2="237.22" transform="matrix(-0.588, -0.809, 0.809, -0.588, 875.585, 4796.363)"/><line class="a" y2="237.22" transform="matrix(-0.588, -0.809, 0.809, -0.588, 907.67, 4840.525)"/><line class="a" y2="183.302" transform="matrix(0.809, -0.588, 0.588, 0.809, 839.881, 4680.445)"/><line class="a" y2="183.302" transform="matrix(0.809, -0.588, 0.588, 0.809, 884.043, 4648.359)"/><line class="a" y2="183.302" transform="matrix(0.809, -0.588, 0.588, 0.809, 928.206, 4616.273)"/><line class="a" y2="183.302" transform="matrix(0.809, -0.588, 0.588, 0.809, 972.369, 4584.188)"/><line class="a" y2="237.22" transform="matrix(-0.588, -0.809, 0.809, -0.588, 827.456, 4730.12)"/><line class="a" y2="237.22" transform="matrix(-0.588, -0.809, 0.809, -0.588, 859.542, 4774.282)"/><line class="a" y2="237.22" transform="matrix(-0.588, -0.809, 0.809, -0.588, 891.627, 4818.444)"/><line class="a" y2="183.302" transform="matrix(0.809, -0.588, 0.588, 0.809, 825.204, 4691.108)"/><line class="a" y2="183.302" transform="matrix(0.809, -0.588, 0.588, 0.809, 869.367, 4659.022)"/><line class="a" y2="183.302" transform="matrix(0.809, -0.588, 0.588, 0.809, 913.53, 4626.937)"/><line class="a" y2="183.302" transform="matrix(0.809, -0.588, 0.588, 0.809, 957.692, 4594.85)"/><line class="a" y2="237.22" transform="matrix(-0.588, -0.809, 0.809, -0.588, 838.119, 4744.796)"/><line class="a" y2="237.22" transform="matrix(-0.588, -0.809, 0.809, -0.588, 870.205, 4788.958)"/><line class="a" y2="237.22" transform="matrix(-0.588, -0.809, 0.809, -0.588, 902.29, 4833.12)"/><line class="a" y2="183.302" transform="matrix(0.809, -0.588, 0.588, 0.809, 847.286, 4675.065)"/><line class="a" y2="183.302" transform="matrix(0.809, -0.588, 0.588, 0.809, 891.448, 4642.979)"/><line class="a" y2="183.302" transform="matrix(0.809, -0.588, 0.588, 0.809, 935.611, 4610.893)"/><line class="a" y2="183.302" transform="matrix(0.809, -0.588, 0.588, 0.809, 979.774, 4578.807)"/><line class="a" y2="237.22" transform="matrix(-0.588, -0.809, 0.809, -0.588, 822.076, 4722.715)"/><line class="a" y2="237.22" transform="matrix(-0.588, -0.809, 0.809, -0.588, 854.162, 4766.877)"/><line class="a" y2="237.22" transform="matrix(-0.588, -0.809, 0.809, -0.588, 886.247, 4811.039)"/><line class="a" y2="183.302" transform="matrix(0.809, -0.588, 0.588, 0.809, 832.865, 4685.542)"/><line class="a" y2="183.302" transform="matrix(0.809, -0.588, 0.588, 0.809, 877.027, 4653.457)"/><line class="a" y2="183.302" transform="matrix(0.809, -0.588, 0.588, 0.809, 921.19, 4621.371)"/><line class="a" y2="183.302" transform="matrix(0.809, -0.588, 0.588, 0.809, 965.353, 4589.285)"/><line class="a" y2="237.22" transform="matrix(-0.588, -0.809, 0.809, -0.588, 832.553, 4737.136)"/><line class="a" y2="237.22" transform="matrix(-0.588, -0.809, 0.809, -0.588, 864.639, 4781.298)"/><line class="a" y2="237.22" transform="matrix(-0.588, -0.809, 0.809, -0.588, 896.725, 4825.46)"/><line class="a" y2="183.302" transform="matrix(0.809, -0.588, 0.588, 0.809, 854.946, 4669.5)"/><line class="a" y2="183.302" transform="matrix(0.809, -0.588, 0.588, 0.809, 899.109, 4637.414)"/><line class="a" y2="183.302" transform="matrix(0.809, -0.588, 0.588, 0.809, 943.271, 4605.328)"/><line class="a" y2="183.302" transform="matrix(0.809, -0.588, 0.588, 0.809, 987.434, 4573.242)"/><line class="a" y2="237.22" transform="matrix(-0.588, -0.809, 0.809, -0.588, 816.511, 4715.056)"/><line class="a" y2="237.22" transform="matrix(-0.588, -0.809, 0.809, -0.588, 848.596, 4759.216)"/><line class="a" y2="237.22" transform="matrix(-0.588, -0.809, 0.809, -0.588, 880.682, 4803.379)"/><line class="a" y2="183.302" transform="matrix(0.809, -0.588, 0.588, 0.809, 820.182, 4694.757)"/><line class="a" y2="183.302" transform="matrix(0.809, -0.588, 0.588, 0.809, 864.345, 4662.671)"/><line class="a" y2="183.302" transform="matrix(0.809, -0.588, 0.588, 0.809, 908.508, 4630.584)"/><line class="a" y2="183.302" transform="matrix(0.809, -0.588, 0.588, 0.809, 952.67, 4598.499)"/><line class="a" y2="237.22" transform="matrix(-0.588, -0.809, 0.809, -0.588, 841.767, 4749.817)"/><line class="a" y2="237.22" transform="matrix(-0.588, -0.809, 0.809, -0.588, 873.853, 4793.98)"/><line class="a" y2="237.22" transform="matrix(-0.588, -0.809, 0.809, -0.588, 905.938, 4838.142)"/><line class="a" y2="183.302" transform="matrix(0.809, -0.588, 0.588, 0.809, 842.264, 4678.714)"/><line class="a" y2="183.302" transform="matrix(0.809, -0.588, 0.588, 0.809, 886.427, 4646.628)"/><line class="a" y2="183.302" transform="matrix(0.809, -0.588, 0.588, 0.809, 930.589, 4614.542)"/><line class="a" y2="183.302" transform="matrix(0.809, -0.588, 0.588, 0.809, 974.752, 4582.456)"/><line class="a" y2="237.22" transform="matrix(-0.588, -0.809, 0.809, -0.588, 825.724, 4727.736)"/><line class="a" y2="237.22" transform="matrix(-0.588, -0.809, 0.809, -0.588, 857.81, 4771.899)"/><line class="a" y2="237.22" transform="matrix(-0.588, -0.809, 0.809, -0.588, 889.896, 4816.06)"/><line class="a" y2="183.302" transform="matrix(0.809, -0.588, 0.588, 0.809, 827.587, 4689.377)"/><line class="a" y2="183.302" transform="matrix(0.809, -0.588, 0.588, 0.809, 871.75, 4657.291)"/><line class="a" y2="183.302" transform="matrix(0.809, -0.588, 0.588, 0.809, 915.913, 4625.205)"/><line class="a" y2="183.302" transform="matrix(0.809, -0.588, 0.588, 0.809, 960.075, 4593.119)"/><line class="a" y2="237.22" transform="matrix(-0.588, -0.809, 0.809, -0.588, 836.388, 4742.413)"/><line class="a" y2="237.22" transform="matrix(-0.588, -0.809, 0.809, -0.588, 868.473, 4786.574)"/><line class="a" y2="237.22" transform="matrix(-0.588, -0.809, 0.809, -0.588, 900.559, 4830.737)"/><line class="a" y2="183.302" transform="matrix(0.809, -0.588, 0.588, 0.809, 849.669, 4673.334)"/><line class="a" y2="183.302" transform="matrix(0.809, -0.588, 0.588, 0.809, 893.831, 4641.248)"/><line class="a" y2="183.302" transform="matrix(0.809, -0.588, 0.588, 0.809, 937.994, 4609.162)"/><line class="a" y2="183.302" transform="matrix(0.809, -0.588, 0.588, 0.809, 982.156, 4577.076)"/><line class="a" y2="237.22" transform="matrix(-0.588, -0.809, 0.809, -0.588, 820.345, 4720.332)"/><line class="a" y2="237.22" transform="matrix(-0.588, -0.809, 0.809, -0.588, 852.43, 4764.493)"/><line class="a" y2="237.22" transform="matrix(-0.588, -0.809, 0.809, -0.588, 884.516, 4808.656)"/><line class="a" y2="183.302" transform="matrix(0.809, -0.588, 0.588, 0.809, 835.248, 4683.812)"/><line class="a" y2="183.302" transform="matrix(0.809, -0.588, 0.588, 0.809, 879.41, 4651.725)"/><line class="a" y2="183.302" transform="matrix(0.809, -0.588, 0.588, 0.809, 923.573, 4619.64)"/><line class="a" y2="183.302" transform="matrix(0.809, -0.588, 0.588, 0.809, 967.736, 4587.553)"/><line class="a" y2="237.22" transform="matrix(-0.588, -0.809, 0.809, -0.588, 830.823, 4734.753)"/><line class="a" y2="237.22" transform="matrix(-0.588, -0.809, 0.809, -0.588, 862.908, 4778.915)"/><line class="a" y2="237.22" transform="matrix(-0.588, -0.809, 0.809, -0.588, 894.994, 4823.077)"/><line class="a" y2="183.302" transform="matrix(0.809, -0.588, 0.588, 0.809, 857.329, 4667.769)"/><line class="a" y2="183.302" transform="matrix(0.809, -0.588, 0.588, 0.809, 901.492, 4635.682)"/><line class="a" y2="183.302" transform="matrix(0.809, -0.588, 0.588, 0.809, 945.654, 4603.596)"/><line class="a" y2="183.302" transform="matrix(0.809, -0.588, 0.588, 0.809, 989.817, 4571.51)"/><line class="a" y2="237.22" transform="matrix(-0.588, -0.809, 0.809, -0.588, 814.779, 4712.672)"/><line class="a" y2="237.22" transform="matrix(-0.588, -0.809, 0.809, -0.588, 846.865, 4756.833)"/><line class="a" y2="237.22" transform="matrix(-0.588, -0.809, 0.809, -0.588, 878.951, 4800.996)"/><line class="a" y2="181.352" transform="matrix(0.809, -0.588, 0.588, 0.809, 822.821, 4692.84)"/><line class="a" y2="181.352" transform="matrix(0.809, -0.588, 0.588, 0.809, 866.984, 4660.754)"/><line class="a" y2="181.352" transform="matrix(0.809, -0.588, 0.588, 0.809, 911.146, 4628.667)"/><line class="a" y2="181.352" transform="matrix(0.809, -0.588, 0.588, 0.809, 955.309, 4596.582)"/><line class="a" y2="235.271" transform="matrix(-0.588, -0.809, 0.809, -0.588, 839.851, 4747.179)"/><line class="a" y2="235.271" transform="matrix(-0.588, -0.809, 0.809, -0.588, 871.937, 4791.342)"/><line class="a" y2="235.271" transform="matrix(-0.588, -0.809, 0.809, -0.588, 904.022, 4835.503)"/><line class="a" y2="181.352" transform="matrix(0.809, -0.588, 0.588, 0.809, 844.902, 4676.797)"/><line class="a" y2="181.352" transform="matrix(0.809, -0.588, 0.588, 0.809, 889.065, 4644.711)"/><line class="a" y2="181.352" transform="matrix(0.809, -0.588, 0.588, 0.809, 933.228, 4612.625)"/><line class="a" y2="181.352" transform="matrix(0.809, -0.588, 0.588, 0.809, 977.39, 4580.539)"/><line class="a" y2="235.271" transform="matrix(-0.588, -0.809, 0.809, -0.588, 823.808, 4725.098)"/><line class="a" y2="235.271" transform="matrix(-0.588, -0.809, 0.809, -0.588, 855.894, 4769.261)"/><line class="a" y2="235.271" transform="matrix(-0.588, -0.809, 0.809, -0.588, 887.979, 4813.422)"/><line class="a" y2="181.352" transform="matrix(0.809, -0.588, 0.588, 0.809, 830.226, 4687.46)"/><line class="a" y2="181.352" transform="matrix(0.809, -0.588, 0.588, 0.809, 874.388, 4655.374)"/><line class="a" y2="181.352" transform="matrix(0.809, -0.588, 0.588, 0.809, 918.551, 4623.288)"/><line class="a" y2="181.352" transform="matrix(0.809, -0.588, 0.588, 0.809, 962.714, 4591.202)"/><line class="a" y2="235.271" transform="matrix(-0.588, -0.809, 0.809, -0.588, 834.471, 4739.774)"/><line class="a" y2="235.271" transform="matrix(-0.588, -0.809, 0.809, -0.588, 866.556, 4783.936)"/><line class="a" y2="235.271" transform="matrix(-0.588, -0.809, 0.809, -0.588, 898.642, 4828.099)"/><line class="a" y2="181.352" transform="matrix(0.809, -0.588, 0.588, 0.809, 852.307, 4671.417)"/><line class="a" y2="181.352" transform="matrix(0.809, -0.588, 0.588, 0.809, 896.47, 4639.331)"/><line class="a" y2="181.352" transform="matrix(0.809, -0.588, 0.588, 0.809, 940.632, 4607.245)"/><line class="a" y2="181.352" transform="matrix(0.809, -0.588, 0.588, 0.809, 984.795, 4575.159)"/><line class="a" y2="235.271" transform="matrix(-0.588, -0.809, 0.809, -0.588, 818.428, 4717.694)"/><line class="a" y2="235.271" transform="matrix(-0.588, -0.809, 0.809, -0.588, 850.513, 4761.855)"/><line class="a" y2="235.271" transform="matrix(-0.588, -0.809, 0.809, -0.588, 882.599, 4806.018)"/><line class="a" y2="181.352" transform="matrix(0.809, -0.588, 0.588, 0.809, 837.886, 4681.895)"/><line class="a" y2="181.352" transform="matrix(0.809, -0.588, 0.588, 0.809, 882.049, 4649.809)"/><line class="a" y2="181.352" transform="matrix(0.809, -0.588, 0.588, 0.809, 926.211, 4617.722)"/><line class="a" y2="181.352" transform="matrix(0.809, -0.588, 0.588, 0.809, 970.374, 4585.637)"/><line class="a" y2="235.271" transform="matrix(-0.588, -0.809, 0.809, -0.588, 828.906, 4732.115)"/><line class="a" y2="235.271" transform="matrix(-0.588, -0.809, 0.809, -0.588, 860.991, 4776.276)"/><line class="a" y2="235.271" transform="matrix(-0.588, -0.809, 0.809, -0.588, 893.076, 4820.438)"/><line class="a" y2="181.352" transform="matrix(0.809, -0.588, 0.588, 0.809, 859.968, 4665.851)"/><line class="a" y2="181.352" transform="matrix(0.809, -0.588, 0.588, 0.809, 904.13, 4633.766)"/><line class="a" y2="181.352" transform="matrix(0.809, -0.588, 0.588, 0.809, 948.293, 4601.679)"/><line class="a" y2="181.352" transform="matrix(0.809, -0.588, 0.588, 0.809, 992.455, 4569.593)"/><line class="a" y2="235.271" transform="matrix(-0.588, -0.809, 0.809, -0.588, 812.862, 4710.033)"/><line class="a" y2="235.271" transform="matrix(-0.588, -0.809, 0.809, -0.588, 844.948, 4754.195)"/><line class="a" y2="235.271" transform="matrix(-0.588, -0.809, 0.809, -0.588, 877.034, 4798.357)"/><line class="b" x2="94" transform="matrix(0.809, -0.588, 0.588, 0.809, 798.071, 4690.181)"/><line class="b" y1="67.051" transform="matrix(0.809, -0.588, 0.588, 0.809, 1082.989, 4645.102)"/><line class="b" x2="94" transform="matrix(0.809, -0.588, 0.588, 0.809, 912.952, 4606.716)"/><line class="b" y1="66.302" transform="matrix(0.809, -0.588, 0.588, 0.809, 1015.804, 4552.63)"/><text class="c" transform="matrix(0.809, -0.588, 0.588, 0.809, 886.953, 4626.223)"><tspan x="0" y="0">L</tspan></text><text class="d" transform="matrix(0.809, -0.588, 0.588, 0.809, 1072.367, 4639.84)"><tspan x="0" y="0">W</tspan></text></g></svg>