<svg xmlns="http://www.w3.org/2000/svg" xmlns:xlink="http://www.w3.org/1999/xlink" width="1271.697" height="1428.906" viewBox="0 0 1271.697 1428.906">
  <defs>
    <filter id="Path_2317" x="0" y="0" width="1271.697" height="637.908" filterUnits="userSpaceOnUse">
      <feOffset dx="-18" dy="-16" input="SourceAlpha"/>
      <feGaussianBlur stdDeviation="20.5" result="blur"/>
      <feFlood flood-opacity="0.161"/>
      <feComposite operator="in" in2="blur"/>
      <feComposite in="SourceGraphic"/>
    </filter>
    <filter id="Rectangle_1406" x="141.268" y="344.406" width="1038" height="749" filterUnits="userSpaceOnUse">
      <feOffset dy="3" input="SourceAlpha"/>
      <feGaussianBlur stdDeviation="15" result="blur-2"/>
      <feFlood flood-opacity="0.161"/>
      <feComposite operator="in" in2="blur-2"/>
      <feComposite in="SourceGraphic"/>
    </filter>
    <filter id="Path_2316" x="26.371" y="544.906" width="1212.397" height="875" filterUnits="userSpaceOnUse">
      <feOffset dx="-19" dy="-13" input="SourceAlpha"/>
      <feGaussianBlur stdDeviation="10.5" result="blur-3"/>
      <feFlood flood-opacity="0.161"/>
      <feComposite operator="in" in2="blur-3"/>
      <feComposite in="SourceGraphic"/>
    </filter>
    <filter id="Path_764" x="595.468" y="413.406" width="149.419" height="149.42" filterUnits="userSpaceOnUse">
      <feOffset dy="3" input="SourceAlpha"/>
      <feGaussianBlur stdDeviation="3" result="blur-4"/>
      <feFlood flood-opacity="0.161"/>
      <feComposite operator="in" in2="blur-4"/>
      <feComposite in="SourceGraphic"/>
    </filter>
    <filter id="Polygon_72" x="56.768" y="936.906" width="1188" height="492" filterUnits="userSpaceOnUse">
      <feOffset dx="-1" dy="8" input="SourceAlpha"/>
      <feGaussianBlur stdDeviation="6.5" result="blur-5"/>
      <feFlood flood-opacity="0.161"/>
      <feComposite operator="in" in2="blur-5"/>
      <feComposite in="SourceGraphic"/>
    </filter>
  </defs>
  <g id="Group_2254" data-name="Group 2254" transform="translate(-319.732 -304.594)">
    <g transform="matrix(1, 0, 0, 1, 319.73, 304.59)" filter="url(#Path_2317)">
      <path id="Path_2317-2" data-name="Path 2317" d="M-1897.455-16994.475l574.7-514.908h0l574,514.908Z" transform="translate(1976.95 17586.88)" fill="#e2d276"/>
    </g>
    <g transform="matrix(1, 0, 0, 1, 319.73, 304.59)" filter="url(#Rectangle_1406)">
      <rect id="Rectangle_1406-2" data-name="Rectangle 1406" width="948" height="659" transform="translate(186.27 386.41)" fill="#fff"/>
    </g>
    <g id="Group_2039" data-name="Group 2039" transform="translate(35 -23)">
      <path id="Path_2318" data-name="Path 2318" d="M-1815-17394s92.938,275.391,309.545,174.5,303.968-147.252,388.23-115.35-79.214,205.969,62.548,147.818,179.285-125.49,183.595,16.33c3.267,45.646,3.558,38.291,3.558,38.291" transform="translate(2286 18108)" fill="none" stroke="#cbc394" stroke-width="1"/>
      <path id="Path_2319" data-name="Path 2319" d="M-1815-17394s92.938,275.391,309.545,174.5,303.968-147.252,388.23-115.35-79.214,205.969,62.548,147.818,179.285-125.49,183.595,16.33c3.267,45.646,3.558,38.291,3.558,38.291" transform="translate(2286 18111)" fill="none" stroke="#cbc394" stroke-width="1"/>
      <path id="Path_2320" data-name="Path 2320" d="M-1815-17394s92.938,275.391,309.545,174.5,303.968-147.252,388.23-115.35-79.214,205.969,62.548,147.818,179.285-125.49,183.595,16.33c3.267,45.646,3.558,38.291,3.558,38.291" transform="translate(2286 18114)" fill="none" stroke="#cbc394" stroke-width="1"/>
      <path id="Path_2321" data-name="Path 2321" d="M-1815-17394s92.938,275.391,309.545,174.5,303.968-147.252,388.23-115.35-79.214,205.969,62.548,147.818,179.285-125.49,183.595,16.33c3.267,45.646,3.558,38.291,3.558,38.291" transform="translate(2286 18117)" fill="none" stroke="#cbc394" stroke-width="1"/>
      <path id="Path_2322" data-name="Path 2322" d="M-1815-17394s92.938,276.443,309.545,175.17,303.968-147.812,388.23-115.789-79.214,206.756,62.548,148.383,179.285-125.969,183.595,16.393c3.267,45.82,3.558,38.438,3.558,38.438" transform="translate(2286 18119)" fill="none" stroke="#cbc394" stroke-width="1"/>
      <path id="Path_2323" data-name="Path 2323" d="M-1815-17394s92.938,277.494,309.545,175.836,303.968-148.375,388.23-116.229-79.214,207.541,62.548,148.945,179.285-126.447,183.595,16.455c3.267,46,3.558,38.584,3.558,38.584" transform="translate(2286 18121)" fill="none" stroke="#cbc394" stroke-width="1"/>
    </g>
    <g transform="matrix(1, 0, 0, 1, 319.73, 304.59)" filter="url(#Path_2316)">
      <g id="Path_2316-2" data-name="Path 2316" transform="translate(115.27 589.41)" fill="#fff">
        <path d="M 1110.800048828125 811.7999877929688 L 39.77657318115234 811.7999877929688 L -38.19598007202148 811.7999877929688 L -34.6767692565918 2.594400882720947 L 305.182861328125 400.7782897949219 L 305.242431640625 400.8479919433594 L 305.3341369628906 400.8484191894531 L 806.6212768554688 402.9031372070312 L 806.721435546875 402.903564453125 L 806.78173828125 402.8236999511719 L 1110.800048828125 0.5962976813316345 L 1110.800048828125 811.7999877929688 Z" stroke="none"/>
        <path d="M 1110.599975585938 1.19256591796875 L 806.941162109375 402.9442749023438 L 806.8204345703125 403.10400390625 L 806.6204223632812 403.1031494140625 L 305.3334350585938 401.0484313964844 L 305.1498413085938 401.0477294921875 L 305.0307006835938 400.9081420898438 L -34.479248046875 3.13409423828125 L -37.9951171875 811.5999755859375 L 39.776611328125 811.5999755859375 L 1110.599975585938 811.5999755859375 L 1110.599975585938 1.19256591796875 M 1111 0 L 1111 812 L 39.776611328125 812 L -38.3968505859375 812 L -34.87451171875 2.0546875 L 305.3350219726562 400.6484375 L 806.6220092773438 402.7031555175781 L 1111 0 Z" stroke="none" fill="#c7c7c7"/>
      </g>
    </g>
    <g id="Group_2038" data-name="Group 2038" transform="translate(876.201 710)">
      <g transform="matrix(1, 0, 0, 1, -556.47, -405.41)" filter="url(#Path_764)">
        <path id="Path_764-2" data-name="Path 764" d="M516.925,182.016a65.71,65.71,0,1,1-65.709,65.709,65.712,65.712,0,0,1,65.709-65.709" transform="translate(153.25 237.39)" fill="#e2d276" fill-rule="evenodd"/>
      </g>
      <path id="Path_765" data-name="Path 765" d="M574.274,278.317a25.558,25.558,0,0,1-6.053,5.609,11.284,11.284,0,0,1-10.551,1.157c-4.4-1.708-9.672-6.37-10.505-11.1s2.772-9.523.244-7.379-11.189,11.223-15.367,15.563-3.877,3.94-2.114,2.368,4.985-4.314,7.076-6.329a52.787,52.787,0,0,0,4.024-4.422,8.2,8.2,0,0,0,2.386-3.942,7.882,7.882,0,0,0-1.494-6.685c-1.741-1.981-5.056-3.127-9.024.645s-8.591,12.454-13.848,17.278a21.612,21.612,0,0,1-29.859-1.242c-4.007-4.157-7.615-10.567-7.817-17.633a28.691,28.691,0,0,1,7.068-19.072c4.06-4.294,8.976-5.167,14.613-4.839s12,1.86,17.1,1.461,8.963-2.725,10.588-5.909a8.911,8.911,0,0,0-1.289-9.8c-2.315-2.572-6.35-3.68-10.916-3.784s-9.67.778-16.349,2.126-14.941,3.155-22.414,2.472-15.491-4.552-22.18-7.727" transform="translate(-403.978 -165.753)" fill="none" stroke="#000" stroke-linecap="round" stroke-miterlimit="22.926" stroke-width="2"/>
    </g>
    <text id="Craft_Xchange" data-name="Craft Xchange" transform="translate(913 906)" fill="#aa972d" font-size="24" font-family="OpenSans, Open Sans"><tspan x="0" y="0">Craft Xchange</tspan></text>
    <text id="An_initiative_of_Tata_Trusts" data-name="An initiative of Tata Trusts" transform="translate(876 938)" fill="#4a4a4a" font-size="20" font-family="OpenSans, Open Sans"><tspan x="0" y="0">An initiative of Tata Trusts</tspan></text>
    <g transform="matrix(1, 0, 0, 1, 319.73, 304.59)" filter="url(#Polygon_72)">
      <path id="Polygon_72-2" data-name="Polygon 72" d="M574.5,0,1149,453H0Z" transform="translate(77.27 948.41)" fill="#fff"/>
    </g>
    <g id="Group_2040" data-name="Group 2040" transform="translate(88.209 -256.502) rotate(7)">
      <path id="Path_2330" data-name="Path 2330" d="M.164,291.177s199.3,430.333,411.58,238.054S853.937,559,816.47,669.135s-242.922-90.478-32.007-257.272c180.12-142.441,218.9-279.257,201.274-356.784-1.5-6.579-14.421-6.129-19.412-15.878-4.573-8.935,3.68-33.924.758-38.637" transform="matrix(1, 0.017, -0.017, 1, 552.745, 1064.925)" fill="none" stroke="#3441dd" stroke-linecap="round" stroke-width="1"/>
      <path id="Path_2331" data-name="Path 2331" d="M.156,276.562s196.4,431.321,403.832,239,432.132,29.742,395.523,139.9-237.4-90.474-31.293-257.3C943.728,256.1,979.906,116.855,962.342,37.969c-.991-4.448-10.253-1.468-11.717-5.827-2.6-7.756,3.137-25.35-.64-31.587" transform="matrix(1, 0.017, -0.017, 1, 562.165, 1078.738)" fill="none" stroke="#fd1689" stroke-linecap="round" stroke-width="1"/>
      <path id="Path_2332" data-name="Path 2332" d="M.149,263.314S191.766,694.324,395.094,501.972s423.595,29.722,387.715,139.893S550.1,551.392,752.121,384.532C919.8,246.038,955.748,112.879,942.354,34.318c-1.417-8.316-8.947-1.431-10.3-6.248-1.032-3.7,3.374-22.246.24-27.526" transform="matrix(1, 0.017, -0.017, 1, 572.435, 1092.496)" fill="none" stroke="#1176cc" stroke-linecap="round" stroke-width="1"/>
      <path id="Path_2333" data-name="Path 2333" d="M.137,242.211S187.118,674.038,384.7,481.632s411.659,29.7,376.8,139.89-226.161-90.473-29.842-257.381C886.748,232.284,929.241,105.264,921.738,25.383c-1.934-20.6-21.032,2.9-13.923-23.08.008-.03.667-1.446.761-1.772" transform="matrix(1, 0.017, -0.017, 1, 584.726, 1113.028)" fill="none" stroke="#16a227" stroke-linecap="round" stroke-width="1"/>
      <path id="Path_2334" data-name="Path 2334" d="M.129,229S182.2,660.974,375.041,468.528,776.848,498.2,742.829,608.413,522.076,517.943,713.685,351C850.494,231.8,897.528,116.561,899.933,36.371c.948-31.609-14.023-21.328-9.978-35.852" transform="matrix(1, 0.017, -0.017, 1, 596.018, 1126.313)" fill="none" stroke="#dedede" stroke-linecap="round" stroke-width="1"/>
      <path id="Path_2335" data-name="Path 2335" d="M.124,219.945s177.62,423.8,366.011,235.765,392.533,28.99,359.3,136.678-215.658-88.4-28.471-251.516c116.8-101.783,166.621-200.612,178.917-276.163,7.359-45.22-3.63-55.27-1.2-64.2" transform="matrix(1, 0.017, -0.017, 1, 606.511, 1135.423)" fill="none" stroke="#fd9d27" stroke-linecap="round" stroke-width="1"/>
    </g>
    <text id="A_thread_of_times_" data-name="A thread of times!!" transform="translate(980 1635)" fill="#3b2977" font-size="27" font-family="OpenSans, Open Sans"><tspan x="-115.403" y="0">A thread of times!!</tspan></text>
    <g id="Group_2044" data-name="Group 2044" transform="translate(-222.013 -1810)">
      <g id="Ellipse_166" data-name="Ellipse 166" transform="translate(634.013 3000)" fill="none" stroke="#5130fb" stroke-width="3" stroke-dasharray="3 36">
        <circle cx="141" cy="141" r="141" stroke="none"/>
        <circle cx="141" cy="141" r="139.5" fill="none"/>
      </g>
      <g id="Ellipse_167" data-name="Ellipse 167" transform="matrix(0.839, -0.545, 0.545, 0.839, 650.266, 3114.221)" fill="none" stroke="#1176cc" stroke-width="3" stroke-dasharray="1 39">
        <circle cx="90.224" cy="90.224" r="90.224" stroke="none"/>
        <circle cx="90.224" cy="90.224" r="88.724" fill="none"/>
      </g>
      <g id="Ellipse_168" data-name="Ellipse 168" transform="matrix(0.839, -0.545, 0.545, 0.839, 696.021, 3123.984)" fill="none" stroke="#159a2f" stroke-width="3" stroke-dasharray="7 36">
        <circle cx="57.022" cy="57.022" r="57.022" stroke="none"/>
        <circle cx="57.022" cy="57.022" r="55.522" fill="none"/>
      </g>
      <g id="Ellipse_171" data-name="Ellipse 171" transform="matrix(0.839, -0.545, 0.545, 0.839, 747.759, 3135.021)" fill="none" stroke="#fd9d27" stroke-width="3" stroke-dasharray="7 22">
        <circle cx="19.488" cy="19.488" r="19.488" stroke="none"/>
        <circle cx="19.488" cy="19.488" r="17.988" fill="none"/>
      </g>
      <g id="Ellipse_170" data-name="Ellipse 170" transform="translate(656.013 3022)" fill="none" stroke="#fd1689" stroke-width="3" stroke-dasharray="11 54">
        <circle cx="119" cy="119" r="119" stroke="none"/>
        <circle cx="119" cy="119" r="117.5" fill="none"/>
      </g>
    </g>
    <g id="Group_2045" data-name="Group 2045" transform="translate(650.987 -1681)">
      <g id="Ellipse_166-2" data-name="Ellipse 166" transform="translate(634.013 3000)" fill="none" stroke="#5130fb" stroke-width="3" stroke-dasharray="3 36">
        <circle cx="97.5" cy="97.5" r="97.5" stroke="none"/>
        <circle cx="97.5" cy="97.5" r="96" fill="none"/>
      </g>
      <g id="Ellipse_167-2" data-name="Ellipse 167" transform="matrix(0.839, -0.545, 0.545, 0.839, 645.271, 3079.123)" fill="none" stroke="#1176cc" stroke-width="3" stroke-dasharray="1 39">
        <circle cx="62.5" cy="62.5" r="62.5" stroke="none"/>
        <circle cx="62.5" cy="62.5" r="61" fill="none"/>
      </g>
      <g id="Ellipse_168-2" data-name="Ellipse 168" transform="matrix(0.839, -0.545, 0.545, 0.839, 676.967, 3085.886)" fill="none" stroke="#159a2f" stroke-width="3" stroke-dasharray="7 36">
        <circle cx="39.5" cy="39.5" r="39.5" stroke="none"/>
        <circle cx="39.5" cy="39.5" r="38" fill="none"/>
      </g>
      <g id="Ellipse_171-2" data-name="Ellipse 171" transform="matrix(0.839, -0.545, 0.545, 0.839, 712.807, 3093.531)" fill="none" stroke="#fd9d27" stroke-width="3" stroke-dasharray="7 22">
        <circle cx="13.5" cy="13.5" r="13.5" stroke="none"/>
        <circle cx="13.5" cy="13.5" r="12" fill="none"/>
      </g>
      <g id="Ellipse_170-2" data-name="Ellipse 170" transform="translate(649.013 3015)" fill="none" stroke="#fd1689" stroke-width="3" stroke-dasharray="11 54">
        <circle cx="82.5" cy="82.5" r="82.5" stroke="none"/>
        <circle cx="82.5" cy="82.5" r="81" fill="none"/>
      </g>
    </g>
  </g>
</svg>
