<svg xmlns="http://www.w3.org/2000/svg" width="949.214" height="451.99" viewBox="0 0 949.214 451.99">
  <g id="Group_2079" data-name="Group 2079" transform="translate(-590.817 20040.818)" opacity="0.405">
    <g id="Group_1938" data-name="Group 1938" transform="matrix(0.998, 0.07, -0.07, 0.998, -490.885, 124.281)">
      <path id="Path_2220" data-name="Path 2220" d="M612.593-20021.5s14.776,174.453,16.544,179.5-8.405-179.5-8.405-179.5L637.4-19842l-8.26-187.562L648.77-19842,637.4-20029.559" transform="translate(-14)" fill="none" stroke="#cc0813" stroke-width="1"/>
      <g id="Ellipse_724" data-name="Ellipse 724" transform="translate(611 -19835)" fill="none" stroke="#cc0813" stroke-width="4">
        <circle cx="14.5" cy="14.5" r="14.5" stroke="none"/>
        <circle cx="14.5" cy="14.5" r="12.5" fill="none"/>
      </g>
    </g>
    <g id="Group_1937" data-name="Group 1937" transform="matrix(0.998, 0.07, -0.07, 0.998, -1389.885, -101.719)">
      <path id="Path_2220-2" data-name="Path 2220" d="M612.593-20021.5s14.776,174.453,16.544,179.5-8.405-179.5-8.405-179.5L637.4-19842l-8.26-187.562L648.77-19842,637.4-20029.559" transform="translate(-14)" fill="none" stroke="#cc0813" stroke-width="1"/>
      <g id="Ellipse_724-2" data-name="Ellipse 724" transform="translate(611 -19835)" fill="none" stroke="#cc0813" stroke-width="4">
        <circle cx="14.5" cy="14.5" r="14.5" stroke="none"/>
        <circle cx="14.5" cy="14.5" r="12.5" fill="none"/>
      </g>
    </g>
  </g>
</svg>
