<svg xmlns="http://www.w3.org/2000/svg" width="67.624" height="33.5" viewBox="0 0 67.624 33.5"><defs><style>.a,.b{fill:none;stroke:#8471f2;}.b{stroke-width:2px;}</style></defs><g transform="translate(-813.129 -2852.5)"><line class="a" x2="2.254" transform="translate(813.129 2866.1)"/><line class="b" x2="2.254" transform="translate(815.812 2866.1)"/><line class="b" x2="2.254" transform="translate(848.837 2866.1)"/><line class="b" x2="2.254" transform="translate(829.456 2866.1)"/><line class="b" x2="2.254" transform="translate(862.228 2866.1)"/><line class="b" x2="2.254" transform="translate(832.392 2866.1)"/><line class="b" x2="2.254" transform="translate(865.164 2866.1)"/><line class="b" x2="2.254" transform="translate(835.329 2866.1)"/><line class="b" x2="2.254" transform="translate(868.998 2866.1)"/><line class="a" x2="8.964" transform="translate(818.602 2866.1)"/><line class="a" x2="8.964" transform="translate(852.314 2866.1)"/><line class="a" x2="8.964" transform="translate(838.659 2866.1)"/><line class="a" x2="8.964" transform="translate(871.789 2866.1)"/><line class="a" x2="2.254" transform="translate(813.129 2870.825)"/><line class="b" x2="2.254" transform="translate(815.812 2870.825)"/><line class="b" x2="2.254" transform="translate(848.837 2870.825)"/><line class="b" x2="2.254" transform="translate(829.456 2870.825)"/><line class="b" x2="2.254" transform="translate(862.228 2870.825)"/><line class="b" x2="2.254" transform="translate(832.392 2870.825)"/><line class="b" x2="2.254" transform="translate(865.164 2870.825)"/><line class="b" x2="2.254" transform="translate(835.329 2870.825)"/><line class="b" x2="2.254" transform="translate(868.998 2870.825)"/><line class="a" x2="8.964" transform="translate(818.602 2870.825)"/><line class="a" x2="8.964" transform="translate(852.314 2870.825)"/><line class="a" x2="8.964" transform="translate(838.659 2870.825)"/><line class="a" x2="8.964" transform="translate(871.789 2870.825)"/><line class="a" x2="2.254" transform="translate(813.129 2853.5)"/><line class="a" x2="2.254" transform="translate(813.129 2880.275)"/><line class="b" x2="2.254" transform="translate(815.812 2853.5)"/><line class="b" x2="2.254" transform="translate(815.812 2880.275)"/><line class="b" x2="2.254" transform="translate(848.837 2853.5)"/><line class="b" x2="2.254" transform="translate(848.837 2880.275)"/><line class="b" x2="2.254" transform="translate(829.456 2853.5)"/><line class="b" x2="2.254" transform="translate(829.456 2880.275)"/><line class="b" x2="2.254" transform="translate(862.228 2853.5)"/><line class="b" x2="2.254" transform="translate(862.228 2880.275)"/><line class="b" x2="2.254" transform="translate(832.392 2853.5)"/><line class="b" x2="2.254" transform="translate(832.392 2880.275)"/><line class="b" x2="2.254" transform="translate(865.164 2853.5)"/><line class="b" x2="2.254" transform="translate(865.164 2880.275)"/><line class="b" x2="2.254" transform="translate(835.329 2853.5)"/><line class="b" x2="2.254" transform="translate(835.329 2880.275)"/><line class="b" x2="2.254" transform="translate(868.998 2853.5)"/><line class="b" x2="2.254" transform="translate(868.998 2880.275)"/><line class="a" x2="8.964" transform="translate(818.602 2853.5)"/><line class="a" x2="8.964" transform="translate(818.602 2880.275)"/><line class="a" x2="8.964" transform="translate(852.314 2853.5)"/><line class="a" x2="8.964" transform="translate(852.314 2880.275)"/><line class="a" x2="8.964" transform="translate(838.659 2853.5)"/><line class="a" x2="8.964" transform="translate(838.659 2880.275)"/><line class="a" x2="8.964" transform="translate(871.789 2853.5)"/><line class="a" x2="8.964" transform="translate(871.789 2880.275)"/><line class="a" x2="2.254" transform="translate(813.129 2858.225)"/><line class="a" x2="2.254" transform="translate(813.129 2885)"/><line class="b" x2="2.254" transform="translate(815.812 2858.225)"/><line class="b" x2="2.254" transform="translate(815.812 2885)"/><line class="b" x2="2.254" transform="translate(848.837 2858.225)"/><line class="b" x2="2.254" transform="translate(848.837 2885)"/><line class="b" x2="2.254" transform="translate(829.456 2858.225)"/><line class="b" x2="2.254" transform="translate(829.456 2885)"/><line class="b" x2="2.254" transform="translate(862.228 2858.225)"/><line class="b" x2="2.254" transform="translate(862.228 2885)"/><line class="b" x2="2.254" transform="translate(832.392 2858.225)"/><line class="b" x2="2.254" transform="translate(832.392 2885)"/><line class="b" x2="2.254" transform="translate(865.164 2858.225)"/><line class="b" x2="2.254" transform="translate(865.164 2885)"/><line class="b" x2="2.254" transform="translate(835.329 2858.225)"/><line class="b" x2="2.254" transform="translate(835.329 2885)"/><line class="b" x2="2.254" transform="translate(868.998 2858.225)"/><line class="b" x2="2.254" transform="translate(868.998 2885)"/><line class="a" x2="8.964" transform="translate(818.602 2858.225)"/><line class="a" x2="8.964" transform="translate(818.602 2885)"/><line class="a" x2="8.964" transform="translate(852.314 2858.225)"/><line class="a" x2="8.964" transform="translate(852.314 2885)"/><line class="a" x2="8.964" transform="translate(838.659 2858.225)"/><line class="a" x2="8.964" transform="translate(838.659 2885)"/><line class="a" x2="8.964" transform="translate(871.789 2858.225)"/><line class="a" x2="8.964" transform="translate(871.789 2885)"/></g></svg>