<svg xmlns="http://www.w3.org/2000/svg" width="29.095" height="37.836" viewBox="0 0 29.095 37.836">
  <g id="faulty_order" data-name="faulty order" transform="translate(-1422.5 -3749.708)">
    <path id="Icon_awesome-file-invoice" data-name="Icon awesome-file-invoice" d="M20.72,18.418H6.907v4.6H20.72ZM27.12,8.77Zm-11,1.015V0H1.727A1.723,1.723,0,0,0,0,1.727V35.109a1.723,1.723,0,0,0,1.727,1.727H25.9a1.723,1.723,0,0,0,1.727-1.727v-23.6H17.842a1.732,1.732,0,0,1-1.726-1.724ZM4.6,5.18a.575.575,0,0,1,.58-.58h5.756a.575.575,0,0,1,.576.576V6.331a.575.575,0,0,1-.576.576H5.18a.575.575,0,0,1-.58-.576Zm0,4.6a.575.575,0,0,1,.576-.58h5.756a.575.575,0,0,1,.576.576v1.151a.575.575,0,0,1-.576.576H5.18a.575.575,0,0,1-.576-.576ZM23.022,31.656a.575.575,0,0,1-.576.576H16.691a.575.575,0,0,1-.576-.576V30.5a.575.575,0,0,1,.576-.576h5.756a.575.575,0,0,1,.576.576Zm0-14.389v6.907a1.151,1.151,0,0,1-1.151,1.151H5.756A1.151,1.151,0,0,1,4.6,24.174V17.267a1.151,1.151,0,0,1,1.151-1.151h16.12A1.151,1.151,0,0,1,23.022,17.267Z" transform="translate(1423 3750.208)" fill="none" stroke="#eadbff" stroke-width="1"/>
    <path id="Icon_awesome-question-circle" data-name="Icon awesome-question-circle" d="M9.863,5.213A4.65,4.65,0,1,1,5.213.563a4.65,4.65,0,0,1,4.65,4.65ZM5.337,2.1A2.429,2.429,0,0,0,3.152,3.3a.225.225,0,0,0,.051.3l.651.493a.225.225,0,0,0,.312-.04c.335-.425.565-.671,1.074-.671.383,0,.857.247.857.618,0,.281-.232.425-.61.637-.441.247-1.025.555-1.025,1.325v.075a.225.225,0,0,0,.225.225h1.05a.225.225,0,0,0,.225-.225V6.013c0-.534,1.56-.556,1.56-2A2.139,2.139,0,0,0,5.337,2.1ZM5.213,6.75a.863.863,0,1,0,.863.863.863.863,0,0,0-.863-.863Z" transform="translate(1441.732 3749.188)" fill="#c9a2fd"/>
  </g>
</svg>
