<svg xmlns="http://www.w3.org/2000/svg" width="403" height="254.624" viewBox="0 0 403 254.624">
  <g id="Group_1919" data-name="Group 1919" transform="translate(-12786 12925)">
    <g id="cold-ice-cubes" transform="translate(12932 -12933.324)">
      <path id="Path_2176" data-name="Path 2176" d="M61.767,84.777,47.381,93.064a5.9,5.9,0,0,0-2.163,8.043L53.5,115.493a4.342,4.342,0,0,0,7.525-4.334L54.137,99.194,66.1,92.3a4.342,4.342,0,1,0-4.335-7.525Z" transform="translate(-25.139 -42.927)" fill="#8dd1ea"/>
      <path id="Path_2177" data-name="Path 2177" d="M190.865,85.836l-31.8-57.7a10.492,10.492,0,0,0-14.238-4.119l-47.175,26-21-36.449a10.493,10.493,0,0,0-14.313-3.85L5.254,42.605A10.481,10.481,0,0,0,1.4,56.919l32.884,57.088a10.486,10.486,0,0,0,14.313,3.85l4.564-2.628-16.756,24.79a10.48,10.48,0,0,0,2.815,14.551l54.584,36.892a10.477,10.477,0,0,0,14.552-2.814l36.892-54.584a10.492,10.492,0,0,0,.289-11.28l41.2-22.711A10.494,10.494,0,0,0,190.865,85.836Zm-146.6,24.495a1.8,1.8,0,0,1-2.454-.66L8.929,52.584a1.8,1.8,0,0,1,.66-2.453L66.676,17.246a1.8,1.8,0,0,1,2.453.66L90.043,54.211l-2.916,1.608a10.48,10.48,0,0,0-4.12,14.238L90.52,83.688l-.586.337-2.08-1.406A10.482,10.482,0,0,0,73.3,85.433L64.256,98.816Zm93.79,18.87-36.891,54.583a1.8,1.8,0,0,1-1.5.792,1.76,1.76,0,0,1-1-.309L44.086,147.374a1.8,1.8,0,0,1-.482-2.494L80.5,90.3a1.8,1.8,0,0,1,1.494-.789,1.759,1.759,0,0,1,1,.308l54.584,36.891A1.8,1.8,0,0,1,138.057,129.2Zm44.5-36.733-44.136,24.326-31.45-21.256L90.613,65.865a1.8,1.8,0,0,1,.706-2.44l57.7-31.8a1.8,1.8,0,0,1,2.44.706l31.8,57.7A1.8,1.8,0,0,1,182.553,92.468Z" transform="translate(0 0)" fill="#8dd1ea"/>
      <path id="Path_2178" data-name="Path 2178" d="M315.944,88.776a5.9,5.9,0,0,0-8-2.313L293.4,94.476a4.342,4.342,0,1,0,4.192,7.606l12.092-6.665,6.665,12.093a4.342,4.342,0,0,0,7.606-4.192Z" transform="translate(-164.731 -43.796)" fill="#8dd1ea"/>
      <path id="Path_2179" data-name="Path 2179" d="M145.5,299.916l-11.441-7.731,7.733-11.44a4.342,4.342,0,0,0-7.2-4.863l-9.3,13.755a5.9,5.9,0,0,0,1.582,8.178l13.756,9.3a4.342,4.342,0,1,0,4.863-7.195Z" transform="translate(-70.324 -150.299)" fill="#8dd1ea"/>
    </g>
    <g id="snow" transform="translate(12756.016 -12891.001)">
      <path id="Path_2180" data-name="Path 2180" d="M100.03,59.015,94.375,55.75l6.8-1.821a2.775,2.775,0,1,0-1.437-5.36L87.579,51.826l-6.484-3.744a12.49,12.49,0,0,0-.024-7.443l6.507-3.756c13.135,3.519,12.357,3.353,12.877,3.353a2.775,2.775,0,0,0,.717-5.456l-6.8-1.821,5.656-3.265a5.553,5.553,0,1,0-2.771-4.808L91.6,28.152l1.821-6.795a2.775,2.775,0,0,0-5.361-1.436L84.8,32.076l-6.546,3.779a12.485,12.485,0,0,0-6.32-3.629V24.563l8.9-8.9a2.775,2.775,0,0,0-3.924-3.924l-4.975,4.975V10.354a5.55,5.55,0,1,0-5.55,0v6.361L61.414,11.74a2.775,2.775,0,0,0-3.924,3.924l8.9,8.9v7.663a12.486,12.486,0,0,0-6.374,3.686l-6.641-3.834L50.116,19.921a2.775,2.775,0,0,0-5.361,1.436l1.821,6.8-5.509-3.181A5.546,5.546,0,1,0,38.3,29.781L43.8,32.96l-6.8,1.821a2.775,2.775,0,1,0,1.436,5.36L50.6,36.884l6.634,3.83a12.48,12.48,0,0,0-.021,7.294L50.6,51.826,38.442,48.569a2.775,2.775,0,1,0-1.436,5.36l6.8,1.821L38.3,58.928a5.551,5.551,0,1,0,2.771,4.808l5.509-3.181-1.821,6.8a2.775,2.775,0,0,0,5.361,1.436l3.257-12.156,6.588-3.8a12.491,12.491,0,0,0,6.427,3.742v7.49l-8.9,8.9a2.775,2.775,0,1,0,3.924,3.924l4.975-4.975v6.534a5.55,5.55,0,1,0,5.55,0V71.908l4.975,4.975a2.775,2.775,0,1,0,3.924-3.924l-8.9-8.9V56.57a12.486,12.486,0,0,0,6.374-3.686L84.8,56.632l3.257,12.156a2.775,2.775,0,1,0,5.361-1.436l-1.821-6.8,5.659,3.267a5.549,5.549,0,1,0,2.771-4.809Zm-30.867-7.68A6.937,6.937,0,1,1,76.1,44.4,6.945,6.945,0,0,1,69.163,51.335Z" fill="#c9f0ff"/>
    </g>
    <g id="snow-2" data-name="snow" transform="translate(12871.016 -12762.001)">
      <path id="Path_2180-2" data-name="Path 2180" d="M57.683,23.338l-2.236-1.291,2.687-.72a1.1,1.1,0,1,0-.568-2.12l-4.807,1.288L50.2,19.014a4.939,4.939,0,0,0-.009-2.943l2.573-1.485c5.194,1.392,4.886,1.326,5.092,1.326a1.1,1.1,0,0,0,.283-2.157l-2.688-.72,2.236-1.291a2.2,2.2,0,1,0-1.1-1.9L54.35,11.133l.72-2.687a1.1,1.1,0,0,0-2.12-.568l-1.288,4.807-2.588,1.494a4.937,4.937,0,0,0-2.5-1.435V9.714l3.519-3.519a1.1,1.1,0,1,0-1.552-1.552L46.575,6.61V4.095a2.195,2.195,0,1,0-2.195,0V6.61L42.413,4.643a1.1,1.1,0,1,0-1.552,1.552L44.38,9.714v3.03A4.938,4.938,0,0,0,41.86,14.2l-2.626-1.516L37.945,7.878a1.1,1.1,0,0,0-2.12.568l.72,2.687L34.367,9.876a2.193,2.193,0,1,0-1.1,1.9l2.177,1.257-2.687.72a1.1,1.1,0,1,0,.568,2.12l4.807-1.288L40.759,16.1a4.935,4.935,0,0,0-.008,2.885l-2.615,1.51-4.807-1.288a1.1,1.1,0,1,0-.568,2.12l2.687.72L33.271,23.3a2.195,2.195,0,1,0,1.1,1.9l2.178-1.258-.72,2.687a1.1,1.1,0,0,0,2.12.568L39.233,22.4l2.605-1.5a4.939,4.939,0,0,0,2.541,1.48v2.962l-3.519,3.519A1.1,1.1,0,0,0,42.413,30.4l1.967-1.967V31.02a2.195,2.195,0,1,0,2.195,0V28.436L48.542,30.4a1.1,1.1,0,1,0,1.552-1.552l-3.519-3.519V22.371A4.938,4.938,0,0,0,49.1,20.913L51.662,22.4,52.95,27.2a1.1,1.1,0,1,0,2.12-.568l-.72-2.687,2.238,1.292a2.194,2.194,0,1,0,1.1-1.9ZM45.477,20.3a2.743,2.743,0,1,1,2.743-2.743A2.746,2.746,0,0,1,45.477,20.3Z" fill="#c9f0ff"/>
    </g>
    <g id="snow-3" data-name="snow" transform="translate(13128.016 -12925.001)">
      <path id="Path_2180-3" data-name="Path 2180" d="M57.683,23.338l-2.236-1.291,2.687-.72a1.1,1.1,0,1,0-.568-2.12l-4.807,1.288L50.2,19.014a4.939,4.939,0,0,0-.009-2.943l2.573-1.485c5.194,1.392,4.886,1.326,5.092,1.326a1.1,1.1,0,0,0,.283-2.157l-2.688-.72,2.236-1.291a2.2,2.2,0,1,0-1.1-1.9L54.35,11.133l.72-2.687a1.1,1.1,0,0,0-2.12-.568l-1.288,4.807-2.588,1.494a4.937,4.937,0,0,0-2.5-1.435V9.714l3.519-3.519a1.1,1.1,0,1,0-1.552-1.552L46.575,6.61V4.095a2.195,2.195,0,1,0-2.195,0V6.61L42.413,4.643a1.1,1.1,0,1,0-1.552,1.552L44.38,9.714v3.03A4.938,4.938,0,0,0,41.86,14.2l-2.626-1.516L37.945,7.878a1.1,1.1,0,0,0-2.12.568l.72,2.687L34.367,9.876a2.193,2.193,0,1,0-1.1,1.9l2.177,1.257-2.687.72a1.1,1.1,0,1,0,.568,2.12l4.807-1.288L40.759,16.1a4.935,4.935,0,0,0-.008,2.885l-2.615,1.51-4.807-1.288a1.1,1.1,0,1,0-.568,2.12l2.687.72L33.271,23.3a2.195,2.195,0,1,0,1.1,1.9l2.178-1.258-.72,2.687a1.1,1.1,0,0,0,2.12.568L39.233,22.4l2.605-1.5a4.939,4.939,0,0,0,2.541,1.48v2.962l-3.519,3.519A1.1,1.1,0,0,0,42.413,30.4l1.967-1.967V31.02a2.195,2.195,0,1,0,2.195,0V28.436L48.542,30.4a1.1,1.1,0,1,0,1.552-1.552l-3.519-3.519V22.371A4.938,4.938,0,0,0,49.1,20.913L51.662,22.4,52.95,27.2a1.1,1.1,0,1,0,2.12-.568l-.72-2.687,2.238,1.292a2.194,2.194,0,1,0,1.1-1.9ZM45.477,20.3a2.743,2.743,0,1,1,2.743-2.743A2.746,2.746,0,0,1,45.477,20.3Z" fill="#c9f0ff"/>
    </g>
    <g id="snow-4" data-name="snow" transform="translate(13094.016 -12744.001)">
      <path id="Path_2180-4" data-name="Path 2180" d="M88.063,48.932l-4.689-2.707,5.635-1.51a2.3,2.3,0,1,0-1.191-4.445l-10.079,2.7-5.376-3.1a10.357,10.357,0,0,0-.02-6.171l5.395-3.115c10.891,2.918,10.246,2.78,10.677,2.78a2.3,2.3,0,0,0,.594-4.524l-5.636-1.51,4.689-2.707a4.6,4.6,0,1,0-2.3-3.987l-4.692,2.709,1.51-5.634a2.3,2.3,0,0,0-4.445-1.191L75.438,26.6,70.011,29.73a10.352,10.352,0,0,0-5.24-3.009V20.367l7.379-7.379A2.3,2.3,0,0,0,68.9,9.734l-4.125,4.125V8.585a4.6,4.6,0,1,0-4.6,0v5.274L56.044,9.734a2.3,2.3,0,0,0-3.254,3.254l7.379,7.379V26.72a10.353,10.353,0,0,0-5.285,3.056L49.377,26.6l-2.7-10.08a2.3,2.3,0,0,0-4.445,1.191l1.51,5.635-4.568-2.637a4.6,4.6,0,1,0-2.3,3.987l4.565,2.635-5.635,1.51A2.3,2.3,0,1,0,37,33.283l10.079-2.7,5.5,3.176a10.348,10.348,0,0,0-.018,6.048l-5.483,3.165L37,40.271a2.3,2.3,0,1,0-1.191,4.445l5.635,1.51-4.565,2.635a4.6,4.6,0,1,0,2.3,3.987l4.568-2.637-1.51,5.635a2.3,2.3,0,0,0,4.445,1.191l2.7-10.08L54.84,43.8a10.357,10.357,0,0,0,5.329,3.1v6.21L52.79,60.494a2.3,2.3,0,0,0,3.254,3.254l4.125-4.125v5.418a4.6,4.6,0,1,0,4.6,0V59.623L68.9,63.748a2.3,2.3,0,1,0,3.254-3.254L64.77,53.115v-6.21a10.353,10.353,0,0,0,5.285-3.056l5.383,3.108,2.7,10.08a2.3,2.3,0,1,0,4.445-1.191l-1.51-5.635,4.692,2.709a4.6,4.6,0,1,0,2.3-3.987ZM62.47,42.564a5.752,5.752,0,1,1,5.752-5.752A5.758,5.758,0,0,1,62.47,42.564Z" transform="translate(0)" fill="#c9f0ff"/>
    </g>
  </g>
</svg>
