<svg xmlns="http://www.w3.org/2000/svg" width="21.542" height="13.314" viewBox="0 0 21.542 13.314">
  <g id="Group_1952" data-name="Group 1952" transform="translate(-307.407 19840.314)">
    <path id="Icon_material-find-replace" data-name="Icon material-find-replace" d="M12.657,7.9a4.776,4.776,0,0,1,3.367,1.389l-2.416,2.416h5.706V6l-1.95,1.95A6.652,6.652,0,0,0,6.076,11.706H8A4.756,4.756,0,0,1,12.657,7.9Zm5.364,8.692a6.552,6.552,0,0,0,1.217-2.986H17.317a4.763,4.763,0,0,1-8.027,2.416l2.416-2.416H6v5.706l1.95-1.95a6.65,6.65,0,0,0,8.645.656Z" transform="translate(301.407 -19846.314)" fill="#e25151"/>
    <path id="Icon_ionic-ios-remove" data-name="Icon ionic-ios-remove" d="M19.709,16.875H9.678a.713.713,0,0,0,0,1.427h10.03a.713.713,0,0,0,0-1.427Z" transform="translate(308.528 -19850.807)" fill="#e25151"/>
  </g>
</svg>
