<svg xmlns="http://www.w3.org/2000/svg" width="432.898" height="396.732" viewBox="0 0 432.898 396.732">
  <g id="Group_2076" data-name="Group 2076" transform="translate(-1049.285 -572.086)">
    <g id="Group_1921" data-name="Group 1921" transform="matrix(0.999, -0.035, 0.035, 0.999, -0.415, 199.961)">
      <path id="Path_2188" data-name="Path 2188" d="M-11157.156-21051.609s-48.959-26.451-43.072-89.092,89.773-90.621,120.849-88.143,122.593,12.82,126.178,105.92-136.154,110.385-162.551,90.082c-4.343,23.576-24.845,43.355-84.476,55.748" transform="translate(12242 21651)" fill="none" stroke="rgba(191,58,58,0.56)" stroke-width="1"/>
      <path id="Path_2191" data-name="Path 2191" d="M-11157.156-21051.609s-48.959-26.451-43.072-89.092,89.773-90.621,120.849-88.143,122.593,12.82,126.178,105.92-136.154,110.385-162.551,90.082c-4.343,23.576-24.845,43.355-84.476,55.748" transform="translate(12242 21655)" fill="none" stroke="rgba(191,58,58,0.56)" stroke-width="1"/>
      <path id="Path_2193" data-name="Path 2193" d="M-11157.156-21051.609s-48.959-26.451-43.072-89.092,89.773-90.621,120.849-88.143,122.593,12.82,126.178,105.92-136.154,110.385-162.551,90.082c-4.343,23.576-24.845,43.355-84.476,55.748" transform="translate(12242 21647)" fill="none" stroke="rgba(191,58,58,0.56)" stroke-width="1"/>
      <path id="Path_2195" data-name="Path 2195" d="M-11157.156-21051.609s-48.959-26.451-43.072-89.092,89.773-90.621,120.849-88.143,122.593,12.82,126.178,105.92-136.154,110.385-162.551,90.082c-4.343,23.576-24.845,43.355-84.476,55.748" transform="translate(12237 21647)" fill="none" stroke="rgba(191,58,58,0.56)" stroke-width="1"/>
      <path id="Path_2197" data-name="Path 2197" d="M-11157.156-21051.609s-48.959-26.451-43.072-89.092,89.773-90.621,120.849-88.143,122.593,12.82,126.178,105.92-136.154,110.385-162.551,90.082c-4.343,23.576-24.845,43.355-84.476,55.748" transform="translate(12245 21647)" fill="none" stroke="rgba(191,58,58,0.56)" stroke-width="1"/>
    </g>
    <g id="Group_1920" data-name="Group 1920" transform="matrix(0.998, 0.07, -0.07, 0.998, 33.456, 3.492)">
      <path id="Path_2189" data-name="Path 2189" d="M-10996.7-21051.609s48.959-26.451,43.072-89.092-89.773-90.621-120.849-88.143-122.593,12.82-126.178,105.92,136.154,110.385,162.551,90.082c4.343,23.576,24.845,43.355,84.476,55.748" transform="translate(12444.001 21836)" fill="none" stroke="rgba(191,58,58,0.56)" stroke-width="1"/>
      <path id="Path_2190" data-name="Path 2190" d="M-10996.7-21051.609s48.959-26.451,43.072-89.092-89.773-90.621-120.849-88.143-122.593,12.82-126.178,105.92,136.154,110.385,162.551,90.082c4.343,23.576,24.845,43.355,84.476,55.748" transform="translate(12444.001 21840)" fill="none" stroke="rgba(191,58,58,0.56)" stroke-width="1"/>
      <path id="Path_2192" data-name="Path 2192" d="M-10996.7-21051.609s48.959-26.451,43.072-89.092-89.773-90.621-120.849-88.143-122.593,12.82-126.178,105.92,136.154,110.385,162.551,90.082c4.343,23.576,24.845,43.355,84.476,55.748" transform="translate(12444.001 21832)" fill="none" stroke="rgba(191,58,58,0.56)" stroke-width="1"/>
      <path id="Path_2194" data-name="Path 2194" d="M-10996.7-21051.609s48.959-26.451,43.072-89.092-89.773-90.621-120.849-88.143-122.593,12.82-126.178,105.92,136.154,110.385,162.551,90.082c4.343,23.576,24.845,43.355,84.476,55.748" transform="translate(12439.001 21832)" fill="none" stroke="rgba(191,58,58,0.56)" stroke-width="1"/>
      <path id="Path_2196" data-name="Path 2196" d="M-10996.7-21051.609s48.959-26.451,43.072-89.092-89.773-90.621-120.849-88.143-122.593,12.82-126.178,105.92,136.154,110.385,162.551,90.082c4.343,23.576,24.845,43.355,84.476,55.748" transform="translate(12447.001 21832)" fill="none" stroke="rgba(191,58,58,0.56)" stroke-width="1"/>
    </g>
  </g>
</svg>
