<svg xmlns="http://www.w3.org/2000/svg" width="457.682" height="203.251" viewBox="0 0 457.682 203.251">
  <g id="Group_1782" data-name="Group 1782" transform="translate(0.389)">
    <path id="Path_2164" data-name="Path 2164" d="M-17436.574-14990.477s-107.8,83.23-226.5,0c-56.115-32.4-147.232-70.7-224.873,0" transform="translate(17890.729 15121.409)" fill="none" stroke="#707070" stroke-width="1"/>
    <path id="Path_2165" data-name="Path 2165" d="M0,36.991s107.8-83.23,226.5,0c56.115,32.4,147.232,70.7,224.872,0" transform="matrix(-0.999, 0.035, -0.035, -0.999, 455.359, 160.025)" fill="none" stroke="#707070" stroke-width="1"/>
    <path id="Path_2166" data-name="Path 2166" d="M0,36.991s107.8-83.23,226.5,0c56.115,32.4,147.232,70.7,224.872,0" transform="matrix(-0.998, 0.07, -0.07, -0.998, 456.287, 152.088)" fill="none" stroke="#707070" stroke-width="1"/>
    <path id="Path_2167" data-name="Path 2167" d="M0,36.991s107.8-83.23,226.5,0c56.115,32.4,147.232,70.7,224.872,0" transform="matrix(-0.999, -0.035, 0.035, -0.999, 452.674, 175.778)" fill="none" stroke="#707070" stroke-width="1"/>
    <path id="Path_2168" data-name="Path 2168" d="M0,36.991s107.8-83.23,226.5,0c56.115,32.4,147.232,70.7,224.872,0" transform="matrix(-0.998, -0.07, 0.07, -0.998, 450.921, 183.575)" fill="none" stroke="#707070" stroke-width="1"/>
    <path id="Path_2169" data-name="Path 2169" d="M0,36.991s107.8-83.23,226.5,0c56.115,32.4,147.232,70.7,224.872,0" transform="matrix(-0.995, 0.105, -0.105, -0.995, 456.936, 144.124)" fill="none" stroke="#707070" stroke-width="1"/>
    <circle id="Ellipse_557" data-name="Ellipse 557" cx="4.937" cy="4.937" r="4.937" transform="translate(366.151 67.476)" fill="#1ea733"/>
    <circle id="Ellipse_560" data-name="Ellipse 560" cx="4.937" cy="4.937" r="4.937" transform="translate(124.225 54.31)" fill="#a71e1e"/>
    <circle id="Ellipse_558" data-name="Ellipse 558" cx="4.937" cy="4.937" r="4.937" transform="translate(295.384 67.476)" fill="#1ea733"/>
    <circle id="Ellipse_559" data-name="Ellipse 559" cx="4.937" cy="4.937" r="4.937" transform="translate(54.281 44.435)" fill="#a71e1e"/>
    <g id="Ellipse_561" data-name="Ellipse 561" transform="translate(250.949 22.218)" fill="none" stroke="#707070" stroke-width="1">
      <circle cx="90.517" cy="90.517" r="90.517" stroke="none"/>
      <circle cx="90.517" cy="90.517" r="90.017" fill="none"/>
    </g>
    <g id="Ellipse_562" data-name="Ellipse 562" transform="translate(15.606)" fill="none" stroke="#707070" stroke-width="1">
      <circle cx="90.517" cy="90.517" r="90.517" stroke="none"/>
      <circle cx="90.517" cy="90.517" r="90.017" fill="none"/>
    </g>
  </g>
</svg>
