<svg xmlns="http://www.w3.org/2000/svg" width="54" height="54" viewBox="0 0 54 54">
  <path id="Icon_ionic-md-happy" data-name="Icon ionic-md-happy" d="M30.375,3.375a27,27,0,1,0,27,27A26.993,26.993,0,0,0,30.375,3.375Zm0,48.6a21.6,21.6,0,1,1,21.6-21.6A21.664,21.664,0,0,1,30.375,51.975Zm9.45-24.3a4.05,4.05,0,1,0-4.05-4.05A3.977,3.977,0,0,0,39.825,27.675Zm-18.9,0a4.05,4.05,0,1,0-4.05-4.05A3.977,3.977,0,0,0,20.925,27.675Zm9.45,17.55a14.711,14.711,0,0,0,13.77-9.45H16.6A14.711,14.711,0,0,0,30.375,45.225Z" transform="translate(-3.375 -3.375)" fill="#cbcbcb"/>
</svg>
