<svg xmlns="http://www.w3.org/2000/svg" width="27.356" height="23.868" viewBox="0 0 27.356 23.868">
  <path id="Icon_material-favorite-border" data-name="Icon material-favorite-border" d="M22.833,4.5a8.369,8.369,0,0,0-6.155,2.718A8.369,8.369,0,0,0,10.523,4.5,7.274,7.274,0,0,0,3,11.654c0,4.917,4.65,8.923,11.694,15.01l1.983,1.7,1.983-1.717c7.044-6.074,11.694-10.08,11.694-15A7.274,7.274,0,0,0,22.833,4.5ZM16.815,24.726l-.137.13-.137-.13c-6.511-5.606.274,3.889.274.13,0-2.6-2.736,0,0,0h-.274l.274-.13c.711-1.782-2.106.52,0,.52,2.736,0-.274-2.991-.274-.39C16.541,28.615,23.325,19.12,16.815,24.726Z" transform="translate(-3 -4.5)" fill="#c00"/>
</svg>
