<svg xmlns="http://www.w3.org/2000/svg" width="755.266" height="433.162" viewBox="0 0 755.266 433.162">
  <g id="Group_1486" data-name="Group 1486" transform="translate(-17461.984 -8674.14)">
    <path id="Path_1998" data-name="Path 1998" d="M17462,8688.389l498.846,32.878-207.3,49.382,207.3,42.306-207.3,38.307,207.3,39.139-207.3,44.507,207.3,44.8-207.3,36.607,207.3,44.354-207.3,46.39,463.67-63.184" fill="none" stroke="#d8d8d8" stroke-width="0.5"/>
    <path id="Path_1999" data-name="Path 1999" d="M17462,8688.389l498.846,32.878-207.3,49.382,207.3,42.306-207.3,38.307,207.3,39.139-207.3,44.507,207.3,44.8-207.3,36.607,207.3,44.354-207.3,46.39,463.67-63.184" transform="translate(0 -2)" fill="none" stroke="#d8d8d8" stroke-width="0.5"/>
    <path id="Path_2000" data-name="Path 2000" d="M17462,8688.389l498.846,32.878-207.3,49.382,207.3,42.306-207.3,38.307,207.3,39.139-207.3,44.507,207.3,44.8-207.3,36.607,207.3,44.354-207.3,46.39,463.67-63.184" transform="translate(0 -5)" fill="none" stroke="#d8d8d8" stroke-width="0.5"/>
    <path id="Path_2001" data-name="Path 2001" d="M17462,8688.389l498.846,32.878-207.3,49.382,207.3,42.306-207.3,38.307,207.3,39.139-207.3,44.507,207.3,44.8-207.3,36.607,207.3,44.354-207.3,46.39,463.67-63.184" transform="translate(0 -8)" fill="none" stroke="#d8d8d8" stroke-width="0.5"/>
    <path id="Path_2002" data-name="Path 2002" d="M17462,8688.389l498.846,32.878-207.3,49.382,207.3,42.306-207.3,38.307,207.3,39.139-207.3,44.507,207.3,44.8-207.3,36.607,207.3,44.354-207.3,46.39,463.67-63.184" transform="translate(0 -11)" fill="none" stroke="#d8d8d8" stroke-width="0.5"/>
    <path id="Path_2003" data-name="Path 2003" d="M17462,8688.389l498.846,32.878-207.3,49.382,207.3,42.306-207.3,38.307,207.3,39.139-207.3,44.507,207.3,44.8-207.3,36.607,207.3,44.354-207.3,46.39,463.67-63.184" transform="translate(0 -14)" fill="none" stroke="#d8d8d8" stroke-width="0.5"/>
  </g>
</svg>
