<svg xmlns="http://www.w3.org/2000/svg" width="131.637" height="130.475" viewBox="0 0 131.637 130.475">
  <path id="Icon_weather-stars" data-name="Icon weather-stars" d="M6.444,86.751a16.1,16.1,0,0,0,11.277-5.126,16.062,16.062,0,0,0,4.648-11.482A16.584,16.584,0,0,0,38.225,86.751a16.584,16.584,0,0,0-15.857,16.608,15.784,15.784,0,0,0-4.648-11.482A16.1,16.1,0,0,0,6.444,86.751Zm15.925-49.21A31.411,31.411,0,0,0,44.308,27.494,31.286,31.286,0,0,0,53.33,5.076a31.286,31.286,0,0,0,9.022,22.418A31.721,31.721,0,0,0,84.36,37.541a31.678,31.678,0,0,0-15.651,4.853A32.844,32.844,0,0,0,57.431,54.218a32.139,32.139,0,0,0-4.1,15.925,31.444,31.444,0,0,0-9.022-22.486A31.206,31.206,0,0,0,22.369,37.541Zm22.691,73.61a23.531,23.531,0,0,0,16.54-7.518,23.537,23.537,0,0,0,6.766-16.882,24.419,24.419,0,0,0,23.238,24.4,24.419,24.419,0,0,0-23.238,24.4A23.537,23.537,0,0,0,61.6,118.669,23.943,23.943,0,0,0,45.06,111.151ZM91.6,78.754a23.377,23.377,0,0,0,16.472-7.518,23.521,23.521,0,0,0,6.7-16.95,24.413,24.413,0,0,0,23.306,24.4,24.413,24.413,0,0,0-23.306,24.4A24.174,24.174,0,0,0,91.6,78.754Z" transform="translate(-6.444 -5.076)"/>
</svg>
