<svg xmlns="http://www.w3.org/2000/svg" width="44.53" height="38.761" viewBox="0 0 44.53 38.761"><defs><style>.a{fill:none;stroke:#000;stroke-width:2.5px;}</style></defs><path class="a" d="M32.469,16.365,24.1,3.832a1.9,1.9,0,0,0-1.586-.8,1.867,1.867,0,0,0-1.586.822L12.562,16.365H3.41a1.916,1.916,0,0,0-1.91,1.91,1.609,1.609,0,0,0,.076.516L6.429,36.5A3.8,3.8,0,0,0,10.1,39.291H34.933A3.839,3.839,0,0,0,38.62,36.5l4.853-17.71.057-.516a1.916,1.916,0,0,0-1.91-1.91Zm-15.685,0,5.731-8.406,5.731,8.406Zm5.731,15.284a3.821,3.821,0,1,1,3.821-3.821A3.832,3.832,0,0,1,22.515,31.649Z" transform="translate(-0.25 -1.78)"/></svg>