<svg xmlns="http://www.w3.org/2000/svg" width="33.98" height="20.514" viewBox="0 0 33.98 20.514">
  <g id="Icon_ionic-ios-videocam" data-name="Icon ionic-ios-videocam" transform="translate(-4.824 -9)">
    <path id="Path_2228" data-name="Path 2228" d="M32.663,10.8a1.369,1.369,0,0,0-.745.216l-6.931,4.375a.686.686,0,0,0-.321.577v6.09a.686.686,0,0,0,.321.577l6.931,4.375a1.44,1.44,0,0,0,.745.216H34.33a.682.682,0,0,0,.689-.681V11.481a.687.687,0,0,0-.689-.681Z" transform="translate(3.785 0.251)" fill="#931a1a"/>
    <path id="Path_2229" data-name="Path 2229" d="M20.4,29.514H6.121A4.017,4.017,0,0,1,2.25,25.4V13.119A4.011,4.011,0,0,1,6.113,9H20.395a4.011,4.011,0,0,1,3.863,4.119V25.387A4,4,0,0,1,20.4,29.514Z" transform="translate(2.574)" fill="#931a1a"/>
  </g>
</svg>
