<svg xmlns="http://www.w3.org/2000/svg" width="22.94" height="22.982" viewBox="0 0 22.94 22.982">
  <path id="Icon_feather-phone" data-name="Icon feather-phone" d="M24.105,18.707v3.158a2.106,2.106,0,0,1-2.3,2.106,20.834,20.834,0,0,1-9.085-3.232,20.529,20.529,0,0,1-6.317-6.317A20.834,20.834,0,0,1,3.176,5.295,2.106,2.106,0,0,1,5.271,3H8.43a2.106,2.106,0,0,1,2.106,1.811,13.517,13.517,0,0,0,.737,2.958A2.106,2.106,0,0,1,10.8,9.99L9.461,11.327a16.844,16.844,0,0,0,6.317,6.317l1.337-1.337a2.106,2.106,0,0,1,2.221-.474,13.517,13.517,0,0,0,2.958.737,2.106,2.106,0,0,1,1.811,2.137Z" transform="translate(-2.167 -2)" stroke="rgba(0,0,0,0)" stroke-linecap="round" stroke-linejoin="round" stroke-width="2"/>
</svg>
