<svg xmlns="http://www.w3.org/2000/svg" width="31.622" height="41.607" viewBox="0 0 31.622 41.607">
  <g id="Icon_ionic-ios-document" data-name="Icon ionic-ios-document" transform="translate(-7.313 -3.938)">
    <path id="Path_2230" data-name="Path 2230" d="M22.578,14.232h9.466a.515.515,0,0,0,.52-.52h0a3.079,3.079,0,0,0-1.113-2.382L23.514,4.714a3.341,3.341,0,0,0-2.143-.77h0a.768.768,0,0,0-.77.77v7.541A1.975,1.975,0,0,0,22.578,14.232Z" transform="translate(6.37 0.003)"/>
    <path id="Path_2231" data-name="Path 2231" d="M24.267,12.259V3.938H10.641A3.338,3.338,0,0,0,7.313,7.266v34.95a3.338,3.338,0,0,0,3.329,3.329H35.605a3.338,3.338,0,0,0,3.329-3.329V16.94H28.948A4.688,4.688,0,0,1,24.267,12.259Z" transform="translate(0)"/>
  </g>
</svg>
