<svg xmlns="http://www.w3.org/2000/svg" width="51.808" height="51.808" viewBox="0 0 51.808 51.808">
  <path id="Icon_material-account-circle" data-name="Icon material-account-circle" d="M27.9,3a24.9,24.9,0,1,0,24.9,24.9A24.913,24.913,0,0,0,27.9,3Zm0,7.471a7.471,7.471,0,1,1-7.471,7.471A7.461,7.461,0,0,1,27.9,10.471Zm0,35.364a17.932,17.932,0,0,1-14.942-8.019c.075-4.956,9.962-7.67,14.942-7.67,4.956,0,14.868,2.715,14.942,7.67A17.932,17.932,0,0,1,27.9,45.835Z" transform="translate(-2 -2)" fill="none" stroke="#000" stroke-width="2"/>
</svg>
