<svg xmlns="http://www.w3.org/2000/svg" width="60.12" height="36.295" viewBox="0 0 60.12 36.295">
  <g id="Icon_ionic-ios-videocam" data-name="Icon ionic-ios-videocam" transform="translate(-4.824 -9)">
    <path id="Path_2228" data-name="Path 2228" d="M38.815,10.8a2.422,2.422,0,0,0-1.319.383L25.233,18.924a1.213,1.213,0,0,0-.567,1.021V30.72a1.213,1.213,0,0,0,.567,1.021L37.5,39.481a2.548,2.548,0,0,0,1.319.383h2.949a1.207,1.207,0,0,0,1.219-1.205V12.005A1.216,1.216,0,0,0,41.764,10.8Z" transform="translate(21.961 1.829)"/>
    <path id="Path_2229" data-name="Path 2229" d="M34.366,45.295H9.1A7.108,7.108,0,0,1,2.25,38.008V16.287A7.1,7.1,0,0,1,9.085,9H34.353a7.1,7.1,0,0,1,6.836,7.287V37.993A7.081,7.081,0,0,1,34.366,45.295Z" transform="translate(2.574)"/>
  </g>
</svg>
