<svg xmlns="http://www.w3.org/2000/svg" width="25.79" height="35" viewBox="0 0 25.79 35">
  <path id="Icon_metro-keyboard-voice" data-name="Icon metro-keyboard-voice" d="M21.893,28.533A5.515,5.515,0,0,0,27.4,23.006l.018-11.053a5.526,5.526,0,1,0-11.053,0V23.006A5.531,5.531,0,0,0,21.893,28.533Zm9.763-5.526A9.553,9.553,0,0,1,21.893,32.4a9.558,9.558,0,0,1-9.763-9.395H9A12.85,12.85,0,0,0,20.05,35.385v6.042h3.684V35.385A12.85,12.85,0,0,0,34.788,23.006H31.656Z" transform="translate(-8.998 -6.428)" fill="#28896f"/>
</svg>
