<svg xmlns="http://www.w3.org/2000/svg" width="76.468" height="34.41" viewBox="0 0 76.468 34.41">
  <path id="Icon_payment-invoice" data-name="Icon payment-invoice" d="M79.638,29.28,71.353,21a8.733,8.733,0,0,0-.708-.567v9.559H80.2a8.612,8.612,0,0,0-.566-.707Zm-8.983,3.567a2.341,2.341,0,0,1-1.912-.956,2.441,2.441,0,0,1-.956-1.912V18.509H10.37a4.651,4.651,0,0,0-3.317,1.517,4.175,4.175,0,0,0-1.4,3.317V48.41a4.176,4.176,0,0,0,1.4,3.317,4.344,4.344,0,0,0,3.317,1.193H77.411a4.346,4.346,0,0,0,3.317-1.193,4.179,4.179,0,0,0,1.4-3.317V32.847H70.655ZM13,47.988H10.435l2.627-11.143H15.63Zm13.033,0H23.157l-3-8.43h-.051l-.033.244q-.27,1.646-.555,2.942L18.3,47.988H15.984l2.6-11.142h3.006l2.863,8.208h.033q.1-.579.329-1.654t1.515-6.554H28.64l-2.6,11.142Zm5.136,0L30.1,36.846h2.483l.429,6.707c.022.228.033.567.033,1.013q-.017.786-.051,1.143h.059a20.764,20.764,0,0,1,.926-2.156l3.637-6.707h2.66l-6.3,11.143H31.172ZM49.948,44.7a5.951,5.951,0,0,1-2.282,2.572,6.355,6.355,0,0,1-3.335.869,4.75,4.75,0,0,1-3.364-1.124A4.051,4.051,0,0,1,39.76,43.9a8.311,8.311,0,0,1,.834-3.715,6.176,6.176,0,0,1,2.3-2.6,6.294,6.294,0,0,1,3.385-.907,4.7,4.7,0,0,1,3.325,1.1,3.991,3.991,0,0,1,1.179,3.071,8.665,8.665,0,0,1-.833,3.861Zm4.378,3.288H51.758l2.627-11.143h2.568L54.326,47.988Zm6.765-2.446a2.413,2.413,0,0,0,1.84.617,8.507,8.507,0,0,0,2.846-.587v1.982a10.133,10.133,0,0,1-3.368.587A4.605,4.605,0,0,1,59.084,47,4.264,4.264,0,0,1,57.9,43.774a7.833,7.833,0,0,1,.876-3.677,6.239,6.239,0,0,1,2.341-2.553,6.451,6.451,0,0,1,3.368-.873,9.193,9.193,0,0,1,1.869.171,7.575,7.575,0,0,1,1.751.629l-.993,1.905a7.47,7.47,0,0,0-1.473-.595,4.747,4.747,0,0,0-1.154-.144,3.42,3.42,0,0,0-2,.617,4.27,4.27,0,0,0-1.427,1.818,6.224,6.224,0,0,0-.539,2.58,2.691,2.691,0,0,0,.576,1.89Zm15.8-6.761H72.58l-.564,2.446h4.017l-.463,1.936H71.553l-.674,2.873H75.19l-.455,1.951H67.857l2.6-11.143h6.887l-.455,1.937Zm-30.824-.144a2.881,2.881,0,0,0-1.87.7,4.621,4.621,0,0,0-1.334,1.916,7.1,7.1,0,0,0-.484,2.645,2.323,2.323,0,0,0,.56,1.692,2.109,2.109,0,0,0,1.579.572,2.916,2.916,0,0,0,1.856-.663,4.323,4.323,0,0,0,1.31-1.874,7.445,7.445,0,0,0,.471-2.72,2.369,2.369,0,0,0-.548-1.673,1.994,1.994,0,0,0-1.541-.592Z" transform="translate(-5.656 -18.509)" fill="#fff"/>
</svg>
