<svg xmlns="http://www.w3.org/2000/svg" width="1024.029" height="1024" viewBox="0 0 1024.029 1024">
  <g id="Instagram_logo" transform="translate(-1249.027 -97.031)">
    <path id="Path_2301" data-name="Path 2301" d="M530.062,18c-139.056,0-156.507.608-211.123,3.093-54.509,2.5-91.716,11.125-124.271,23.787-33.676,13.077-62.242,30.571-90.7,59.04-28.481,28.459-45.975,57.024-59.1,90.688-12.694,32.565-21.334,69.781-23.788,124.267C18.64,373.488,18,390.949,18,530s.619,156.448,3.093,211.061C23.6,795.568,32.23,832.773,44.881,865.328c13.088,33.675,30.583,62.24,59.053,90.7,28.449,28.48,57.016,46.016,90.67,59.093,32.577,12.661,69.795,21.291,124.293,23.787,54.615,2.485,72.056,3.093,211.1,3.093,139.067,0,156.465-.608,211.08-3.093,54.509-2.5,91.758-11.125,124.335-23.787,33.665-13.077,62.189-30.613,90.638-59.093,28.481-28.459,45.975-57.024,59.1-90.688,12.587-32.565,21.228-69.781,23.788-124.267,2.453-54.613,3.094-72.021,3.094-211.072s-.64-156.5-3.094-211.115c-2.56-54.507-11.2-91.712-23.788-124.267-13.12-33.675-30.614-62.24-59.1-90.7-28.481-28.48-56.962-45.973-90.67-59.04C832.741,32.219,795.513,23.589,741,21.093,686.388,18.608,669,18,529.9,18ZM484.13,110.267c13.632-.021,28.844,0,45.932,0,136.709,0,152.913.491,206.9,2.944,49.922,2.283,77.016,10.624,95.065,17.632,23.894,9.28,40.93,20.373,58.84,38.293s29.015,34.987,38.316,58.88c7.008,18.027,15.361,45.12,17.633,95.04,2.454,53.973,2.987,70.187,2.987,206.827s-.533,152.853-2.987,206.827c-2.283,49.92-10.624,77.013-17.633,95.04-9.28,23.893-20.4,40.907-38.316,58.816s-34.935,29.013-58.84,38.293C814,935.9,786.883,944.219,736.961,946.5c-53.975,2.453-70.189,2.987-206.9,2.987s-152.923-.533-206.9-2.987c-49.922-2.3-77.016-10.645-95.076-17.653-23.894-9.28-40.962-20.373-58.882-38.293s-29.014-34.944-38.316-58.848c-7.008-18.027-15.361-45.12-17.633-95.04-2.453-53.973-2.944-70.187-2.944-206.912s.491-152.853,2.944-206.827c2.283-49.92,10.624-77.013,17.633-95.061,9.28-23.893,20.4-40.96,38.316-58.88s34.988-29.013,58.882-38.315c18.049-7.04,45.154-15.36,95.076-17.653,47.234-2.133,65.539-2.773,160.966-2.88ZM803.374,195.28a61.429,61.429,0,1,0,0-.021ZM530.062,267.067c-145.211,0-262.944,117.728-262.944,262.933S384.851,792.88,530.062,792.88s262.9-117.675,262.9-262.88-117.7-262.933-262.911-262.933Zm0,92.267A170.667,170.667,0,1,1,359.389,530,170.671,170.671,0,0,1,530.062,359.333Z" transform="translate(1231.027 79.031)" fill="#fff"/>
  </g>
</svg>
