<svg xmlns="http://www.w3.org/2000/svg" width="23.659" height="23.672" viewBox="0 0 23.659 23.672">
  <path id="Icon_ionic-ios-key" data-name="Icon ionic-ios-key" d="M19.55,12.646a6.155,6.155,0,0,0-2.038.223C14.754,10.52,7.468,4.318,6.912,3.74a1.1,1.1,0,0,0-.818-.365A1.819,1.819,0,0,0,4.933,3.9c-.376.36-1.8,1.9-1.526,2.18.818.839,1.036,1.008,1.373,1.352.507.518,1.542-.055,1.962.125a.8.8,0,0,1,.567.681,10.185,10.185,0,0,1-.164,1.292,1.363,1.363,0,0,0,.5,1.036,1.147,1.147,0,0,0,.85.474c.491.011,1.139-.7,1.657-.169s-.338,1.292-.273,1.853a2.058,2.058,0,0,0,1.177,1.313c.332.071,1.188-.638,1.673-.529a1.137,1.137,0,0,1,.6.621c.055.251-.376,1.363-.322,1.613a3.832,3.832,0,0,0,.567.948,6.138,6.138,0,0,0-.512,2.6,6.632,6.632,0,0,0,6.5,6.758,6.623,6.623,0,0,0,6.486-6.758A6.532,6.532,0,0,0,19.55,12.646Zm1.264,9.914a1.744,1.744,0,1,1,1.744-1.744A1.742,1.742,0,0,1,20.815,22.559Z" transform="translate(-2.888 -2.875)" fill="none" stroke="#000" stroke-width="1"/>
</svg>
