<svg xmlns="http://www.w3.org/2000/svg" width="26.414" height="31.217" viewBox="0 0 26.414 31.217">
  <path id="Icon_ionic-md-notifications-outline" data-name="Icon ionic-md-notifications-outline" d="M18.907,8.813a10.848,10.848,0,0,1,1.794.336,7.647,7.647,0,0,1,5.829,7.493v9.576l.7.7.584.587H9.85l.584-.587.7-.7V16.642a7.647,7.647,0,0,1,5.829-7.493,13.284,13.284,0,0,1,1.794-.336m.075-5.438A2.294,2.294,0,0,0,16.5,5.716V6.809a10.117,10.117,0,0,0-7.769,9.833v8.585L5.625,28.348v1.561H32.039V28.348l-3.107-3.122V16.642a10.117,10.117,0,0,0-7.769-9.833V5.716a2.294,2.294,0,0,0-2.331-2.341Zm3.107,28.1H15.724a3.108,3.108,0,1,0,6.215,0Z" transform="translate(-5.625 -3.375)"/>
</svg>
