<svg xmlns="http://www.w3.org/2000/svg" width="1920.775" height="250.412" viewBox="0 0 1920.775 250.412">
  <g id="Group_1453" data-name="Group 1453" transform="translate(-0.804 -3176)">
    <g id="Group_1359" data-name="Group 1359" transform="translate(-12530 -933)">
      <path id="Path_1767" data-name="Path 1767" d="M0,0H1920V249H0Z" transform="translate(12531 4110)" fill="#3b1623"/>
      <path id="Path_1768" data-name="Path 1768" d="M13199.459,4294.81s-309.5-11.324-344.918-45.131c-42.59,7.092-241.834,42.138-323.544-142.025,170.289.674,472.189,0,472.189,0s185.443,6.37,265.844,57.333-142.752-53.5-141.206,0c.887,30.71,138.493,122.958,141.206,170.7,1.982,34.886-30.906,10.233-120.226,19.972C12920.829,4356.452,13199.459,4294.81,13199.459,4294.81Z" transform="translate(0 2.347)" fill="#ff1465"/>
      <path id="Path_1770" data-name="Path 1770" d="M12828.811,4355.656s-11.347-72.169,25.982-105.977c44.884,7.092,254.859,42.138,340.971-142.026-179.461.674-651.084,0-651.084,0s295.544,67.214,210.813,118.178-209.184-93.289-210.812-39.785c-.935,30.71-105.4-99.356-108.259-51.617-2.09,34.886,14.129,211.488,108.259,221.227C12784.934,4356.455,12828.811,4355.656,12828.811,4355.656Z" transform="translate(1254.788 2.347)" fill="#009a2f"/>
      <path id="Path_1766" data-name="Path 1766" d="M12531,4109s325.385,28.368,429.562,90.721-12.854,158.69-12.854,158.69H12531Z" transform="translate(0 1)" fill="#3964d9"/>
      <path id="Path_1769" data-name="Path 1769" d="M13003.75,4109s-325.385,28.482-429.562,91.085,12.854,159.327,12.854,159.327h416.708Z" transform="translate(1446.798)" fill="#ff9d00"/>
      <path id="Path_1771" data-name="Path 1771" d="M13482.429,4107.653v247.219" transform="translate(0 2.347)" fill="none" stroke="#9482f2" stroke-width="1"/>
      <path id="Path_1772" data-name="Path 1772" d="M13471.454,4109.73c21.135,81.185,0,248.85,0,248.85" transform="translate(-6)" fill="none" stroke="#9482f2" stroke-width="1"/>
      <path id="Path_1774" data-name="Path 1774" d="M13480.847,4109.73c-21.135,81.185,0,248.85,0,248.85" transform="translate(19.001)" fill="none" stroke="#9482f2" stroke-width="1"/>
      <path id="Path_1773" data-name="Path 1773" d="M13471.454,4109.73c21.135,81.185,0,248.85,0,248.85" transform="translate(-15)" fill="none" stroke="#9482f2" stroke-width="1"/>
      <path id="Path_1775" data-name="Path 1775" d="M13480.847,4109.73c-21.135,81.185,0,248.85,0,248.85" transform="translate(28.001)" fill="none" stroke="#9482f2" stroke-width="1"/>
    </g>
    <g id="Group_1360" data-name="Group 1360" transform="translate(0 -48.266)" opacity="0.607">
      <path id="Path_1776" data-name="Path 1776" d="M12585-2238.053s164.8,32.644,388.473,32.644,268.588-36.929,506.24-32.644,225,49.786,444.365,49.786,312.041-49.786,433.094-49.786,146.887,32.644,146.887,32.644" transform="translate(-12583.213 5575.845)" fill="none" stroke="#fff" stroke-width="0.5"/>
      <path id="Path_1777" data-name="Path 1777" d="M12585-2238.053s164.8,32.644,388.473,32.644,268.588-36.929,506.24-32.644,225,49.786,444.365,49.786,312.041-49.786,433.094-49.786,146.887,32.644,146.887,32.644" transform="translate(-12583.213 5581.832)" fill="none" stroke="#fff" stroke-width="1"/>
      <path id="Path_1781" data-name="Path 1781" d="M0,0S166.127,63.016,389.413,66.393,655.709,1.976,893.16,13.51s227.075,95.71,446.059,99.022,309.038-87.6,429.881-85.773,148.247,62.746,148.247,62.746" transform="matrix(0.999, -0.035, 0.035, 0.999, 0.997, 3343.136)" fill="none" stroke="#fff" stroke-width="1"/>
      <path id="Path_1778" data-name="Path 1778" d="M0,21.519s163.427,30.67,387,27.96S656.931,9.27,894.3,10.679s222.924,47.1,442.189,44.438S1650.365,1.515,1771.362.048s145.525,30.887,145.525,30.887" transform="matrix(1, 0.017, -0.017, 1, 3.809, 3270.9)" fill="none" stroke="#fff" stroke-width="0.5"/>
      <path id="Path_1779" data-name="Path 1779" d="M.566,52.415s163.2,62.075,386.727,58.969,270.088-76.541,507.381-71.39,222.589,95.038,441.806,91.993S1650.573,29.494,1771.545,27.814s145.3,62.323,145.3,62.323" transform="matrix(0.999, 0.035, -0.035, 0.999, 6.264, 3246.688)" fill="none" stroke="#fff" stroke-width="0.5"/>
      <path id="Path_1780" data-name="Path 1780" d="M0,.346S164.8,32.99,388.473,32.99,657.06-3.94,894.712.346s225,49.786,444.366,49.786S1651.119.346,1772.171.346,1919.058,32.99,1919.058,32.99" transform="translate(1.787 3333.457)" fill="none" stroke="#fff" stroke-width="0.5"/>
    </g>
  </g>
</svg>
