<svg xmlns="http://www.w3.org/2000/svg" width="1266.058" height="1024" viewBox="0 0 1266.058 1024">
  <g id="LinkedIn_Logo_2013" transform="translate(-944.731 0)">
    <path id="Path_2525" data-name="Path 2525" d="M1199.878,314.856a19.826,19.826,0,0,0,19.991-20.967c0-14.869-8.971-21.974-27.377-21.974h-29.74v77.851h11.186V315.831h13.746l.314.413,21.33,33.523h11.962l-22.95-34.7Zm-12.935-7.8h-12.969v-26.32h16.438c8.494,0,18.174,1.388,18.174,12.507,0,12.787-9.8,13.812-21.709,13.812" transform="translate(948.714 640.78)" fill="#fff"/>
    <path id="Path_2520" data-name="Path 2520" d="M1815.86,923.418H1657.252V687.56c0-56.242-1.058-128.644-82.494-128.644-82.608,0-95.248,61.278-95.248,124.549V923.4H1320.9V438.383h152.264v66.283h2.132c31.047-50.407,88.776-80.514,150.232-78.347,160.758,0,190.4,100.405,190.4,231.026ZM1141.938,372.084c-50.852,0-92.06-39.13-92.06-87.4s41.208-87.4,92.042-87.4,92.044,39.13,92.044,87.4-41.2,87.391-92.026,87.4m79.3,551.334H1062.467V438.383h158.774ZM1894.934,57.424H982.766c-43.111-.462-78.463,32.329-78.99,73.264v869.744c.51,40.956,35.859,73.778,78.991,73.343h912.168c43.217.515,78.706-32.307,79.3-73.343V130.625c-.616-41.017-36.109-73.806-79.306-73.264" transform="translate(40.957 -57.355)" fill="#fff"/>
    <path id="Path_2526" data-name="Path 2526" d="M1224.446,264.22a72.994,72.994,0,1,0,1.4,0h-1.4m0,137.626a64.006,64.006,0,1,1,62.929-65.063c0,.363,0,.711,0,1.074a62.632,62.632,0,0,1-61.264,63.956h-1.651" transform="translate(912.648 613.797)" fill="#fff"/>
  </g>
</svg>
