<svg xmlns="http://www.w3.org/2000/svg" width="137.6" height="176" viewBox="0 0 137.6 176">
  <g id="Group_232" data-name="Group 232" transform="translate(-64.736 -0.07)">
    <g id="Group_223" data-name="Group 223" transform="translate(85.059 0.07)">
      <path id="Path_764" data-name="Path 764" d="M500.952,182.016c27.469,0,49.737,22.578,49.737,50.424s-22.268,50.424-49.737,50.424-49.736-22.578-49.736-50.424,22.267-50.424,49.736-50.424" transform="translate(-451.216 -182.016)" fill="#c00" fill-rule="evenodd"/>
      <path id="Path_765" data-name="Path 765" d="M545.4,263.178a19.233,19.233,0,0,1-4.555,4.221,8.492,8.492,0,0,1-7.94.87c-3.31-1.285-7.279-4.794-7.906-8.353s2.086-7.166.184-5.553-8.42,8.446-11.565,11.712-2.917,2.965-1.591,1.782,3.752-3.246,5.325-4.763a39.678,39.678,0,0,0,3.028-3.328,6.172,6.172,0,0,0,1.8-2.966,5.932,5.932,0,0,0-1.124-5.03c-1.31-1.491-3.8-2.353-6.791.486s-6.465,9.372-10.422,13a16.264,16.264,0,0,1-22.471-.934,20.659,20.659,0,0,1-5.882-13.269,21.591,21.591,0,0,1,5.319-14.352c3.055-3.231,6.755-3.889,11-3.642s9.027,1.4,12.87,1.1,6.745-2.05,7.968-4.447a6.706,6.706,0,0,0-.97-7.373c-1.742-1.935-4.778-2.769-8.215-2.848s-7.277.586-12.3,1.6-11.244,2.374-16.868,1.86-11.658-3.426-16.692-5.815" transform="translate(-452.484 -189.003)" fill="none" stroke="#fbffff" stroke-linecap="round" stroke-miterlimit="22.926" stroke-width="1"/>
    </g>
    <text id="An_initiative_by_Antaran_Part_of_TataTrusts" data-name="An initiative by Antaran
Part of TataTrusts" transform="translate(129 161.07)" fill="#707070" font-size="11" font-family="Lato-Regular, Lato"><tspan x="-56.587" y="0">An initiative by Antaran</tspan><tspan x="-41.244" y="13">Part of TataTrusts</tspan></text>
    <text id="Craft_Xchange" data-name="Craft Xchange" transform="translate(85 125.07)" fill="#c00" font-size="15" font-family="Avenir-Roman, Avenir"><tspan x="0" y="0">Craft Xchange</tspan></text>
    <line id="Line_14" data-name="Line 14" x2="137.6" transform="translate(64.736 141.116)" fill="none" stroke="#707070" stroke-width="1" opacity="0.304"/>
  </g>
</svg>
