<svg id="Group_232" data-name="Group 232" xmlns="http://www.w3.org/2000/svg" width="244.291" height="97.716" viewBox="0 0 244.291 97.716">
  <g id="Group_223" data-name="Group 223" transform="translate(0 0)">
    <path id="Path_764" data-name="Path 764" d="M499.408,182.016c26.616,0,48.193,21.877,48.193,48.858s-21.577,48.859-48.193,48.859-48.192-21.877-48.192-48.859,21.576-48.858,48.192-48.858" transform="translate(-451.216 -182.016)" fill="#c00" fill-rule="evenodd"/>
    <path id="Path_765" data-name="Path 765" d="M542.675,261.748a18.636,18.636,0,0,1-4.414,4.09,8.228,8.228,0,0,1-7.693.843c-3.207-1.245-7.053-4.645-7.661-8.093s2.021-6.944.178-5.381-8.159,8.183-11.206,11.348-2.827,2.873-1.542,1.727,3.635-3.145,5.16-4.615a38.469,38.469,0,0,0,2.934-3.225,5.98,5.98,0,0,0,1.74-2.874,5.748,5.748,0,0,0-1.089-4.874c-1.269-1.445-3.687-2.28-6.58.471s-6.265,9.081-10.1,12.6a15.759,15.759,0,0,1-21.773-.905,20.018,20.018,0,0,1-5.7-12.857,20.921,20.921,0,0,1,5.154-13.906c2.96-3.131,6.545-3.768,10.656-3.529s8.747,1.356,12.47,1.066,6.536-1.987,7.72-4.309a6.5,6.5,0,0,0-.94-7.144c-1.688-1.875-4.63-2.683-7.96-2.759s-7.051.568-11.922,1.55-10.895,2.3-16.344,1.8-11.3-3.319-16.173-5.634" transform="translate(-452.643 -189.877)" fill="none" stroke="#fbffff" stroke-linecap="round" stroke-miterlimit="22.926" stroke-width="2"/>
  </g>
  <text id="An_initiative_by_Antaran_Part_of_TataTrusts" data-name="An initiative by Antaran
Part of TataTrusts" transform="translate(170.541 61.07)" fill="#707070" font-size="12" font-family="Lato-Regular, Lato"><tspan x="-61.731" y="0">An initiative by Antaran</tspan><tspan x="-44.994" y="15">Part of TataTrusts</tspan></text>
  <text id="Craft_Xchange" data-name="Craft Xchange" transform="translate(118.573 29.82)" fill="#c00" font-size="16" font-family="Avenir-Roman, Avenir"><tspan x="0" y="0">Craft Xchange</tspan></text>
  <line id="Line_14" data-name="Line 14" x2="133.327" transform="translate(110.964 42.385)" fill="none" stroke="#707070" stroke-width="1" opacity="0.304"/>
</svg>
