<svg xmlns="http://www.w3.org/2000/svg" width="132" height="126.26" viewBox="0 0 132 126.26">
  <g id="Group_2257" data-name="Group 2257" transform="translate(-73 -229.74)">
    <g id="Group_223" data-name="Group 223" transform="translate(94.478 229.741)">
      <path id="Path_764" data-name="Path 764" d="M495.391,182.016c24.4,0,44.175,20.054,44.175,44.785s-19.778,44.786-44.175,44.786-44.175-20.054-44.175-44.786,19.777-44.785,44.175-44.785" transform="translate(-451.216 -182.016)" fill="#c00" fill-rule="evenodd"/>
      <path id="Path_765" data-name="Path 765" d="M535.582,258.029a17.083,17.083,0,0,1-4.046,3.749,7.542,7.542,0,0,1-7.052.773c-2.94-1.141-6.465-4.258-7.022-7.419s1.853-6.365.163-4.932-7.478,7.5-10.271,10.4-2.591,2.633-1.413,1.583,3.332-2.883,4.73-4.23A35.23,35.23,0,0,0,513.36,255a5.48,5.48,0,0,0,1.595-2.635,5.268,5.268,0,0,0-1-4.468c-1.163-1.324-3.379-2.09-6.032.431s-5.742,8.324-9.256,11.548a14.445,14.445,0,0,1-19.958-.83,18.348,18.348,0,0,1-5.225-11.786,19.176,19.176,0,0,1,4.724-12.747c2.714-2.87,6-3.454,9.768-3.234s8.018,1.243,11.431.977,5.991-1.821,7.077-3.95a5.956,5.956,0,0,0-.861-6.549c-1.548-1.719-4.244-2.459-7.3-2.529a51.467,51.467,0,0,0-10.928,1.421c-4.465.9-9.986,2.109-14.982,1.652s-10.354-3.043-14.825-5.165" transform="translate(-453.056 -192.149)" fill="none" stroke="#fbffff" stroke-linecap="round" stroke-miterlimit="22.926" stroke-width="2"/>
    </g>
    <text id="Craft_Xchange" data-name="Craft Xchange" transform="translate(138.999 348.999)" fill="#c00" font-size="20" font-family="Avenir-Medium, Avenir" font-weight="500"><tspan x="-65.02" y="0">Craft Xchange</tspan></text>
  </g>
</svg>
