<svg xmlns="http://www.w3.org/2000/svg" width="174.122" height="58.659" viewBox="0 0 174.122 58.659">
  <g id="Group_269" data-name="Group 269" transform="translate(-406.232 -1.652)">
    <g id="Group_223" data-name="Group 223">
      <path id="Path_764" data-name="Path 764" d="M434.906,1.652a28.674,28.674,0,1,1-28.674,28.674A28.675,28.675,0,0,1,434.906,1.652" fill="#c00" fill-rule="evenodd"/>
      <path id="Path_765" data-name="Path 765" d="M459.858,44.277a11.148,11.148,0,0,1-2.635,2.462,4.878,4.878,0,0,1-4.592.508c-1.914-.75-4.21-2.8-4.573-4.872s1.207-4.18.107-3.239-4.87,4.926-6.689,6.831-1.687,1.729-.92,1.04,2.169-1.893,3.08-2.778a23.349,23.349,0,0,0,1.751-1.942,3.6,3.6,0,0,0,1.038-1.73,3.481,3.481,0,0,0-.65-2.934c-.757-.87-2.2-1.372-3.927.284s-3.739,5.466-6.028,7.585a9.35,9.35,0,0,1-13-.545,12.1,12.1,0,0,1-3.4-7.74,12.649,12.649,0,0,1,3.076-8.37c1.767-1.885,3.906-2.269,6.36-2.125s5.221.816,7.443.642a5.445,5.445,0,0,0,4.608-2.594,3.938,3.938,0,0,0-.561-4.3A6.487,6.487,0,0,0,435.6,18.8a33.262,33.262,0,0,0-7.116.933c-2.907.591-6.5,1.384-9.755,1.083s-6.745-2-9.654-3.391" fill="none" stroke="#fbffff" stroke-linecap="round" stroke-miterlimit="22.926" stroke-width="1.25"/>
    </g>
    <g id="Group_254" data-name="Group 254">
      <g id="An_initiative_of_Tata_Trusts" data-name="An initiative of Tata Trusts" style="isolation: isolate">
        <text id="An_initiative_of_Tata_Trusts-2" data-name="An initiative of
Tata Trusts" transform="translate(520.972 41.311)" fill="#707070" font-size="11.888" font-family="Avenir-Book, Avenir" style="isolation: isolate"><tspan x="-38.186" y="0">An initiative of</tspan><tspan x="-27.73" y="14.266">Tata Trusts</tspan></text>
      </g>
      <g id="Craft_Xchange" data-name="Craft Xchange" style="isolation: isolate">
        <text id="Craft_Xchange-2" data-name="Craft Xchange" transform="translate(476.153 20.807)" fill="#c00" font-size="14.997" font-family="Avenir-Roman, Avenir" style="isolation: isolate"><tspan x="0" y="0">Craft Xchange</tspan></text>
      </g>
      <path id="Path_810" data-name="Path 810" d="M468.425,27.724H579.854" fill="none" stroke="#a8a8a8" stroke-linecap="round" stroke-width="1"/>
    </g>
  </g>
</svg>
