<svg xmlns="http://www.w3.org/2000/svg" width="19.38" height="19.38" viewBox="0 0 19.38 19.38">
  <path id="Icon_material-account-circle" data-name="Icon material-account-circle" d="M12.19,3a9.19,9.19,0,1,0,9.19,9.19A9.193,9.193,0,0,0,12.19,3Zm0,2.757A2.757,2.757,0,1,1,9.433,8.514,2.753,2.753,0,0,1,12.19,5.757Zm0,13.05a6.617,6.617,0,0,1-5.514-2.959c.028-1.829,3.676-2.831,5.514-2.831s5.486,1,5.514,2.831a6.617,6.617,0,0,1-5.514,2.959Z" transform="translate(-2.5 -2.5)" fill="none" stroke="#000" stroke-width="1"/>
</svg>
