<svg xmlns="http://www.w3.org/2000/svg" width="15.2" height="19.949" viewBox="0 0 15.2 19.949">
  <path id="Icon_material-lock-outline" data-name="Icon material-lock-outline" d="M13.6,16.7a1.9,1.9,0,1,0-1.9-1.9A1.906,1.906,0,0,0,13.6,16.7Zm5.7-8.55h-.95V6.25a4.75,4.75,0,1,0-9.5,0v1.9H7.9A1.906,1.906,0,0,0,6,10.05v9.5a1.906,1.906,0,0,0,1.9,1.9H19.3a1.906,1.906,0,0,0,1.9-1.9v-9.5A1.906,1.906,0,0,0,19.3,8.15Zm-8.645-1.9a2.945,2.945,0,1,1,5.89,0v1.9h-5.89Zm8.645,13.3H7.9v-9.5H19.3Z" transform="translate(-6 -1.5)"/>
</svg>
