<svg xmlns="http://www.w3.org/2000/svg" width="19.37" height="22.37" viewBox="0 0 19.37 22.37">
  <path id="Icon_material-receipt" data-name="Icon material-receipt" d="M19.808,19.027H7.562V16.891H19.808Zm0-4.274H7.562V12.616H19.808Zm0-4.274H7.562V8.342H19.808ZM4.5,24.37l1.531-1.6,1.531,1.6,1.531-1.6,1.531,1.6,1.531-1.6,1.531,1.6,1.531-1.6,1.531,1.6,1.531-1.6,1.531,1.6,1.531-1.6,1.531,1.6V3L21.339,4.6,19.808,3,18.278,4.6,16.747,3,15.216,4.6,13.685,3,12.154,4.6,10.623,3,9.093,4.6,7.562,3,6.031,4.6,4.5,3Z" transform="translate(-4 -2.5)" fill="none" stroke="#000" stroke-linecap="round" stroke-linejoin="round" stroke-width="1"/>
</svg>
