<svg xmlns="http://www.w3.org/2000/svg" width="21.316" height="21.316" viewBox="0 0 21.316 21.316">
  <path id="Icon_material-help" data-name="Icon material-help" d="M13.283,3A10.283,10.283,0,1,0,23.566,13.283,10.287,10.287,0,0,0,13.283,3Zm1.028,17.481H12.255V18.425h2.057Zm2.129-7.969-.925.946a3.5,3.5,0,0,0-1.2,2.91H12.255v-.514a4.139,4.139,0,0,1,1.2-2.91l1.275-1.3a2.011,2.011,0,0,0,.607-1.45,2.057,2.057,0,1,0-4.113,0H9.17a4.113,4.113,0,0,1,8.227,0A3.272,3.272,0,0,1,16.44,12.512Z" transform="translate(-2.625 -2.625)" fill="none" stroke="#000" stroke-width="0.75"/>
</svg>
