<svg xmlns="http://www.w3.org/2000/svg" width="135" height="135" viewBox="0 0 135 135">
  <g id="Group_1279" data-name="Group 1279" transform="translate(-751 -6735)">
    <g id="Group_1278" data-name="Group 1278">
      <circle id="Ellipse_236" data-name="Ellipse 236" cx="67.5" cy="67.5" r="67.5" transform="translate(751 6735)" fill="#fff"/>
      <g id="Group_1239" data-name="Group 1239">
        <g id="Icon_feather-scissors" data-name="Icon feather-scissors" transform="matrix(0.966, 0.259, -0.259, 0.966, 778.229, 6772.116)">
          <path id="Path_890" data-name="Path 890" d="M18.5,11.5a7,7,0,1,1-7-7A7,7,0,0,1,18.5,11.5Z" transform="matrix(0.921, -0.391, 0.391, 0.921, -7.587, 11.44)" fill="none" stroke="#3b8b91" stroke-linecap="round" stroke-linejoin="round" stroke-width="3"/>
          <path id="Path_891" data-name="Path 891" d="M18.5,29.5a7,7,0,1,1-7-7A7,7,0,0,1,18.5,29.5Z" transform="translate(0 9.993)" fill="none" stroke="#3b8b91" stroke-linecap="round" stroke-linejoin="round" stroke-width="3"/>
          <path id="Path_892" data-name="Path 892" d="M39.893,6,12.18,33.713" transform="translate(4.264 0.833)" fill="none" stroke="#3b8b91" stroke-linecap="round" stroke-linejoin="round" stroke-width="3"/>
          <path id="Path_893" data-name="Path 893" d="M21.7,21.72,40.367,40.348" transform="matrix(0.921, -0.391, 0.391, 0.921, -2.611, 13.465)" fill="none" stroke="#3b8b91" stroke-linecap="round" stroke-linejoin="round" stroke-width="3"/>
          <path id="Path_894" data-name="Path 894" d="M12.18,12.18l9.051,9.051" transform="matrix(0.921, -0.391, 0.391, 0.921, -1.997, 13.699)" fill="none" stroke="#3b8b91" stroke-linecap="round" stroke-linejoin="round" stroke-width="3"/>
        </g>
        <line id="Line_898" data-name="Line 898" x2="16" transform="translate(810.5 6802.5)" fill="none" stroke="#3b8b91" stroke-linecap="round" stroke-width="2"/>
        <line id="Line_899" data-name="Line 899" x2="17" transform="translate(833.5 6802.5)" fill="none" stroke="#3b8b91" stroke-linecap="round" stroke-width="2"/>
        <line id="Line_900" data-name="Line 900" x2="16" transform="translate(856.5 6802.5)" fill="none" stroke="#3b8b91" stroke-linecap="round" stroke-width="2"/>
      </g>
    </g>
  </g>
</svg>
