<svg xmlns="http://www.w3.org/2000/svg" width="27.987" height="28.185" viewBox="0 0 27.987 28.185">
  <g id="Group_1935" data-name="Group 1935" transform="translate(-565.188 -190.666)">
    <path id="Icon_awesome-receipt" data-name="Icon awesome-receipt" d="M15.529.14,13.865,2.109,11.508.14a.681.681,0,0,0-.832,0L8.319,2.109,5.962.14a.681.681,0,0,0-.832,0L2.773,2.109,1.109.14A.692.692,0,0,0,0,.7V21.8a.692.692,0,0,0,1.109.563L2.773,20.39,5.13,22.359a.681.681,0,0,0,.832,0L8.319,20.39l2.357,1.969a.681.681,0,0,0,.832,0l2.357-1.969,1.664,1.969a.693.693,0,0,0,1.109-.563V.7A.692.692,0,0,0,15.529.14ZM13.865,15.82a.35.35,0,0,1-.347.352H3.12a.35.35,0,0,1-.347-.352v-.7a.35.35,0,0,1,.347-.352h10.4a.35.35,0,0,1,.347.352Zm0-4.219a.35.35,0,0,1-.347.352H3.12a.35.35,0,0,1-.347-.352v-.7a.35.35,0,0,1,.347-.352h10.4a.35.35,0,0,1,.347.352Zm0-4.219a.35.35,0,0,1-.347.352H3.12a.35.35,0,0,1-.347-.352v-.7a.35.35,0,0,1,.347-.352h10.4a.35.35,0,0,1,.347.352Z" transform="translate(565.688 195.818)" fill="none" stroke="#000" stroke-width="1"/>
    <path id="Icon_awesome-star-of-life" data-name="Icon awesome-star-of-life" d="M5.811,4.117,4.137,3.152l1.673-.966a.2.2,0,0,0,.072-.269l-.394-.682a.2.2,0,0,0-.269-.072l-1.673.966V.2a.2.2,0,0,0-.2-.2H2.56a.2.2,0,0,0-.2.2V2.128L.69,1.162a.2.2,0,0,0-.269.072l-.394.682A.2.2,0,0,0,.1,2.186l1.673.966L.1,4.117a.2.2,0,0,0-.072.269l.394.682a.2.2,0,0,0,.269.072l1.673-.966V6.106a.2.2,0,0,0,.2.2h.788a.2.2,0,0,0,.2-.2V4.175l1.673.966a.2.2,0,0,0,.269-.072l.394-.682A.2.2,0,0,0,5.811,4.117Z" transform="translate(584.75 190.666)"/>
    <path id="Icon_awesome-caret-down" data-name="Icon awesome-caret-down" d="M1.178,13.5H6.12a.383.383,0,0,1,.271.655l-2.47,2.472a.385.385,0,0,1-.543,0L.908,14.155A.383.383,0,0,1,1.178,13.5Z" transform="translate(586.672 191.236)"/>
  </g>
</svg>
