<svg xmlns="http://www.w3.org/2000/svg" width="1922.433" height="276.923" viewBox="0 0 1922.433 276.923">
  <g id="Group_1659" data-name="Group 1659" transform="translate(1.502 -2577.607)">
    <g id="Group_1485" data-name="Group 1485" transform="translate(0 -644)">
      <g id="Group_1477" data-name="Group 1477" transform="translate(0 1)">
        <path id="Path_1973" data-name="Path 1973" d="M12651.59-7665.208s139.484-18.884,124.926,43.462-73.918,127.73-124.926,177.345c-100.107-99.045-123.9-140.382-124.458-177.345s26.744-70.421,59.74-72.042,199.272,218.827,313.165,161.725,218.227-135.055,341.263-133.146,244.609,220.808,244.609,220.808v-249.387s323.853,62.8,336.483,136.792,115.194,56.64,227.5-35.02,158.247,68.2,248.823,59.953,149.907-109.973,149.907-109.973" transform="translate(-12528.123 10915)" fill="none" stroke="#c4c4c4" stroke-width="1"/>
        <path id="Path_1974" data-name="Path 1974" d="M12651.59-7665.208s139.484-18.884,124.926,43.462-73.918,127.73-124.926,177.345c-100.107-99.045-123.9-140.382-124.458-177.345s26.744-70.421,59.74-72.042,199.272,218.827,313.165,161.725,218.227-135.055,341.263-133.146,244.609,220.808,244.609,220.808v-249.387s323.853,62.8,336.483,136.792,115.194,56.64,227.5-35.02,158.247,68.2,248.823,59.953,149.907-109.973,149.907-109.973" transform="translate(-12528.123 10920)" fill="none" stroke="#c4c4c4" stroke-width="1"/>
        <path id="Path_1975" data-name="Path 1975" d="M12651.59-7665.208s139.484-18.884,124.926,43.462-73.918,127.73-124.926,177.345c-100.107-99.045-123.9-140.382-124.458-177.345s26.744-70.421,59.74-72.042,199.272,218.827,313.165,161.725,218.227-135.055,341.263-133.146,244.609,220.808,244.609,220.808v-249.387s323.853,62.8,336.483,136.792,115.194,56.64,227.5-35.02,158.247,68.2,248.823,59.953,149.907-109.973,149.907-109.973" transform="translate(-12528.123 10925)" fill="none" stroke="#c4c4c4" stroke-width="1"/>
        <path id="Path_1976" data-name="Path 1976" d="M12651.59-7665.208s139.484-18.884,124.926,43.462-73.918,127.73-124.926,177.345c-100.107-99.045-123.9-140.382-124.458-177.345s26.744-70.421,59.74-72.042,199.272,218.827,313.165,161.725,218.227-135.055,341.263-133.146,244.609,220.808,244.609,220.808v-249.387s323.853,62.8,336.483,136.792,115.194,56.64,227.5-35.02,158.247,68.2,248.823,59.953,149.907-109.973,149.907-109.973" transform="translate(-12528.123 10930)" fill="none" stroke="#c4c4c4" stroke-width="1"/>
        <path id="Path_1977" data-name="Path 1977" d="M12651.59-7665.208s139.484-18.884,124.926,43.462-73.918,127.73-124.926,177.345c-100.107-99.045-123.9-140.382-124.458-177.345s26.744-70.421,59.74-72.042,199.272,218.827,313.165,161.725,218.227-135.055,341.263-133.146,244.609,220.808,244.609,220.808v-249.387s323.853,62.8,336.483,136.792,115.194,56.64,227.5-35.02,158.247,68.2,248.823,59.953,149.907-109.973,149.907-109.973" transform="translate(-12528.123 10935)" fill="none" stroke="#c4c4c4" stroke-width="1"/>
        <path id="Path_1978" data-name="Path 1978" d="M12651.59-7665.208s139.484-18.884,124.926,43.462-73.918,127.73-124.926,177.345c-100.107-99.045-123.9-140.382-124.458-177.345s26.744-70.421,59.74-72.042,199.272,218.827,313.165,161.725,218.227-135.055,341.263-133.146,244.609,220.808,244.609,220.808v-249.387s323.853,62.8,336.483,136.792,115.194,56.64,227.5-35.02,158.247,68.2,248.823,59.953,149.907-109.973,149.907-109.973" transform="translate(-12528.123 10940)" fill="none" stroke="#c4c4c4" stroke-width="1"/>
        <text id="Its_a_timeless_story_" data-name="Its a timeless story!" transform="translate(960.654 3365)" fill="#3b2977" font-size="56" font-family="Playfair Display" font-weight="700"><tspan x="-247.408" y="0">Its a timeless story!</tspan></text>
      </g>
    </g>
  </g>
</svg>
