<svg xmlns="http://www.w3.org/2000/svg" width="44.292" height="44.29" viewBox="0 0 44.292 44.29">
  <path id="Icon_awesome-cash-register" data-name="Icon awesome-cash-register" d="M42.716,31.658,40.485,18.286a2.675,2.675,0,0,0-2.641-2.231H17.385V10.706h8.023a1.341,1.341,0,0,0,1.337-1.337V1.337A1.341,1.341,0,0,0,25.408,0H4.013A1.341,1.341,0,0,0,2.676,1.337V9.36A1.341,1.341,0,0,0,4.013,10.7h8.023v5.349h-7.1A2.682,2.682,0,0,0,2.3,18.278L.068,31.65a5.185,5.185,0,0,0-.075.878v7.589A2.672,2.672,0,0,0,2.667,42.79H40.109a2.672,2.672,0,0,0,2.674-2.674v-7.58A4.437,4.437,0,0,0,42.716,31.658ZM23.4,20.727a1.341,1.341,0,0,1,1.337-1.337h1.337a1.341,1.341,0,0,1,1.337,1.337v1.337A1.341,1.341,0,0,1,26.077,23.4H24.739A1.341,1.341,0,0,1,23.4,22.064Zm-2.674,5.349h1.337A1.341,1.341,0,0,1,23.4,27.412V28.75a1.341,1.341,0,0,1-1.337,1.337H20.728a1.341,1.341,0,0,1-1.337-1.337V27.412A1.341,1.341,0,0,1,20.728,26.075Zm-2.674-6.686a1.341,1.341,0,0,1,1.337,1.337v1.337A1.341,1.341,0,0,1,18.053,23.4H16.716a1.341,1.341,0,0,1-1.337-1.337V20.727a1.341,1.341,0,0,1,1.337-1.337ZM6.687,6.686V4.012H22.734V6.686ZM10.03,23.4H8.693a1.341,1.341,0,0,1-1.337-1.337V20.727a1.341,1.341,0,0,1,1.337-1.337H10.03a1.341,1.341,0,0,1,1.337,1.337v1.337A1.341,1.341,0,0,1,10.03,23.4Zm1.337,5.349V27.412A1.341,1.341,0,0,1,12.7,26.075h1.337a1.341,1.341,0,0,1,1.337,1.337V28.75a1.341,1.341,0,0,1-1.337,1.337H12.7A1.341,1.341,0,0,1,11.367,28.75ZM29.42,38.11a.671.671,0,0,1-.669.669H14.042a.671.671,0,0,1-.669-.669V36.773a.671.671,0,0,1,.669-.669H28.751a.671.671,0,0,1,.669.669Zm2.006-9.36a1.341,1.341,0,0,1-1.337,1.337H28.751a1.341,1.341,0,0,1-1.337-1.337V27.412a1.341,1.341,0,0,1,1.337-1.337h1.337a1.341,1.341,0,0,1,1.337,1.337Zm4.012-6.686A1.341,1.341,0,0,1,34.1,23.4H32.763a1.341,1.341,0,0,1-1.337-1.337V20.727a1.341,1.341,0,0,1,1.337-1.337H34.1a1.341,1.341,0,0,1,1.337,1.337Z" transform="translate(0.757 0.75)" fill="none" stroke="#eadbff" stroke-width="1.5"/>
</svg>
