<svg xmlns="http://www.w3.org/2000/svg" width="31.169" height="41.009" viewBox="0 0 31.169 41.009">
  <path id="Icon_awesome-receipt" data-name="Icon awesome-receipt" d="M27.224.243l-2.917,3.4L20.175.243a1.208,1.208,0,0,0-1.458,0l-4.132,3.4L10.452.243a1.208,1.208,0,0,0-1.458,0l-4.132,3.4L1.945.243A1.215,1.215,0,0,0,0,1.216V37.677a1.215,1.215,0,0,0,1.945.972l2.917-3.4,4.132,3.4a1.208,1.208,0,0,0,1.458,0l4.132-3.4,4.132,3.4a1.208,1.208,0,0,0,1.458,0l4.132-3.4,2.917,3.4a1.216,1.216,0,0,0,1.945-.972V1.216A1.215,1.215,0,0,0,27.224.243Zm-2.917,27.1a.609.609,0,0,1-.608.608H5.469a.609.609,0,0,1-.608-.608V26.131a.609.609,0,0,1,.608-.608H23.7a.609.609,0,0,1,.608.608Zm0-7.292a.609.609,0,0,1-.608.608H5.469a.609.609,0,0,1-.608-.608V18.838a.609.609,0,0,1,.608-.608H23.7a.609.609,0,0,1,.608.608Zm0-7.292a.609.609,0,0,1-.608.608H5.469a.609.609,0,0,1-.608-.608V11.546a.609.609,0,0,1,.608-.608H23.7a.609.609,0,0,1,.608.608Z" transform="translate(1 1.059)" fill="none" stroke="#5217a5" stroke-width="2"/>
</svg>
