<svg xmlns="http://www.w3.org/2000/svg" width="33.304" height="44.617" viewBox="0 0 33.304 44.617">
  <g id="Group_1651" data-name="Group 1651" transform="translate(-81.081 -420.674)">
    <path id="Icon_awesome-receipt" data-name="Icon awesome-receipt" d="M18.761.167l-2.01,2.345L13.9.167a.832.832,0,0,0-1.005,0L10.05,2.512,7.2.167A.832.832,0,0,0,6.2.167L3.35,2.512,1.34.167A.837.837,0,0,0,0,.837V25.963a.837.837,0,0,0,1.34.67l2.01-2.345L6.2,26.633a.832.832,0,0,0,1.005,0l2.848-2.345L12.9,26.633a.832.832,0,0,0,1.005,0l2.848-2.345,2.01,2.345a.838.838,0,0,0,1.34-.67V.837a.837.837,0,0,0-1.34-.67Zm-2.01,18.677a.42.42,0,0,1-.419.419H3.769a.42.42,0,0,1-.419-.419v-.838a.42.42,0,0,1,.419-.419H16.332a.42.42,0,0,1,.419.419Zm0-5.025a.42.42,0,0,1-.419.419H3.769a.42.42,0,0,1-.419-.419v-.838a.42.42,0,0,1,.419-.419H16.332a.42.42,0,0,1,.419.419Zm0-5.025a.42.42,0,0,1-.419.419H3.769a.42.42,0,0,1-.419-.419V7.956a.42.42,0,0,1,.419-.419H16.332a.42.42,0,0,1,.419.419Z" transform="translate(81.831 437.698)" fill="none" stroke="#eadbff" stroke-width="1.5"/>
    <path id="Icon_metro-history" data-name="Icon metro-history" d="M17.442,5.447a10.288,10.288,0,1,1,0,20.576v-2.2a8.082,8.082,0,1,0-7.95-9.553h4.276L8.624,20.144,3.48,14.265H7.259A10.29,10.29,0,0,1,17.442,5.447Z" transform="translate(86.654 415.227)" fill="#fff"/>
  </g>
</svg>
