<svg xmlns="http://www.w3.org/2000/svg" width="29.127" height="38.336" viewBox="0 0 29.127 38.336">
  <path id="Icon_awesome-file-invoice" data-name="Icon awesome-file-invoice" d="M20.72,18.418H6.907v4.6H20.72Zm6.4-10.864L20.08.5A1.725,1.725,0,0,0,18.857,0h-.439V9.209h9.209V8.77A1.721,1.721,0,0,0,27.123,7.554ZM16.116,9.785V0H1.727A1.723,1.723,0,0,0,0,1.727V35.109a1.723,1.723,0,0,0,1.727,1.727H25.9a1.723,1.723,0,0,0,1.727-1.727v-23.6H17.842A1.732,1.732,0,0,1,16.116,9.785ZM4.6,5.18A.575.575,0,0,1,5.18,4.6h5.756a.575.575,0,0,1,.576.576V6.331a.575.575,0,0,1-.576.576H5.18A.575.575,0,0,1,4.6,6.331Zm0,4.6a.575.575,0,0,1,.576-.576h5.756a.575.575,0,0,1,.576.576v1.151a.575.575,0,0,1-.576.576H5.18a.575.575,0,0,1-.576-.576ZM23.022,31.656a.575.575,0,0,1-.576.576H16.691a.575.575,0,0,1-.576-.576V30.5a.575.575,0,0,1,.576-.576h5.756a.575.575,0,0,1,.576.576Zm0-14.389v6.907a1.151,1.151,0,0,1-1.151,1.151H5.756A1.151,1.151,0,0,1,4.6,24.174V17.267a1.151,1.151,0,0,1,1.151-1.151H21.871A1.151,1.151,0,0,1,23.022,17.267Z" transform="translate(0.75 0.75)" fill="none" stroke="#eadbff" stroke-width="1.5"/>
</svg>
