<svg xmlns="http://www.w3.org/2000/svg" width="25.445" height="22.618" viewBox="0 0 25.445 22.618">
  <path id="Icon_awesome-hand-holding-heart" data-name="Icon awesome-hand-holding-heart" d="M12.161,11.065a.77.77,0,0,0,1.126,0L18.1,6.02A3.662,3.662,0,0,0,17.85.772a3.358,3.358,0,0,0-4.634.34l-.495.517-.49-.512A3.354,3.354,0,0,0,7.6.772,3.665,3.665,0,0,0,7.35,6.02Zm12.81,3.428a1.462,1.462,0,0,0-1.882,0l-4.082,3.264a2.812,2.812,0,0,1-1.767.618H12.015a.707.707,0,0,1,0-1.414h3.459a1.471,1.471,0,0,0,1.471-1.175,1.415,1.415,0,0,0-1.4-1.652H8.481A5.2,5.2,0,0,0,5.208,15.3L3.154,16.962H.707A.709.709,0,0,0,0,17.669v4.241a.709.709,0,0,0,.707.707H16.468A2.831,2.831,0,0,0,18.235,22l6.679-5.345A1.413,1.413,0,0,0,24.971,14.493Z" transform="translate(0 0.002)" fill="#fff"/>
</svg>
