<svg xmlns="http://www.w3.org/2000/svg" width="1791.059" height="523.825" viewBox="0 0 1791.059 523.825">
  <g id="Group_1243" data-name="Group 1243" transform="translate(-82.248 -222.175)">
    <path id="Polygon_21" data-name="Polygon 21" d="M88,0l88,152H0Z" transform="translate(423.587 460.175) rotate(30)" fill="#efd6d6"/>
    <path id="Polygon_22" data-name="Polygon 22" d="M61.5,0,123,107H0Z" transform="translate(1282.587 222.175) rotate(30)" fill="#efd6d6"/>
    <path id="Polygon_23" data-name="Polygon 23" d="M61.5,0,123,107H0Z" transform="translate(1710.672 327.914) rotate(-45)" fill="#efd6d6"/>
    <path id="Polygon_24" data-name="Polygon 24" d="M61.5,0,123,107H0Z" transform="translate(1568.672 656.914) rotate(-45)" fill="#efd6d6"/>
    <circle id="Ellipse_197" data-name="Ellipse 197" cx="52.5" cy="52.5" r="52.5" transform="translate(569 324)" fill="#efd6d6"/>
    <circle id="Ellipse_198" data-name="Ellipse 198" cx="52.5" cy="52.5" r="52.5" transform="translate(112 641)" fill="#efd6d6"/>
    <circle id="Ellipse_201" data-name="Ellipse 201" cx="30" cy="30" r="30" transform="translate(171 494)" fill="#efd6d6"/>
    <circle id="Ellipse_199" data-name="Ellipse 199" cx="52.5" cy="52.5" r="52.5" transform="translate(1390 490)" fill="#efd6d6"/>
    <circle id="Ellipse_200" data-name="Ellipse 200" cx="26" cy="26" r="26" transform="translate(1580 272)" fill="#efd6d6"/>
    <rect id="Rectangle_545" data-name="Rectangle 545" width="134" height="134" transform="translate(82.248 340) rotate(-45)" fill="#efd6d6"/>
    <rect id="Rectangle_548" data-name="Rectangle 548" width="53" height="53" transform="translate(1766.523 542.724) rotate(-45)" fill="#efd6d6"/>
    <rect id="Rectangle_546" data-name="Rectangle 546" width="55" height="55" transform="translate(374.109 361.139) rotate(-45)" fill="#efd6d6"/>
    <rect id="Rectangle_547" data-name="Rectangle 547" width="55" height="55" transform="translate(1566.109 455.139) rotate(-45)" fill="#efd6d6"/>
  </g>
</svg>
