<svg xmlns="http://www.w3.org/2000/svg" width="28.628" height="37.836" viewBox="0 0 28.628 37.836">
  <g id="rating_order" data-name="rating order" transform="translate(-81.5 -746.595)">
    <path id="Icon_awesome-file-invoice" data-name="Icon awesome-file-invoice" d="M20.72,18.418H6.907v4.6H20.72ZM27.12,8.77Zm-11,1.015V0H1.727A1.723,1.723,0,0,0,0,1.727V35.109a1.723,1.723,0,0,0,1.727,1.727H25.9a1.723,1.723,0,0,0,1.727-1.727v-23.6H17.842A1.732,1.732,0,0,1,16.116,9.785ZM4.6,5.18a.575.575,0,0,1,.58-.58h5.756a.575.575,0,0,1,.576.576V6.331a.575.575,0,0,1-.576.576H5.18a.575.575,0,0,1-.58-.576Zm0,4.6A.575.575,0,0,1,5.176,9.2h5.756a.575.575,0,0,1,.576.576v1.151a.575.575,0,0,1-.576.576H5.18a.575.575,0,0,1-.576-.576ZM23.022,31.656a.575.575,0,0,1-.576.576H16.691a.575.575,0,0,1-.576-.576V30.5a.575.575,0,0,1,.576-.576h5.756a.575.575,0,0,1,.576.576Zm0-14.389v6.907a1.151,1.151,0,0,1-1.151,1.151H5.756A1.151,1.151,0,0,1,4.6,24.174V17.267a1.151,1.151,0,0,1,1.151-1.151h16.12a1.151,1.151,0,0,1,1.151,1.151Z" transform="translate(82 747.095)" fill="none" stroke="#eadbff" stroke-width="1"/>
    <path id="Icon_ionic-ios-star" data-name="Icon ionic-ios-star" d="M10.9,6.263H7.945l-.9-2.676a.325.325,0,0,0-.61,0l-.9,2.676H2.571a.322.322,0,0,0-.321.321.236.236,0,0,0,.006.054.308.308,0,0,0,.134.227L4.816,8.574,3.885,11.28a.322.322,0,0,0,.11.361.31.31,0,0,0,.181.078.393.393,0,0,0,.2-.072L6.743,9.96,9.11,11.647a.376.376,0,0,0,.2.072.288.288,0,0,0,.179-.078.318.318,0,0,0,.11-.361l-.93-2.706,2.4-1.725.058-.05a.307.307,0,0,0-.237-.536Z" transform="translate(98.891 743.513)" fill="#c9a2fd"/>
  </g>
</svg>
