<svg xmlns="http://www.w3.org/2000/svg" width="1921.592" height="665.979" viewBox="0 0 1921.592 665.979">
  <g id="Group_1783" data-name="Group 1783" transform="translate(0 -337.387)">
    <path id="Path_2098" data-name="Path 2098" d="M-24533-13307h959.25s305.3,35.821,305.3,305.3-206.127,312.569-305.3,312.569-307.555-96.518-309.7-312.569,194.3-378.878,680.061-305.3c172.881,26.188,519.865,24.236,591.723-18.183" transform="translate(24533 13663)" fill="none" stroke="#eb9a5f" stroke-width="1"/>
    <path id="Path_2099" data-name="Path 2099" d="M-24533-13307h959.25s305.3,35.821,305.3,305.3-206.127,312.569-305.3,312.569-307.555-96.518-309.7-312.569,194.3-378.878,680.061-305.3c172.881,26.188,519.865,24.236,591.723-18.183" transform="translate(24533 13668)" fill="none" stroke="#eb9a5f" stroke-width="1"/>
    <path id="Path_2100" data-name="Path 2100" d="M-24533-13307h959.25s305.3,35.821,305.3,305.3-206.127,312.569-305.3,312.569-307.555-96.518-309.7-312.569,194.3-378.878,680.061-305.3c172.881,26.188,519.865,24.236,591.723-18.183" transform="translate(24533 13674)" fill="none" stroke="#eb9a5f" stroke-width="1"/>
    <path id="Path_2101" data-name="Path 2101" d="M-24533-13307h959.25s305.3,35.821,305.3,305.3-206.127,312.569-305.3,312.569-307.555-96.518-309.7-312.569,194.3-378.878,680.061-305.3c172.881,26.188,519.865,24.236,591.723-18.183" transform="translate(24533 13680)" fill="none" stroke="#eb9a5f" stroke-width="1"/>
    <path id="Path_2102" data-name="Path 2102" d="M-24533-13307h959.25s305.3,35.821,305.3,305.3-206.127,312.569-305.3,312.569-307.555-96.518-309.7-312.569,194.3-378.878,680.061-305.3c172.881,26.188,519.865,24.236,591.723-18.183" transform="translate(24533 13686)" fill="none" stroke="#eb9a5f" stroke-width="1"/>
    <path id="Path_2103" data-name="Path 2103" d="M-24533-13307h959.25s305.3,35.821,305.3,305.3-206.127,312.569-305.3,312.569-307.555-96.518-309.7-312.569,194.3-378.878,680.061-305.3c172.881,26.188,519.865,24.236,591.723-18.183" transform="translate(24533 13692)" fill="none" stroke="#eb9a5f" stroke-width="1"/>
  </g>
</svg>
