<svg xmlns="http://www.w3.org/2000/svg" width="1917.438" height="1470.444" viewBox="0 0 1917.438 1470.444">
  <g id="Group_2008" data-name="Group 2008" transform="translate(0.057 -1330.054)">
    <path id="Path_2253" data-name="Path 2253" d="M21995-19440.436s986.98-113.607,704.021,215.271-141.715,653.414,123,452.773,1001.84-379.861,770.906,133.814S23912.342-18088,23912.342-18088" transform="translate(-21995 20860)" fill="none" stroke="#b12020" stroke-width="1"/>
    <path id="Path_2254" data-name="Path 2254" d="M21995-19440.436s986.98-113.607,704.021,215.271-141.715,653.414,123,452.773,1001.84-379.861,770.906,133.814S23912.342-18088,23912.342-18088" transform="translate(-21995 20867)" fill="none" stroke="#b12020" stroke-width="1"/>
    <path id="Path_2255" data-name="Path 2255" d="M21995-19440.436s986.98-113.607,704.021,215.271-141.715,653.414,123,452.773,1001.84-379.861,770.906,133.814S23912.342-18088,23912.342-18088" transform="translate(-21995 20874)" fill="none" stroke="#b12020" stroke-width="1"/>
    <path id="Path_2256" data-name="Path 2256" d="M21995-19440.436s986.98-113.607,704.021,215.271-141.715,653.414,123,452.773,1001.84-379.861,770.906,133.814S23912.342-18088,23912.342-18088" transform="translate(-21995 20881)" fill="none" stroke="#b12020" stroke-width="1"/>
    <path id="Path_2257" data-name="Path 2257" d="M21995-19440.436s986.98-113.607,704.021,215.271-141.715,653.414,123,452.773,1001.84-379.861,770.906,133.814S23912.342-18088,23912.342-18088" transform="translate(-21995 20888)" fill="none" stroke="#b12020" stroke-width="1"/>
    <path id="Path_2253-2" data-name="Path 2253" d="M0,929.8s986.98,78.106,704.021-148S562.307,332.58,827.02,470.52s1001.84,261.156,770.906-92S1917.342,0,1917.342,0" transform="translate(1917.342 2273.438) rotate(-180)" fill="none" stroke="#93d626" stroke-width="1"/>
    <path id="Path_2254-2" data-name="Path 2254" d="M0,930.166S986.98,1008.3,704.021,782.109s-141.715-449.4,123-311.4,1001.84,261.258,770.906-92.034S1917.342,0,1917.342,0" transform="translate(1917.342 2280.438) rotate(-180)" fill="none" stroke="#93d626" stroke-width="1"/>
    <path id="Path_2255-2" data-name="Path 2255" d="M0,930.53S986.98,1008.7,704.021,782.415s-141.715-449.575,123-311.527,1001.84,261.36,770.906-92.07S1917.342,0,1917.342,0" transform="translate(1917.342 2287.438) rotate(-180)" fill="none" stroke="#93d626" stroke-width="1"/>
    <path id="Path_2256-2" data-name="Path 2256" d="M0,930.894s986.98,78.2,704.021-148.173-141.715-449.75,123-311.648,1001.84,261.462,770.906-92.106S1917.342,0,1917.342,0" transform="translate(1917.342 2294.438) rotate(-180)" fill="none" stroke="#93d626" stroke-width="1"/>
    <path id="Path_2257-2" data-name="Path 2257" d="M0,931.257s986.98,78.228,704.021-148.231-141.715-449.926,123-311.77,1001.84,261.565,770.906-92.142S1917.342,0,1917.342,0" transform="translate(1917.342 2301.438) rotate(-180)" fill="none" stroke="#93d626" stroke-width="1"/>
  </g>
</svg>
