<svg xmlns="http://www.w3.org/2000/svg" width="54" height="54" viewBox="0 0 54 54">
  <g id="Icon_ionic-md-sad" data-name="Icon ionic-md-sad" transform="translate(-3.375 -3.375)">
    <path id="Path_2182" data-name="Path 2182" d="M18,20.25a7.952,7.952,0,0,0-7.186,4.5L18,22.273l7.186,2.477A7.952,7.952,0,0,0,18,20.25Z" transform="translate(12.375 16.875)" fill="#cc0813"/>
    <path id="Path_2183" data-name="Path 2183" d="M30.375,3.375a27,27,0,1,0,27,27A26.993,26.993,0,0,0,30.375,3.375Zm0,48.6a21.6,21.6,0,1,1,21.6-21.6A21.664,21.664,0,0,1,30.375,51.975Z" fill="#cc0813"/>
    <path id="Path_2184" data-name="Path 2184" d="M23.119,16.538a2.194,2.194,0,1,0-2.194-2.194A2.154,2.154,0,0,0,23.119,16.538Z" transform="translate(17.471 8.735)" fill="#cc0813"/>
    <path id="Path_2185" data-name="Path 2185" d="M12.881,16.538a2.194,2.194,0,1,0-2.194-2.194A2.154,2.154,0,0,0,12.881,16.538Z" transform="translate(7.279 8.735)" fill="#cc0813"/>
  </g>
</svg>
