<svg xmlns="http://www.w3.org/2000/svg" width="26" height="26" viewBox="0 0 26 26">
  <path id="Icon_awesome-sad-tear" data-name="Icon awesome-sad-tear" d="M13,.562a13,13,0,1,0,13,13A13,13,0,0,0,13,.562Zm4.194,8.806a1.677,1.677,0,1,1-1.677,1.677A1.676,1.676,0,0,1,17.194,9.369ZM7.968,21.95a2.489,2.489,0,0,1-2.516-2.464c0-1.048,1.494-3.166,2.181-4.078a.417.417,0,0,1,.671,0c.687.912,2.181,3.03,2.181,4.078A2.489,2.489,0,0,1,7.968,21.95Zm.839-9.226a1.677,1.677,0,1,1,1.677-1.677A1.676,1.676,0,0,1,8.806,12.724Zm8.922,8.083A6.15,6.15,0,0,0,13,18.595a.839.839,0,0,1,0-1.677,7.8,7.8,0,0,1,6.012,2.82A.836.836,0,0,1,17.728,20.807Z" transform="translate(0 -0.563)" fill="#fff"/>
</svg>
