<svg xmlns="http://www.w3.org/2000/svg" width="775.63" height="119.092" viewBox="0 0 775.63 119.092">
  <g id="Group_2081" data-name="Group 2081" transform="translate(12 19962)">
    <path id="Icon_ionic-md-share" data-name="Icon ionic-md-share" d="M64.159,59.134a10.874,10.874,0,0,0-7.783,2.981L27.844,45.622a13.363,13.363,0,0,0,.4-2.783,13.357,13.357,0,0,0-.4-2.783L55.979,23.762a11.94,11.94,0,1,0-3.792-8.744,13.284,13.284,0,0,0,.4,2.783L24.453,34.094a12.01,12.01,0,0,0-8.181-3.179A11.813,11.813,0,0,0,4.5,42.839a12.012,12.012,0,0,0,20.152,8.744L52.986,68.077a9.969,9.969,0,0,0-.4,2.583A11.572,11.572,0,1,0,64.159,59.134Z" transform="translate(687.5 -19965.094)" fill="#ba6262" opacity="0.26"/>
    <path id="Icon_ionic-md-share-2" data-name="Icon ionic-md-share" d="M64.159,59.134a10.874,10.874,0,0,0-7.783,2.981L27.844,45.622a13.363,13.363,0,0,0,.4-2.783,13.357,13.357,0,0,0-.4-2.783L55.979,23.762a11.94,11.94,0,1,0-3.792-8.744,13.284,13.284,0,0,0,.4,2.783L24.453,34.094a12.01,12.01,0,0,0-8.181-3.179A11.813,11.813,0,0,0,4.5,42.839a12.012,12.012,0,0,0,20.152,8.744L52.986,68.077a9.969,9.969,0,0,0-.4,2.583A11.572,11.572,0,1,0,64.159,59.134Z" transform="translate(64.131 -19839.814) rotate(180)" fill="#ba6262" opacity="0.26"/>
  </g>
</svg>
