<svg xmlns="http://www.w3.org/2000/svg" width="18" height="18" viewBox="0 0 18 18">
  <path id="Icon_simple-coderwall" data-name="Icon simple-coderwall" d="M16.015,14.031a1.984,1.984,0,1,1-1.984,1.984,1.985,1.985,0,0,1,1.984-1.984ZM9,7.016A1.984,1.984,0,1,1,7.016,9,1.986,1.986,0,0,1,9,7.016Zm7.015,0A1.984,1.984,0,1,1,14.031,9a1.986,1.986,0,0,1,1.984-1.984ZM9,0A1.985,1.985,0,1,1,7.016,1.985,1.985,1.985,0,0,1,9,0ZM1.985,0A1.985,1.985,0,1,1,0,1.985,1.985,1.985,0,0,1,1.985,0ZM16.016,0a1.985,1.985,0,1,1-1.985,1.985A1.985,1.985,0,0,1,16.016,0Z"/>
</svg>
