<svg xmlns="http://www.w3.org/2000/svg" width="17.697" height="19.516" viewBox="0 0 17.697 19.516">
  <path id="Icon_simple-email" data-name="Icon simple-email" d="M19.355,9.007a10.065,10.065,0,0,1-.324,2.183,6.317,6.317,0,0,1-.849,1.917,4.479,4.479,0,0,1-1.439,1.362,4.061,4.061,0,0,1-2.1.518,3.046,3.046,0,0,1-1.519-.372A2.6,2.6,0,0,1,12.1,13.563a3.255,3.255,0,0,1-2.754,1.383,2.8,2.8,0,0,1-2.4-1.293,4.232,4.232,0,0,1-.6-1.5A6.458,6.458,0,0,1,6.262,10.2a9.075,9.075,0,0,1,.6-2.393,6.5,6.5,0,0,1,1.1-1.833A4.653,4.653,0,0,1,9.47,4.808,4.219,4.219,0,0,1,11.309,4.4a5.718,5.718,0,0,1,1.1.094,4.5,4.5,0,0,1,.854.256,4.616,4.616,0,0,1,.707.373c.216.139.433.283.649.429L14.084,11.7a2.043,2.043,0,0,0,.016.72,1.007,1.007,0,0,0,.22.444.79.79,0,0,0,.356.232,1.322,1.322,0,0,0,1.251-.246,2.667,2.667,0,0,0,.671-.854,5.5,5.5,0,0,0,.451-1.283,8.8,8.8,0,0,0,.2-1.6A10.21,10.21,0,0,0,17,6.128a5.934,5.934,0,0,0-1.1-2.31A5.13,5.13,0,0,0,13.91,2.33,7.188,7.188,0,0,0,11.024,1.8a6.371,6.371,0,0,0-2.854.622A6.547,6.547,0,0,0,6,4.149,8.276,8.276,0,0,0,4.583,6.743a11.689,11.689,0,0,0-.6,3.232,10.746,10.746,0,0,0,.3,3.3,5.956,5.956,0,0,0,1.2,2.363,5.028,5.028,0,0,0,2.041,1.419,7.831,7.831,0,0,0,2.817.471,9.649,9.649,0,0,0,1.849-.2c.3-.061.594-.134.87-.215a6.544,6.544,0,0,0,.749-.268l.387,1.739a4.291,4.291,0,0,1-.838.415,8.064,8.064,0,0,1-.99.287,9.662,9.662,0,0,1-2.068.232,10.846,10.846,0,0,1-3.771-.607A6.94,6.94,0,0,1,3.792,17.1a7.59,7.59,0,0,1-1.65-2.984,12.729,12.729,0,0,1-.461-4.143A12.634,12.634,0,0,1,2.473,6,9.839,9.839,0,0,1,4.383,2.84,8.7,8.7,0,0,1,7.3.756,9.121,9.121,0,0,1,11.07,0a9.523,9.523,0,0,1,3.656.655A7.111,7.111,0,0,1,17.365,2.5,7.557,7.557,0,0,1,18.93,5.341,10.879,10.879,0,0,1,19.355,9.007ZM8.882,10.2A4.149,4.149,0,0,0,9.1,12.26a1.1,1.1,0,0,0,1.061.7,1.172,1.172,0,0,0,.363-.067,1.3,1.3,0,0,0,.418-.251,2.232,2.232,0,0,0,.424-.512,3.931,3.931,0,0,0,.39-.866l.417-4.776a2.492,2.492,0,0,0-.649-.085,2.243,2.243,0,0,0-1.079.248,2.137,2.137,0,0,0-.765.727,4.268,4.268,0,0,0-.507,1.2A10.138,10.138,0,0,0,8.883,10.2Z" transform="translate(-1.67)"/>
</svg>
