<svg xmlns="http://www.w3.org/2000/svg" width="12.159" height="15.183" viewBox="0 0 12.159 15.183">
  <g id="Group_2074" data-name="Group 2074" transform="translate(-57.404 -1975.633)">
    <path id="Icon_ionic-ios-color-filter" data-name="Icon ionic-ios-color-filter" d="M9.464,7.242a2.021,2.021,0,0,0-.994-.7,1.951,1.951,0,0,0,.022-.306A2.01,2.01,0,0,0,7.9,4.811a1.994,1.994,0,0,0-2.836,0,2.01,2.01,0,0,0-.587,1.428,2.165,2.165,0,0,0,.022.306A2.026,2.026,0,0,0,3.681,9.9a2,2,0,0,0,2.806.032A2,2,0,0,0,9.292,9.9a2.028,2.028,0,0,0,.171-2.658ZM6.487,4.627a1.609,1.609,0,0,1,1.6,1.612,1.529,1.529,0,0,1-.016.226c-.066-.006-.131-.01-.2-.01a1.987,1.987,0,0,0-1.388.56A1.985,1.985,0,0,0,5.1,6.455c-.066,0-.133,0-.2.01a1.762,1.762,0,0,1-.016-.226A1.612,1.612,0,0,1,6.487,4.627Zm0,3.223c-.029,0-.059,0-.088,0a1.527,1.527,0,0,1,.088-.178,1.527,1.527,0,0,1,.088.178A.809.809,0,0,1,6.487,7.85Zm-.746,2.1a1.575,1.575,0,0,1-.642.134A1.613,1.613,0,0,1,4.6,6.94a2.029,2.029,0,0,0,.5.762,1.992,1.992,0,0,0,.787.466,1.951,1.951,0,0,0-.022.306A2.018,2.018,0,0,0,6.224,9.62,1.63,1.63,0,0,1,5.741,9.95Zm.251-2.178a1.609,1.609,0,0,1-.981-.907c.029,0,.059,0,.088,0A1.581,1.581,0,0,1,5.741,7a1.6,1.6,0,0,1,.482.33A2.035,2.035,0,0,0,5.992,7.772Zm.495,1.5a1.617,1.617,0,0,1-.213-.8,1.529,1.529,0,0,1,.016-.226c.066.006.131.01.2.01s.133,0,.2-.01a1.762,1.762,0,0,1,.016.226A1.654,1.654,0,0,1,6.487,9.276ZM7.233,7a1.575,1.575,0,0,1,.642-.134c.029,0,.059,0,.088,0a1.609,1.609,0,0,1-.981.907,2.071,2.071,0,0,0-.23-.447A1.6,1.6,0,0,1,7.233,7Zm.642,3.089a1.581,1.581,0,0,1-.642-.134,1.6,1.6,0,0,1-.482-.33,2.014,2.014,0,0,0,.355-1.148,2.165,2.165,0,0,0-.022-.306A2,2,0,0,0,7.871,7.7a2.055,2.055,0,0,0,.5-.762,1.613,1.613,0,0,1-.5,3.145Z" transform="translate(70.363 1986.125) rotate(180)" fill="#eadbfe"/>
    <g id="Icon_feather-scissors" data-name="Icon feather-scissors" transform="translate(53.404 1994.816) rotate(-90)">
      <path id="Path_2346" data-name="Path 2346" d="M8.22,6.36A1.86,1.86,0,1,1,6.36,4.5,1.86,1.86,0,0,1,8.22,6.36Z" transform="translate(0 0)" fill="none" stroke="#eadbfe" stroke-linecap="round" stroke-linejoin="round" stroke-width="1"/>
      <path id="Path_2347" data-name="Path 2347" d="M8.22,24.36A1.86,1.86,0,1,1,6.36,22.5,1.86,1.86,0,0,1,8.22,24.36Z" transform="translate(0 -10.561)" fill="none" stroke="#eadbfe" stroke-linecap="round" stroke-linejoin="round" stroke-width="1"/>
      <path id="Path_2348" data-name="Path 2348" d="M19.545,6,12.18,13.365" transform="translate(-4.506 -0.88)" fill="none" stroke="#eadbfe" stroke-linecap="round" stroke-linejoin="round" stroke-width="1"/>
      <path id="Path_2349" data-name="Path 2349" d="M21.7,21.72l3.428,3.422" transform="translate(-10.094 -10.103)" fill="none" stroke="#eadbfe" stroke-linecap="round" stroke-linejoin="round" stroke-width="1"/>
      <path id="Path_2350" data-name="Path 2350" d="M12.18,12.18l2.405,2.405" transform="translate(-4.506 -4.506)" fill="none" stroke="#eadbfe" stroke-linecap="round" stroke-linejoin="round" stroke-width="1"/>
    </g>
  </g>
</svg>
