<svg xmlns="http://www.w3.org/2000/svg" width="2653.492" height="1498.862" viewBox="0 0 2653.492 1498.862">
  <g id="Group_269" data-name="Group 269" transform="matrix(-0.105, -0.995, 0.995, -0.105, 81.365, 1513.74)">
    <path id="Path_1" data-name="Path 1" d="M745.7,146.738C612.263-7.64,196.873-164.29,377.385,257.927s104.958,594.543-8.218,715.168-153.825,185.037-157.522,363.133,243.86,2.528,117.386,209.047,103.141,104.2-125.08,335.111-142,372.727-112.274,419.775-136.185,170.257-161.3,185.888" transform="matrix(0.985, -0.174, 0.174, 0.985, 69.962, 169.734)" fill="none" stroke="#ff9d00" stroke-linecap="round" stroke-width="2"/>
    <path id="Path_3" data-name="Path 3" d="M744.913,147.022C611.723-7.565,197.018-164.492,377.156,258.252S481.82,853.5,368.8,974.24s-153.624,185.213-157.354,363.513,243.476,2.589,117.156,209.316,102.957,104.347-124.956,335.466S61.781,2255.658,91.454,2302.766-44.554,2473.187-69.628,2488.83" transform="matrix(0.985, -0.174, 0.174, 0.985, 93.872, 158.474)" fill="none" stroke="#009a2f" stroke-linecap="round" stroke-width="2"/>
    <path id="Path_6" data-name="Path 6" d="M735.647,152.829C601.8-3.984,186.984-166.068,369.3,260.857s108.036,599.594-4.034,719.821-152.2,184.635-154.848,363.872,243,5.126,118.179,211.676,103.376,105.985-122.684,336.008S66.586,2265.928,96.482,2313.6-38.225,2483.545-63.155,2499.014" transform="translate(129.568 144.123) rotate(-9)" fill="none" stroke="#ff1489" stroke-linecap="round" stroke-width="2"/>
    <path id="Path_2" data-name="Path 2" d="M745.179,147.057C611.862-7.537,196.811-164.517,377.154,258.22S481.994,853.436,368.9,974.145,215.186,1159.317,211.481,1337.6s243.666,2.627,117.28,209.316,103.053,104.354-125,335.417S61.849,2255.4,91.552,2302.511-44.535,2472.9-69.626,2488.534" transform="matrix(0.985, -0.174, 0.174, 0.985, 81.214, 161.82)" fill="none" stroke="#dedede" stroke-linecap="round" stroke-width="2"/>
    <path id="Path_4" data-name="Path 4" d="M735.379,152.805C601.648-4.007,187.164-166.051,369.289,260.895s107.874,599.644-4.129,719.9-152.112,184.676-154.784,363.932,242.821,5.093,118.063,211.683,103.286,105.982-122.64,336.06S66.521,2266.223,96.388,2313.9-38.243,2483.878-63.157,2499.352" transform="translate(140.934 140.234) rotate(-9)" fill="none" stroke="#0076cc" stroke-linecap="round" stroke-width="2"/>
    <path id="Path_5" data-name="Path 5" d="M726.392,158.652C591.875-.422,176.959-167.713,361.471,263.472s111.428,604.04.321,723.769-150.764,184.077-152.325,364.281S451.985,1359.2,328.674,1565.6s103.8,107.647-120.4,336.6S71.5,2276.514,101.619,2324.761s-133.4,169.487-158.181,184.782" transform="translate(176.512 125.392) rotate(-8)" fill="none" stroke="#5131ff" stroke-linecap="round" stroke-width="2"/>
  </g>
</svg>
