<svg xmlns="http://www.w3.org/2000/svg" width="1520.655" height="2635.488" viewBox="0 0 1520.655 2635.488">
  <g id="Group_268" data-name="Group 268" transform="translate(626.864 -157.035) rotate(24)">
    <path id="Path_1" data-name="Path 1" d="M836.465,163.376C689.828,7.972,238.5-154.185,440.276,267.9s122.891,591.971,2.527,709.93-163.258,181.262-164.412,358.027,263.532,6.4,130.17,209.427,113.107,105.1-129.8,330.723-147.49,367.8-114.617,414.986S19.709,2457.857-7.174,2472.977" transform="matrix(0.985, -0.174, 0.174, 0.985, 53.489, 165.216)" fill="none" stroke="#ff9d00" stroke-linecap="round" stroke-width="4"/>
    <path id="Path_3" data-name="Path 3" d="M836.008,163.729c-146.348-155.72-596.9-318.21-395.6,104.727S562.9,861.627,442.683,979.823,279.62,1161.449,278.4,1338.573s263.11,6.416,129.888,209.853,112.889,105.318-129.715,331.39S131.191,2248.36,163.994,2295.641,19.733,2462.846-7.113,2478" transform="matrix(0.985, -0.174, 0.174, 0.985, 77.006, 143.873)" fill="none" stroke="#009a2f" stroke-linecap="round" stroke-width="4"/>
    <path id="Path_6" data-name="Path 6" d="M826.284,167.86C678.744,10.217,226.361-156.867,430.52,269.59s126.171,596.72,6.408,714.366S274.6,1164.928,274.413,1342.782s263.664,8.728,131.363,211.86S519.5,1661.381,277.731,1886.294,132.2,2255.1,165.34,2302.865,21.766,2469.518-5.044,2484.5" transform="translate(115.325 132.044) rotate(-9)" fill="none" stroke="#ff1489" stroke-linecap="round" stroke-width="4"/>
    <path id="Path_2" data-name="Path 2" d="M836.253,163.757C689.765,8.038,238.836-154.5,440.37,268.4s122.68,593.093,2.393,711.249-163.157,181.568-164.343,358.662,263.314,6.46,130.024,209.84,112.994,105.32-129.759,331.313-147.437,368.457-114.6,415.736S19.739,2462.353-7.124,2477.5" transform="matrix(0.985, -0.174, 0.174, 0.985, 64.383, 150.246)" fill="none" stroke="#dedede" stroke-linecap="round" stroke-width="4"/>
    <path id="Path_4" data-name="Path 4" d="M826.041,167.844c-147.409-157.653-599.436-324.7-395.49,101.811s125.988,596.822,6.295,714.511S274.61,1165.2,274.394,1343.09s263.47,8.69,131.234,211.884,113.623,106.744-128,331.739-145.484,368.9-112.373,416.673S21.761,2470.094-5.032,2485.081" transform="translate(126.652 124.619) rotate(-9)" fill="none" stroke="#0076cc" stroke-linecap="round" stroke-width="4"/>
    <path id="Path_5" data-name="Path 5" d="M816.826,171.963c-148.8-159.589-603.21-331.272-396.112,98.777S550.619,871.118,431.25,988.247s-161.669,180.362-160.833,358.982,264.337,11.026,132.893,213.9,114.606,108.176-126.437,331.986S133.118,2262.27,166.615,2310.524,23.662,2476.666-3.125,2491.48" transform="translate(164.827 111.629) rotate(-8)" fill="none" stroke="#5131ff" stroke-linecap="round" stroke-width="4"/>
  </g>
</svg>
