<svg xmlns="http://www.w3.org/2000/svg" width="1920.314" height="581.758" viewBox="0 0 1920.314 581.758">
  <g id="Group_1484" data-name="Group 1484" transform="translate(0.482 -401.869)">
    <path id="Path_1992" data-name="Path 1992" d="M20450-18323s143.225,525.188,514.873,399.424,118.094-446.734-49.9-294.879-44.021,468.555,504.559,444.375,302.707-372.41,43.059-348.58,320.221,422.418,554.264,163.434-32.66-357.078-138.455-271.537,490.563,347.686,490.934,283.467" transform="translate(-20450 18736)" fill="none" stroke="#f29579" stroke-width="1"/>
    <path id="Path_1993" data-name="Path 1993" d="M20450-18323s143.225,525.188,514.873,399.424,118.094-446.734-49.9-294.879-44.021,468.555,504.559,444.375,302.707-372.41,43.059-348.58,320.221,422.418,554.264,163.434-32.66-357.078-138.455-271.537,490.563,347.686,490.934,283.467" transform="translate(-20450 18731)" fill="none" stroke="#f29579" stroke-width="1"/>
    <path id="Path_1994" data-name="Path 1994" d="M20450-18323s143.225,525.188,514.873,399.424,118.094-446.734-49.9-294.879-44.021,468.555,504.559,444.375,302.707-372.41,43.059-348.58,320.221,422.418,554.264,163.434-32.66-357.078-138.455-271.537,490.563,347.686,490.934,283.467" transform="translate(-20450 18725)" fill="none" stroke="#f29579" stroke-width="1"/>
    <path id="Path_1995" data-name="Path 1995" d="M20450-18323s143.225,525.188,514.873,399.424,118.094-446.734-49.9-294.879-44.021,468.555,504.559,444.375,302.707-372.41,43.059-348.58,320.221,422.418,554.264,163.434-32.66-357.078-138.455-271.537,490.563,347.686,490.934,283.467" transform="translate(-20450 18742)" fill="none" stroke="#f29579" stroke-width="1"/>
    <path id="Path_1996" data-name="Path 1996" d="M20450-18323s143.225,525.188,514.873,399.424,118.094-446.734-49.9-294.879-44.021,468.555,504.559,444.375,302.707-372.41,43.059-348.58,320.221,422.418,554.264,163.434-32.66-357.078-138.455-271.537,490.563,347.686,490.934,283.467" transform="translate(-20450 18749)" fill="none" stroke="#f29579" stroke-width="1"/>
    <path id="Path_1997" data-name="Path 1997" d="M20450-18323s143.225,525.188,514.873,399.424,118.094-446.734-49.9-294.879-44.021,468.555,504.559,444.375,302.707-372.41,43.059-348.58,320.221,422.418,554.264,163.434-32.66-357.078-138.455-271.537,490.563,347.686,490.934,283.467" transform="translate(-20450 18756)" fill="none" stroke="#f29579" stroke-width="1"/>
  </g>
</svg>
