<svg xmlns="http://www.w3.org/2000/svg" width="44.412" height="37" viewBox="0 0 44.412 37">
  <g id="Group_1798" data-name="Group 1798" transform="translate(-1619.256 -742)">
    <g id="Group_1774" data-name="Group 1774" transform="translate(31.256 5)">
      <g id="Icon_ionic-ios-document" data-name="Icon ionic-ios-document" transform="translate(1588 737)">
        <path id="Path_2108" data-name="Path 2108" d="M22.359,13.093h8.417a.458.458,0,0,0,.463-.463h0a2.738,2.738,0,0,0-.99-2.118L23.192,4.629a2.971,2.971,0,0,0-1.905-.684h0a.683.683,0,0,0-.685.684v6.706A1.757,1.757,0,0,0,22.359,13.093Z" transform="translate(-3.119 -3.935)" fill="#2186bc"/>
        <path id="Path_2109" data-name="Path 2109" d="M22.39,11.337v-7.4H10.273A2.969,2.969,0,0,0,7.313,6.9v31.08a2.969,2.969,0,0,0,2.96,2.96h22.2a2.969,2.969,0,0,0,2.96-2.96V15.5h-8.88A4.169,4.169,0,0,1,22.39,11.337Z" transform="translate(-7.313 -3.938)" fill="#2186bc"/>
      </g>
      <g id="Icon_feather-truck" data-name="Icon feather-truck" transform="translate(1594.069 754.184)">
        <path id="Path_2113" data-name="Path 2113" d="M1.5,4.5H13.011v9.976H1.5Z" transform="translate(-1.5 -4.5)" fill="none" stroke="#fff" stroke-linecap="round" stroke-linejoin="round" stroke-width="0.5"/>
        <path id="Path_2114" data-name="Path 2114" d="M24,12h3.07l2.3,2.3v3.837H24Z" transform="translate(-12.489 -8.163)" fill="none" stroke="#fff" stroke-linecap="round" stroke-linejoin="round" stroke-width="0.5"/>
        <path id="Path_2115" data-name="Path 2115" d="M8.337,25.919A1.919,1.919,0,1,1,6.419,24,1.919,1.919,0,0,1,8.337,25.919Z" transform="translate(-2.965 -14.024)" fill="none" stroke="#fff" stroke-linecap="round" stroke-linejoin="round" stroke-width="0.5"/>
        <path id="Path_2116" data-name="Path 2116" d="M27.837,25.919A1.919,1.919,0,1,1,25.919,24,1.919,1.919,0,0,1,27.837,25.919Z" transform="translate(-12.489 -14.024)" fill="none" stroke="#fff" stroke-linecap="round" stroke-linejoin="round" stroke-width="0.5"/>
      </g>
    </g>
    <g id="Group_1775" data-name="Group 1775" transform="translate(2111.5 547.5) rotate(90)">
      <line id="Line_1748" data-name="Line 1748" x1="29" transform="translate(200.5 453.5)" fill="none" stroke="#2186bc" stroke-linecap="round" stroke-width="2"/>
      <path id="Path_2104" data-name="Path 2104" d="M-22333.5-13252.5l6.219-4.277" transform="translate(22534 13706)" fill="none" stroke="#2186bc" stroke-linecap="round" stroke-width="2"/>
      <path id="Path_2105" data-name="Path 2105" d="M-22333.5-13256.777l6.219,4.277" transform="translate(22534 13710.277)" fill="none" stroke="#2186bc" stroke-linecap="round" stroke-width="2"/>
    </g>
  </g>
</svg>
