<svg xmlns="http://www.w3.org/2000/svg" width="18.251" height="18.09" viewBox="0 0 18.251 18.09">
  <path id="Icon_weather-stars" data-name="Icon weather-stars" d="M6.444,16.4a2.316,2.316,0,0,0,2.208-2.3,2.3,2.3,0,0,0,2.2,2.3,2.3,2.3,0,0,0-2.2,2.3,2.188,2.188,0,0,0-.644-1.592A2.233,2.233,0,0,0,6.444,16.4ZM8.652,9.577a4.355,4.355,0,0,0,3.042-1.393,4.338,4.338,0,0,0,1.251-3.108A4.338,4.338,0,0,0,14.2,8.184a4.4,4.4,0,0,0,3.051,1.393,4.392,4.392,0,0,0-2.17.673,4.554,4.554,0,0,0-1.564,1.639,4.456,4.456,0,0,0-.569,2.208,4.537,4.537,0,0,0-4.293-4.52ZM11.8,19.783A3.385,3.385,0,0,0,15.029,16.4a3.386,3.386,0,0,0,3.222,3.383,3.386,3.386,0,0,0-3.222,3.383,3.263,3.263,0,0,0-.938-2.341A3.32,3.32,0,0,0,11.8,19.783Zm6.453-4.492A3.369,3.369,0,0,0,21.463,11.9a3.385,3.385,0,0,0,3.231,3.383,3.385,3.385,0,0,0-3.231,3.383,3.352,3.352,0,0,0-3.212-3.373Z" transform="translate(-6.444 -5.076)"/>
</svg>
