<svg xmlns="http://www.w3.org/2000/svg" width="80.753" height="80.753" viewBox="0 0 80.753 80.753">
  <path id="Icon_awesome-weight" data-name="Icon awesome-weight" d="M69.784,9.969H65.737A29.893,29.893,0,1,1,9.969,24.923,29.682,29.682,0,0,1,14.016,9.969H9.969A9.98,9.98,0,0,0,0,19.938V69.784a9.98,9.98,0,0,0,9.969,9.969H69.784a9.98,9.98,0,0,0,9.969-9.969V19.938A9.98,9.98,0,0,0,69.784,9.969ZM39.877,49.846A24.923,24.923,0,1,0,14.954,24.923,24.922,24.922,0,0,0,39.877,49.846ZM39.83,26.178l5.231-12.206a2.494,2.494,0,0,1,4.586,1.961L44.4,28.169a6.2,6.2,0,1,1-4.572-1.991Z" transform="translate(0.5 0.5)" fill="none" stroke="#000" stroke-width="1"/>
</svg>
