<svg xmlns="http://www.w3.org/2000/svg" width="28.208" height="28.207" viewBox="0 0 28.208 28.207">
  <path id="Icon_awesome-cash-register" data-name="Icon awesome-cash-register" d="M27.158,20.129l-1.419-8.5a1.7,1.7,0,0,0-1.679-1.419H11.051v-3.4h5.1a.853.853,0,0,0,.85-.85V.85a.853.853,0,0,0-.85-.85H2.549A.853.853,0,0,0,1.7.85v5.1a.853.853,0,0,0,.85.85h5.1v3.4H3.139A1.705,1.705,0,0,0,1.46,11.622l-1.419,8.5a3.3,3.3,0,0,0-.048.558v4.825a1.7,1.7,0,0,0,1.7,1.7H25.5a1.7,1.7,0,0,0,1.7-1.7v-4.82A2.821,2.821,0,0,0,27.158,20.129Zm-12.28-6.951a.853.853,0,0,1,.85-.85h.85a.853.853,0,0,1,.85.85v.85a.853.853,0,0,1-.85.85h-.85a.853.853,0,0,1-.85-.85Zm-1.7,3.4h.85a.853.853,0,0,1,.85.85v.85a.853.853,0,0,1-.85.85h-.85a.853.853,0,0,1-.85-.85v-.85A.853.853,0,0,1,13.177,16.579Zm-1.7-4.251a.853.853,0,0,1,.85.85v.85a.853.853,0,0,1-.85.85h-.85a.853.853,0,0,1-.85-.85v-.85a.853.853,0,0,1,.85-.85ZM4.249,4.251v-1.7h10.2v1.7ZM6.375,14.879h-.85a.853.853,0,0,1-.85-.85v-.85a.853.853,0,0,1,.85-.85h.85a.853.853,0,0,1,.85.85v.85A.853.853,0,0,1,6.375,14.879Zm.85,3.4v-.85a.853.853,0,0,1,.85-.85h.85a.853.853,0,0,1,.85.85v.85a.853.853,0,0,1-.85.85h-.85A.853.853,0,0,1,7.225,18.28ZM18.7,24.231a.426.426,0,0,1-.425.425H8.926a.426.426,0,0,1-.425-.425v-.85a.426.426,0,0,1,.425-.425h9.352a.426.426,0,0,1,.425.425Zm1.275-5.952a.853.853,0,0,1-.85.85h-.85a.853.853,0,0,1-.85-.85v-.85a.853.853,0,0,1,.85-.85h.85a.853.853,0,0,1,.85.85Zm2.551-4.251a.853.853,0,0,1-.85.85h-.85a.853.853,0,0,1-.85-.85v-.85a.853.853,0,0,1,.85-.85h.85a.853.853,0,0,1,.85.85Z" transform="translate(0.507 0.5)" fill="none" stroke="#fff" stroke-width="1"/>
</svg>
