<svg xmlns="http://www.w3.org/2000/svg" width="33.813" height="22.552" viewBox="0 0 33.813 22.552">
  <path id="Icon_ionic-ios-arrow-round-forward" data-name="Icon ionic-ios-arrow-round-forward" d="M29.439,11.683a1.535,1.535,0,0,0-.012,2.161L36.568,21H9.39a1.527,1.527,0,0,0,0,3.054H36.556L29.415,31.2a1.546,1.546,0,0,0,.012,2.161,1.521,1.521,0,0,0,2.149-.012L41.254,23.6h0a1.715,1.715,0,0,0,.317-.482,1.457,1.457,0,0,0,.117-.587,1.531,1.531,0,0,0-.435-1.069l-9.678-9.748A1.5,1.5,0,0,0,29.439,11.683Z" transform="translate(-7.875 -11.252)" fill="#fff"/>
</svg>
