<svg xmlns="http://www.w3.org/2000/svg" width="32.147" height="28.281" viewBox="0 0 32.147 28.281">
  <g id="Icon_feather-home" data-name="Icon feather-home" transform="translate(25.654 -1.695)">
    <g id="Component_3_7" data-name="Component 3 – 7" transform="translate(-24.904 2.727)">
      <line id="Line_70" data-name="Line 70" x2="12.147" y2="19.804" transform="translate(18.219)" fill="none" stroke="#fff" stroke-linecap="round" stroke-width="1.5"/>
      <line id="Line_71" data-name="Line 71" x2="28.156" transform="translate(0 26.5)" fill="none" stroke="#fff" stroke-linecap="round" stroke-width="1.5"/>
      <g id="Polygon_17" data-name="Polygon 17" transform="translate(2.5 3.5)" fill="none" stroke-linecap="round" stroke-linejoin="round">
        <path d="M11,0,22,18H0Z" stroke="none"/>
        <path d="M 11 0 L 0 18 L 22 18 L 11 0 M 11 -1.5 C 11.52254962921143 -1.5 12.00743961334229 -1.228059768676758 12.27991962432861 -0.7821807861328125 L 23.27992057800293 17.21781921386719 C 23.5628604888916 17.68081092834473 23.57369995117188 18.26049041748047 23.30829048156738 18.73373985290527 C 23.04288101196289 19.20697975158691 22.54258918762207 19.5 22 19.5 L 0 19.5 C -0.5425891876220703 19.5 -1.042879104614258 19.20697975158691 -1.308290481567383 18.73373985290527 C -1.573699951171875 18.26049041748047 -1.562860488891602 17.68081092834473 -1.27992057800293 17.21781921386719 L 9.720080375671387 -0.7821807861328125 C 9.992560386657715 -1.228059768676758 10.47745037078857 -1.5 11 -1.5 Z" stroke="none" fill="#fff"/>
      </g>
      <g id="Ellipse_134" data-name="Ellipse 134" transform="translate(9.5 11.5)" fill="none" stroke="#fff" stroke-width="1.5">
        <circle cx="4" cy="4" r="4" stroke="none"/>
        <circle cx="4" cy="4" r="3.25" fill="none"/>
      </g>
    </g>
  </g>
</svg>
