<svg xmlns="http://www.w3.org/2000/svg" width="593.586" height="435.91" viewBox="0 0 593.586 435.91">
  <g id="Group_1476" data-name="Group 1476" transform="translate(-663.414 -351.497)">
    <text id="Heart_your_favourite_product_while_browsing." data-name="Heart your favourite product 
while browsing." transform="translate(953 695)" font-size="24" font-family="Lato-Light, Lato" font-weight="300"><tspan x="0" y="0">Heart your favourite product </tspan><tspan x="0" y="29">while browsing.</tspan></text>
    <g id="thread" transform="translate(0 20)">
      <g id="Group_1470" data-name="Group 1470" transform="translate(0 -28)">
        <path id="Path_1979" data-name="Path 1979" d="M15530-10413.713s-26.6-145.143-170.08-146.287-247.172,271.81,170.08,434.941" transform="translate(-14570 10920)" fill="none" stroke="#c00" stroke-width="1"/>
        <path id="Path_1980" data-name="Path 1980" d="M15530-10413.713s-26.6-145.143-170.08-146.287-247.172,271.81,170.08,434.941" transform="translate(-14565 10920)" fill="none" stroke="#c00" stroke-width="1"/>
        <path id="Path_1981" data-name="Path 1981" d="M15530-10413.713s-26.6-145.143-170.08-146.287-247.172,271.81,170.08,434.941" transform="translate(-14560 10920)" fill="none" stroke="#c00" stroke-width="1"/>
        <path id="Path_1982" data-name="Path 1982" d="M15530-10413.713s-26.6-145.143-170.08-146.287-247.172,271.81,170.08,434.941" transform="translate(-14555 10920)" fill="none" stroke="#c00" stroke-width="1"/>
        <path id="Path_1983" data-name="Path 1983" d="M15530-10413.713s-26.6-145.143-170.08-146.287-247.172,271.81,170.08,434.941" transform="translate(-14550 10920)" fill="none" stroke="#c00" stroke-width="1"/>
        <path id="Path_1984" data-name="Path 1984" d="M15530-10413.713s-26.6-145.143-170.08-146.287-247.172,271.81,170.08,434.941" transform="translate(-14545 10920)" fill="none" stroke="#c00" stroke-width="1"/>
      </g>
    </g>
    <text id="Heart_it_take_it_" data-name="Heart it &amp;
take it!" transform="translate(950 569)" fill="#c00" font-size="60" font-family="PlayfairDisplay-Regular, Playfair Display"><tspan x="0" y="0">Heart it &amp;</tspan><tspan x="0" y="80">take it!</tspan></text>
  </g>
</svg>
