<svg xmlns="http://www.w3.org/2000/svg" width="1920.942" height="566.842" viewBox="0 0 1920.942 566.842">
  <g id="Group_1473" data-name="Group 1473" transform="translate(0.762 -117.006)">
    <g id="thread" transform="translate(-0.511 117.353)" opacity="0.503">
      <path id="t1" d="M11272.067-8676.395c102.964-17.605,146.471,45.547,146.471,45.547s43.252-52.194,116.231-50.665,130.861,71.127,124.1,139.257-20.874,103.806-240.335,303.2c-173.9-156.972-146.471-138.076-146.471-138.076s492.294-363.009,963.65-82.226c90.972,54.191,240.365,251.8,329.152,256.324,116.934,5.964-165.771-161.313-65.293-256.324s-39.033,367.125,165.819,297.909c223.354-75.47,525.438-529.2,525.438-529.2" transform="translate(-11270.49 8690.647)" fill="none" stroke="#a7a7a7" stroke-linecap="round" stroke-linejoin="round" stroke-width="0.5"/>
      <path id="t2" d="M11272.067-8676.395c102.964-17.605,146.471,45.547,146.471,45.547s43.252-52.194,116.231-50.665,130.861,71.127,124.1,139.257-20.874,103.806-240.335,303.2c-173.9-156.972-146.471-138.076-146.471-138.076s492.294-363.009,963.65-82.226c90.972,54.191,240.365,251.8,329.152,256.324,116.934,5.964-165.771-161.313-65.293-256.324s-39.033,367.125,165.819,297.909c223.354-75.47,525.438-529.2,525.438-529.2" transform="translate(-11270.49 8696.647)" fill="none" stroke="#a7a7a7" stroke-linecap="round" stroke-linejoin="round" stroke-width="0.5"/>
      <path id="t3" d="M11272.067-8676.395c102.964-17.605,146.471,45.547,146.471,45.547s43.252-52.194,116.231-50.665,130.861,71.127,124.1,139.257-20.874,103.806-240.335,303.2c-173.9-156.972-146.471-138.076-146.471-138.076s492.294-363.009,963.65-82.226c90.972,54.191,240.365,251.8,329.152,256.324,116.934,5.964-165.771-161.313-65.293-256.324s-39.033,367.125,165.819,297.909c223.354-75.47,525.438-529.2,525.438-529.2" transform="translate(-11270.49 8702.647)" fill="none" stroke="#a7a7a7" stroke-linecap="round" stroke-linejoin="round" stroke-width="0.5"/>
      <path id="t4" d="M11272.067-8676.395c102.964-17.605,146.471,45.547,146.471,45.547s43.252-52.194,116.231-50.665,130.861,71.127,124.1,139.257-20.874,103.806-240.335,303.2c-173.9-156.972-146.471-138.076-146.471-138.076s492.294-363.009,963.65-82.226c90.972,54.191,240.365,251.8,329.152,256.324,116.934,5.964-165.771-161.313-65.293-256.324s-39.033,367.125,165.819,297.909c223.354-75.47,525.438-529.2,525.438-529.2" transform="translate(-11270.49 8708.647)" fill="none" stroke="#a7a7a7" stroke-linecap="round" stroke-linejoin="round" stroke-width="0.5"/>
      <path id="t5" d="M11272.067-8676.395c102.964-17.605,146.471,45.547,146.471,45.547s43.252-52.194,116.231-50.665,130.861,71.127,124.1,139.257-20.874,103.806-240.335,303.2c-173.9-156.972-146.471-138.076-146.471-138.076s492.294-363.009,963.65-82.226c90.972,54.191,240.365,251.8,329.152,256.324,116.934,5.964-165.771-161.313-65.293-256.324s-39.033,367.125,165.819,297.909c223.354-75.47,525.438-529.2,525.438-529.2" transform="translate(-11270.49 8714.647)" fill="none" stroke="#a7a7a7" stroke-linecap="round" stroke-linejoin="round" stroke-width="0.5"/>
      <path id="t6" d="M11272.067-8676.395c102.964-17.605,146.471,45.547,146.471,45.547s43.252-52.194,116.231-50.665,130.861,71.127,124.1,139.257-20.874,103.806-240.335,303.2c-173.9-156.972-146.471-138.076-146.471-138.076s492.294-363.009,963.65-82.226c90.972,54.191,240.365,251.8,329.152,256.324,116.934,5.964-165.771-161.313-65.293-256.324s-39.033,367.125,165.819,297.909c223.354-75.47,525.438-529.2,525.438-529.2" transform="translate(-11270.49 8720.647)" fill="none" stroke="#a7a7a7" stroke-linecap="round" stroke-linejoin="round" stroke-width="0.5"/>
    </g>
  </g>
</svg>
